<?xml version="1.0" standalone="no"?>
<!DOCTYPE svg PUBLIC "-//W3C//DTD SVG 1.1//EN" "http://www.w3.org/Graphics/SVG/1.1/DTD/svg11.dtd" >
<svg xmlns="http://www.w3.org/2000/svg" xmlns:xlink="http://www.w3.org/1999/xlink" version="1.1">
<metadata>
Created by FontForge 20170731 at Fri May  5 14:18:57 2017
 By Aleksey,,,
Copyright (c) 2014 Indian Type Foundry (info@indiantypefoundry.com)
</metadata>
<defs>
<font id="Rajdhani-Bold" horiz-adv-x="237" >
  <font-face 
    font-family="Rajdhani"
    font-weight="700"
    font-stretch="normal"
    units-per-em="1000"
    panose-1="2 0 0 0 0 0 0 0 0 0"
    ascent="800"
    descent="-200"
    x-height="510"
    cap-height="643"
    bbox="-474 -346 1980 930"
    underline-thickness="50"
    underline-position="-150"
    unicode-range="U+000D-F6C3"
  />
<missing-glyph horiz-adv-x="600" 
d="M170 536v-490h260v490h-260zM120 0v582h360v-582h-360z" />
    <glyph glyph-name=".notdef" horiz-adv-x="600" 
d="M170 536v-490h260v490h-260zM120 0v582h360v-582h-360z" />
    <glyph glyph-name=".null" horiz-adv-x="0" 
 />
    <glyph glyph-name="nonmarkingreturn" horiz-adv-x="333" 
 />
    <glyph glyph-name="NULL" horiz-adv-x="0" 
 />
    <glyph glyph-name="NULL" horiz-adv-x="0" 
 />
    <glyph glyph-name="CR" unicode="&#xd;" horiz-adv-x="0" 
 />
    <glyph glyph-name="space" unicode=" " horiz-adv-x="220" 
 />
    <glyph glyph-name="exclam" unicode="!" horiz-adv-x="238" 
d="M50 467v155q0 21 21 21h95q21 0 21 -21v-155q0 -40 -4.5 -89.5t-6.5 -73.5t-4 -39t-2 -16q-4 -21 -23 -21h-57q-19 0 -23 21q0 1 -2 16t-4.5 39t-4.5 52q-6 82 -6 111zM184 144v-123q0 -21 -20 -21h-88q-20 0 -20 22v121q0 20 20 20h88q20 0 20 -19z" />
    <glyph glyph-name="quotedbl" unicode="&#x22;" horiz-adv-x="353" 
d="M100 414h-15q-19 0 -21 23l-27 187q-3 19 18 19h77q20 0 17 -19l-26 -189q-5 -21 -23 -21zM267 414h-15q-19 0 -21 23l-27 187q-3 19 18 19h77q20 0 17 -19l-26 -189q-5 -21 -23 -21z" />
    <glyph glyph-name="numbersign" unicode="#" horiz-adv-x="669" 
d="M614 503q20 0 20 -21v-59q0 -22 -20 -22h-98l-38 -159h87q20 0 20 -22v-59q0 -21 -20 -21h-112l-29 -119q-4 -21 -22 -21h-63q-23 0 -17 22l29 118h-113l-29 -119q-6 -21 -26 -21h-59q-22 0 -17 22l29 118h-80q-21 0 -21 21v59q0 22 21 22h105l38 159h-94q-21 0 -21 22
v59q0 21 21 21h119l29 119q5 21 22 21h62q23 0 18 -22l-29 -118h113l29 119q6 21 26 21h58q24 0 18 -22l-29 -118h73zM376 242l38 159h-113l-38 -159h113z" />
    <glyph glyph-name="dollar" unicode="$" horiz-adv-x="527" 
d="M296 -98h-60q-21 0 -21 21v77h-7q-76 0 -118.5 43.5t-42.5 120.5v19q0 21 21 21h85q21 0 21 -21v-7q0 -38 15 -52t55 -14h40q39 0 54.5 15t15.5 56v15q0 25 -15 39t-35 19q-18 4 -70.5 9t-78.5 12.5t-53 25.5q-56 36 -56 141v37q0 79 42.5 121.5t119.5 42.5h7v79
q0 21 21 21h60q21 0 21 -21v-79h2q71 0 112 -44t41 -120v-19q0 -21 -21 -21h-85q-21 0 -21 21v7q0 38 -14.5 52t-55.5 14h-32q-41 0 -55.5 -15.5t-14.5 -60.5v-20q0 -22 15 -34.5t34 -16.5q22 -4 74.5 -8.5t79 -13t52.5 -26.5q53 -38 53 -136v-38q0 -78 -43.5 -121
t-118.5 -43h-2v-77q0 -21 -21 -21z" />
    <glyph glyph-name="percent" unicode="%" horiz-adv-x="741" 
d="M567 235h-23q-22 0 -30 -8.5t-8 -29.5v-87q0 -22 8 -30.5t30 -8.5h23q21 0 29.5 9t8.5 30v87q0 21 -8 29.5t-30 8.5zM525 306h59q52 0 79 -27t27 -78v-96q0 -51 -27 -78t-79 -27h-59q-51 0 -78.5 27t-27.5 78v96q0 51 27.5 78t78.5 27zM197 573h-23q-22 0 -30 -8.5
t-8 -30.5v-87q0 -21 8 -29.5t30 -8.5h23q22 0 30 8.5t8 29.5v87q0 21 -8.5 30t-29.5 9zM156 644h59q52 0 79 -27t27 -78v-96q0 -51 -27 -78t-79 -27h-59q-51 0 -78.5 27t-27.5 78v96q0 51 27.5 78t78.5 27zM271 0h-52q-23 0 -15 21q32 82 119 300.5t119 300.5q9 21 26 21h53
q23 0 15 -21l-238 -601q-8 -21 -27 -21z" />
    <glyph glyph-name="ampersand" unicode="&#x26;" horiz-adv-x="618" 
d="M222 111h42q42 0 48 40l-109 128q-24 -1 -33.5 -16t-9.5 -51v-43q0 -31 14.5 -44.5t47.5 -13.5zM264 0h-61q-79 0 -122 42t-43 120v58q0 50 26.5 88.5t74.5 44.5q-39 51 -39 117v11q0 77 46.5 119.5t126.5 42.5h33q79 0 122 -42t43 -120v-34q0 -22 -21 -22h-85
q-21 0 -21 22v32q0 31 -12 44.5t-38 13.5h-8q-29 0 -42 -13.5t-13 -44.5v-13q0 -39 44 -89l47 -54h222q21 0 21 -22v-68q0 -21 -21 -21h-130l163 -194q5 -6 3 -12t-9 -6h-107q-24 0 -35 14l-44 52q-11 -35 -39.5 -50.5t-81.5 -15.5z" />
    <glyph glyph-name="quotesingle" unicode="'" horiz-adv-x="188" 
d="M102 449h-17q-19 0 -22 19l-24 125q-3 16 18 16h74q21 0 17 -16l-23 -127q-5 -17 -23 -17z" />
    <glyph glyph-name="parenleft" unicode="(" horiz-adv-x="306" 
d="M233 554h-3q-85 0 -85 -116v-335q0 -116 87 -116h1q11 0 15 -4t4 -14v-56q0 -9 -3.5 -12t-15.5 -3h-3q-88 0 -137.5 53.5t-49.5 167.5v303q0 114 50 167.5t138 53.5h3q11 0 14.5 -3t3.5 -12v-56q0 -10 -4 -14t-15 -4z" />
    <glyph glyph-name="parenright" unicode=")" horiz-adv-x="306" 
d="M43 -87v56q0 18 19 18h1q87 0 87 116v335q0 116 -87 116h-1q-19 0 -19 18v56q0 9 4 12t15 3h1q88 0 138.5 -53.5t50.5 -167.5v-303q0 -114 -50.5 -167.5t-138.5 -53.5h-1q-11 0 -15 3t-4 12z" />
    <glyph glyph-name="asterisk" unicode="*" horiz-adv-x="398" 
d="M152 615v9q0 19 20 19h50q20 0 20 -19v-9q0 -40 -18 -83q-3 -8 -6 -15.5t-6.5 -13t-6 -10t-3.5 -7.5q27 33 40 45q28 26 77 42q17 5 25 -13l15 -48q6 -19 -13 -25q-35 -13 -71 -13q-42 1 -67 7q78 -27 113 -83q11 -16 -4 -27l-41 -29q-16 -10 -28 4q-48 58 -48 138
q-3 -64 -16 -91q-9 -22 -28 -52q-10 -14 -28 -3l-40 30q-19 10 -5 27q23 32 39 43.5t26.5 18.5t19.5 11.5t15.5 8t16.5 7.5q-86 -24 -140 -6l-9 3q-17 6 -11 25l15 48q6 19 25 12q60 -17 114 -76l4 -4q-2 3 -4.5 7.5t-6.5 10t-7.5 13t-7.5 16t-7.5 18.5t-6.5 20q-6 20 -6 44
z" />
    <glyph glyph-name="plus" unicode="+" horiz-adv-x="565" 
d="M336 373h136q13 0 18 -5.5t5 -18.5v-56q0 -23 -23 -23h-136v-138q0 -24 -24 -24h-59q-24 0 -24 24v138h-136q-23 0 -23 23v56q0 13 5 18.5t18 5.5h136v137q0 24 24 24h59q24 0 24 -24v-137z" />
    <glyph glyph-name="comma" unicode="," horiz-adv-x="204" 
d="M166 144v-78q0 -27 -23 -62l-69 -101q-7 -10 -19 -10q-17 0 -17 20v230q0 20 20 20h89q19 0 19 -19z" />
    <glyph glyph-name="hyphen" unicode="-" horiz-adv-x="312" 
d="M251 268h-190q-21 0 -21 21v59q0 22 21 22h190q21 0 21 -22v-59q0 -21 -21 -21z" />
    <glyph glyph-name="period" unicode="." horiz-adv-x="204" 
d="M166 144v-123q0 -21 -19 -21h-89q-20 0 -20 21v122q0 20 20 20h89q19 0 19 -19z" />
    <glyph glyph-name="slash" unicode="/" horiz-adv-x="409" 
d="M124 0h-77q-24 0 -16 21q32 82 114 300t114 301q9 21 27 21h77q24 0 16 -21l-228 -601q-8 -21 -27 -21z" />
    <glyph glyph-name="zero" unicode="0" horiz-adv-x="536" 
d="M239 110h59q32 0 45 13.5t13 45.5v305q0 32 -13 45.5t-45 13.5h-59q-32 0 -45 -13.5t-13 -45.5v-305q0 -32 13 -45.5t45 -13.5zM318 0h-100q-79 0 -122 42t-43 121v317q0 79 43 121t122 42h100q78 0 121 -42.5t43 -120.5v-317q0 -78 -43 -120.5t-121 -42.5z" />
    <glyph glyph-name="one" unicode="1" horiz-adv-x="334" 
d="M23 464v82q0 17 15 26l91 57q23 14 39 14h80q21 0 21 -21v-601q0 -12 -4.5 -16.5t-15.5 -4.5h-86q-21 0 -21 21v487l-98 -56q-21 -9 -21 12z" />
    <glyph glyph-name="two" unicode="2" horiz-adv-x="493" 
d="M47 21v95q0 57 49 97l184 156q45 37 45 80v30q0 31 -14.5 44.5t-47.5 13.5h-35q-32 0 -45 -13.5t-13 -44.5v-32q0 -22 -21 -22h-85q-21 0 -21 22v34q0 78 43 120t122 42h76q79 0 122 -42t43 -120v-40q0 -78 -60 -129l-188 -160q-12 -11 -12 -24v-16h239q21 0 21 -21v-70
q0 -21 -21 -21h-360q-21 0 -21 21z" />
    <glyph glyph-name="three" unicode="3" horiz-adv-x="509" 
d="M219 374h51q33 0 47.5 13.5t14.5 44.5v47q0 31 -14.5 44.5t-47.5 13.5h-48q-32 0 -45 -13.5t-13 -44.5v-25q0 -21 -21 -21h-85q-21 0 -21 21v27q0 78 43 120t122 42h89q79 0 122 -42t43 -120v-50q0 -84 -79 -109q79 -17 79 -109v-51q0 -78 -43 -120t-122 -42h-89
q-79 0 -122 42t-43 120v28q0 22 21 22h85q21 0 21 -22v-26q0 -32 13 -45t45 -13h48q33 0 47.5 13.5t14.5 44.5v49q0 31 -14.5 44.5t-47.5 13.5h-51q-21 0 -21 21v60q0 22 21 22z" />
    <glyph glyph-name="four" unicode="4" horiz-adv-x="541" 
d="M318 227v309l-162 -309h162zM417 0h-78q-21 0 -21 21v96h-248q-17 0 -27 10t-10 27v39q0 30 10 49l199 370q10 18 18.5 24.5t25.5 6.5h113q17 0 27.5 -10t10.5 -27v-379h72q20 0 20 -20v-67q0 -23 -20 -23h-72v-96q0 -12 -4.5 -16.5t-15.5 -4.5z" />
    <glyph glyph-name="five" unicode="5" horiz-adv-x="506" 
d="M273 327h-47q-26 0 -39.5 -21t-28.5 -21h-83q-21 0 -21 20v317q0 21 21 21h348q21 0 21 -21v-76q0 -21 -21 -21h-242v-147q17 50 84 50h42q155 0 155 -155v-110q0 -78 -43 -120.5t-121 -42.5h-88q-79 0 -122 42t-43 121v20q0 22 21 22h85q21 0 21 -22v-19
q0 -31 13.5 -44.5t44.5 -13.5h47q32 0 47 13.5t15 44.5v90q0 42 -14 57.5t-52 15.5z" />
    <glyph glyph-name="six" unicode="6" horiz-adv-x="525" 
d="M237 110h57q32 0 45.5 13.5t13.5 45.5v69q0 32 -13.5 45.5t-45.5 13.5h-115v-128q0 -32 13 -45.5t45 -13.5zM315 0h-98q-79 0 -122 42t-43 121v317q0 79 43 121t122 42h204q21 0 21 -21v-69q0 -20 -21 -20h-184q-31 0 -44.5 -13.5t-13.5 -45.5v-67h136q79 0 122 -42
t43 -121v-81q0 -79 -43 -121t-122 -42z" />
    <glyph glyph-name="seven" unicode="7" horiz-adv-x="431" 
d="M169 0h-94q-9 0 -12.5 5.5t1.5 15.5l211 506h-235q-21 0 -21 21v74q0 21 21 21h350q21 0 21 -21v-84q0 -20 -14 -54l-194 -465q-8 -19 -34 -19z" />
    <glyph glyph-name="eight" unicode="8" horiz-adv-x="542" 
d="M237 109h68q32 0 45 13t13 44v46q0 32 -13 47t-45 15h-68q-32 0 -45 -15t-13 -47v-46q0 -31 13 -44t45 -13zM237 373h68q32 0 45 15t13 47v42q0 31 -13 44t-45 13h-68q-32 0 -45 -13t-13 -44v-42q0 -32 13 -47t45 -15zM324 0h-106q-80 0 -122.5 39.5t-42.5 116.5v46
q0 92 66 121q-66 27 -66 122v43q0 77 42.5 116t122.5 39h106q79 0 121.5 -39t42.5 -116v-43q0 -47 -18 -80t-47 -42q65 -26 65 -122v-45q0 -77 -42.5 -116.5t-121.5 -39.5z" />
    <glyph glyph-name="nine" unicode="9" horiz-adv-x="525" 
d="M229 339h116v135q0 32 -13.5 45.5t-45.5 13.5h-57q-32 0 -45 -13.5t-13 -45.5v-77q0 -31 13 -44.5t45 -13.5zM306 0h-211q-22 0 -22 21v69q0 20 22 20h191q32 0 45 13.5t13 45.5v60h-136q-79 0 -122 42t-43 120v89q0 79 43 121t122 42h98q79 0 122 -42t43 -121v-317
q0 -79 -43 -121t-122 -42z" />
    <glyph glyph-name="colon" unicode=":" horiz-adv-x="204" 
d="M166 491v-123q0 -21 -19 -21h-89q-20 0 -20 23v120q0 20 20 20h89q19 0 19 -19zM166 144v-123q0 -21 -19 -21h-89q-20 0 -20 22v121q0 20 20 20h89q19 0 19 -19z" />
    <glyph glyph-name="semicolon" unicode=";" horiz-adv-x="204" 
d="M166 144v-78q0 -27 -23 -62l-69 -101q-7 -10 -19 -10q-17 0 -17 20v230q0 20 20 20h89q19 0 19 -19zM166 491v-123q0 -21 -19 -21h-89q-20 0 -20 23v120q0 20 20 20h89q19 0 19 -19z" />
    <glyph glyph-name="less" unicode="&#x3c;" horiz-adv-x="563" 
d="M494 501v-66q0 -24 -19 -29l-301 -79l301 -79q19 -4 19 -29v-65q0 -22 -24 -15l-374 121q-27 9 -27 40v54q0 31 27 40l374 121q24 9 24 -14z" />
    <glyph glyph-name="equal" unicode="=" horiz-adv-x="567" 
d="M94 471h379q13 0 18 -5.5t5 -18.5v-54q0 -13 -5 -18.5t-18 -5.5h-379q-13 0 -18 5.5t-5 18.5v54q0 13 5 18.5t18 5.5zM94 274h379q13 0 18 -5.5t5 -18.5v-54q0 -13 -5 -18.5t-18 -5.5h-379q-13 0 -18 5.5t-5 18.5v54q0 13 5 18.5t18 5.5z" />
    <glyph glyph-name="greater" unicode="&#x3e;" horiz-adv-x="567" 
d="M71 435v66q0 23 24 14l374 -121q27 -9 27 -40v-54q0 -31 -27 -40l-374 -121q-24 -7 -24 15v65q0 25 19 29l301 79l-301 79q-19 5 -19 29z" />
    <glyph glyph-name="question" unicode="?" horiz-adv-x="466" 
d="M289 144v-123q0 -21 -19 -21h-89q-20 0 -20 22v121q0 20 20 20h89q19 0 19 -19zM288 275v-26q0 -21 -21 -21h-79q-21 0 -21 21v27q0 33 11 53.5t37 41.5l56 46q32 25 32 55v6q0 31 -14.5 44.5t-47.5 13.5h-18q-31 0 -44.5 -13t-13.5 -45v-21q0 -22 -21 -22h-85
q-21 0 -21 22v23q0 78 43 120t122 42h59q79 0 122 -42t43 -120v-14q0 -49 -45 -88l-68 -55q-26 -24 -26 -48z" />
    <glyph glyph-name="at" unicode="@" horiz-adv-x="746" 
d="M561 157q64 2 64 67v190q0 57 -38 87t-96 30h-189q-82 0 -127.5 -46.5t-45.5 -131.5v-161q0 -84 49.5 -131t132.5 -47h180q21 0 21 -21v-30q0 -21 -21 -21h-179q-112 0 -183.5 65t-71.5 171v183q0 102 67 172t170 70h205q87 0 143 -51.5t56 -130.5v-206q0 -58 -38 -95
t-96 -37h-58q-27 0 -46.5 13t-19.5 38v4h-4q-24 -55 -99 -55q-61 0 -99.5 39.5t-38.5 115.5v59q0 77 40.5 120t107.5 43h173q22 0 22 -21v-270q0 -12 19 -12zM440 253v100q0 12 -12 12h-60q-32 0 -45 -13.5t-13 -45.5v-71q0 -31 13 -44.5t45 -13.5h3q69 0 69 76z" />
    <glyph glyph-name="A" unicode="A" horiz-adv-x="557" 
d="M132 0h-96q-18 0 -12 21l158 601q7 21 30 21h133q25 0 30 -21l158 -601q6 -21 -12 -21h-96q-11 0 -15 4.5t-6 16.5l-28 110h-195l-28 -110q-2 -12 -6.5 -16.5t-14.5 -4.5zM277 522l-72 -289h148l-72 289h-4z" />
    <glyph glyph-name="B" unicode="B" horiz-adv-x="555" 
d="M203 106h112q33 0 47.5 13.5t14.5 44.5v58q0 31 -15 44t-49 13h-110q-11 0 -11 -11v-151q0 -11 11 -11zM203 382h102q32 0 47 13.5t15 44.5v39q0 31 -14.5 44.5t-46.5 13.5h-103q-11 0 -11 -11v-133q0 -11 11 -11zM65 21v601q0 21 21 21h240q79 0 122 -42t43 -120v-41
q0 -85 -79 -110q40 -6 64 -32.5t24 -75.5v-60q0 -78 -43 -120t-121 -42h-250q-21 0 -21 21z" />
    <glyph glyph-name="C" unicode="C" horiz-adv-x="538" 
d="M329 0h-109q-79 0 -122 42t-43 121v317q0 79 43 121t122 42h109q78 0 121.5 -42.5t43.5 -120.5v-47q0 -22 -22 -22h-84q-21 0 -21 22v41q0 32 -13.5 45.5t-45.5 13.5h-68q-31 0 -44.5 -13.5t-13.5 -45.5v-305q0 -32 13.5 -45.5t44.5 -13.5h68q32 0 45.5 13.5t13.5 45.5
v41q0 22 21 22h84q22 0 22 -22v-47q0 -78 -43.5 -120.5t-121.5 -42.5z" />
    <glyph glyph-name="D" unicode="D" horiz-adv-x="553" 
d="M203 110h109q32 0 45.5 13.5t13.5 45.5v305q0 32 -13.5 45.5t-45.5 13.5h-109q-11 0 -11 -11v-401q0 -11 11 -11zM65 21v601q0 21 21 21h247q78 0 121.5 -42.5t43.5 -120.5v-317q0 -78 -43.5 -120.5t-121.5 -42.5h-247q-21 0 -21 21z" />
    <glyph glyph-name="E" unicode="E" horiz-adv-x="479" 
d="M413 0h-327q-21 0 -21 21v601q0 21 21 21h327q20 0 20 -21v-68q0 -21 -20 -21h-209q-12 0 -12 -11v-130q0 -11 12 -11h171q21 0 21 -21v-68q0 -21 -21 -21h-171q-12 0 -12 -11v-139q0 -11 12 -11h209q20 0 20 -21v-68q0 -21 -20 -21z" />
    <glyph glyph-name="F" unicode="F" horiz-adv-x="450" 
d="M171 0h-85q-21 0 -21 21v601q0 21 21 21h319q20 0 20 -21v-68q0 -21 -20 -21h-201q-12 0 -12 -11v-155q0 -12 12 -12h171q21 0 21 -21v-67q0 -22 -21 -22h-171q-12 0 -12 -11v-213q0 -21 -21 -21z" />
    <glyph glyph-name="G" unicode="G" horiz-adv-x="545" 
d="M326 0h-106q-79 0 -122 42t-43 121v317q0 79 43 121t122 42h106q78 0 121 -42.5t43 -120.5v-30q0 -22 -21 -22h-85q-21 0 -21 22v24q0 32 -13 45.5t-45 13.5h-65q-31 0 -44.5 -13.5t-13.5 -45.5v-305q0 -32 13.5 -45.5t44.5 -13.5h65q32 0 45 13.5t13 45.5v63
q0 11 -11 11h-60q-21 0 -21 21v68q0 21 21 21h175q23 0 23 -23v-167q0 -78 -43 -120.5t-121 -42.5z" />
    <glyph glyph-name="H" unicode="H" horiz-adv-x="576" 
d="M171 0h-85q-21 0 -21 21v601q0 21 21 21h85q21 0 21 -21v-235q0 -11 12 -11h169q11 0 11 11v235q0 21 21 21h85q21 0 21 -21v-601q0 -21 -21 -21h-85q-21 0 -21 21v234q0 11 -11 11h-169q-12 0 -12 -11v-234q0 -21 -21 -21z" />
    <glyph glyph-name="I" unicode="I" horiz-adv-x="267" 
d="M197 622v-601q0 -21 -21 -21h-85q-21 0 -21 21v601q0 21 21 21h85q21 0 21 -21z" />
    <glyph glyph-name="J" unicode="J" horiz-adv-x="521" 
d="M356 643h84q21 0 21 -20v-460q0 -78 -43 -120.5t-121 -42.5h-100q-79 0 -122 42t-43 121v94q0 21 21 21h85q21 0 21 -21v-88q0 -32 13.5 -45.5t44.5 -13.5h59q32 0 45 13.5t13 45.5v453q0 21 22 21z" />
    <glyph glyph-name="K" unicode="K" horiz-adv-x="558" 
d="M171 0h-85q-21 0 -21 21v601q0 21 21 21h85q21 0 21 -21v-285h2q8 24 31 62l152 223q13 21 39 21h98q11 0 13.5 -6.5t-5.5 -16.5l-190 -263l212 -332q7 -12 2.5 -18.5t-18.5 -6.5h-73q-35 0 -47 21l-153 245l-63 -74v-171q0 -21 -21 -21z" />
    <glyph glyph-name="L" unicode="L" horiz-adv-x="449" 
d="M415 0h-329q-21 0 -21 21v601q0 21 21 21h85q21 0 21 -21v-500q0 -11 12 -11h211q20 0 20 -22v-68q0 -21 -20 -21z" />
    <glyph glyph-name="M" unicode="M" horiz-adv-x="726" 
d="M492 643h148q21 0 21 -21v-601q0 -21 -21 -21h-82q-21 0 -21 21v474h-4l-102 -335q-6 -20 -25 -20h-84q-19 0 -25 20l-104 336h-4v-475q0 -12 -4 -16.5t-17 -4.5h-82q-21 0 -21 21v601q0 21 21 21h149q14 0 19 -14l106 -353h6l107 353q3 14 19 14z" />
    <glyph glyph-name="N" unicode="N" horiz-adv-x="585" 
d="M169 0h-83q-21 0 -21 21v601q0 21 21 21h75q21 0 28 -14l202 -379h4v372q0 21 21 21h83q21 0 21 -21v-601q0 -21 -21 -21h-73q-22 0 -32 20l-200 372h-4v-371q0 -21 -21 -21z" />
    <glyph glyph-name="O" unicode="O" horiz-adv-x="552" 
d="M240 110h71q32 0 45.5 13.5t13.5 45.5v305q0 32 -13.5 45.5t-45.5 13.5h-71q-32 0 -45 -13.5t-13 -45.5v-305q0 -32 13 -45.5t45 -13.5zM332 0h-112q-79 0 -122 42t-43 121v317q0 79 43 121t122 42h112q79 0 122 -42t43 -121v-317q0 -79 -43 -121t-122 -42z" />
    <glyph glyph-name="P" unicode="P" horiz-adv-x="530" 
d="M171 0h-85q-21 0 -21 21v601q0 21 21 21h244q78 0 121 -42.5t43 -120.5v-96q0 -78 -43 -120.5t-121 -42.5h-126q-12 0 -12 -11v-189q0 -21 -21 -21zM203 332h106q32 0 45 13.5t13 44.5v84q0 32 -13 45.5t-45 13.5h-106q-11 0 -11 -11v-179q0 -11 11 -11z" />
    <glyph glyph-name="Q" unicode="Q" horiz-adv-x="569" 
d="M249 110h71q32 0 45.5 13.5t13.5 45.5v305q0 32 -13.5 45.5t-45.5 13.5h-71q-32 0 -45 -13.5t-13 -45.5v-305q0 -32 13 -45.5t45 -13.5zM432 -133h-73q-27 0 -39 21l-65 112h-27q-79 0 -122 42t-43 121v317q0 79 43 121t122 42h112q79 0 122 -42t43 -121v-317
q0 -66 -31.5 -107t-89.5 -52l64 -111q5 -12 0 -19t-16 -7z" />
    <glyph glyph-name="R" unicode="R" horiz-adv-x="547" 
d="M171 0h-85q-21 0 -21 21v601q0 21 21 21h238q78 0 122 -43t44 -121v-78q0 -113 -89 -150v-4l107 -223q9 -24 -17 -24h-81q-18 0 -26 4t-13 17l-100 216h-67q-12 0 -12 -11v-205q0 -21 -21 -21zM203 339h98q32 0 47 13.5t15 43.5v78q0 31 -15 45t-47 14h-98q-11 0 -11 -11
v-172q0 -11 11 -11z" />
    <glyph glyph-name="S" unicode="S" horiz-adv-x="539" 
d="M49 164v20q0 21 21 21h85q21 0 21 -21v-8q0 -38 15 -52t55 -14h47q39 0 54.5 15t15.5 56v12q0 29 -23.5 44.5t-58.5 18.5t-75.5 11.5t-75.5 22t-58.5 53t-23.5 101.5v35q0 78 44 121t122 43h100q79 0 123 -43t44 -121v-19q0 -21 -21 -21h-85q-21 0 -21 21v6q0 39 -15 53
t-55 14h-39q-41 0 -55.5 -15.5t-14.5 -60.5v-19q0 -47 82 -54q85 -7 151 -34q35 -15 58.5 -53.5t23.5 -98.5v-34q0 -78 -44 -121t-122 -43h-109q-78 0 -122 43t-44 121z" />
    <glyph glyph-name="T" unicode="T" horiz-adv-x="443" 
d="M264 0h-84q-22 0 -22 21v501q0 11 -11 11h-114q-21 0 -21 21v68q0 21 21 21h378q21 0 21 -21v-68q0 -21 -21 -21h-114q-12 0 -12 -11v-501q0 -21 -21 -21z" />
    <glyph glyph-name="U" unicode="U" horiz-adv-x="560" 
d="M394 643h84q22 0 22 -20v-460q0 -78 -43.5 -120.5t-121.5 -42.5h-110q-79 0 -122 42t-43 121v459q0 21 21 21h85q21 0 21 -21v-453q0 -32 13.5 -45.5t44.5 -13.5h69q32 0 45.5 13.5t13.5 45.5v453q0 21 21 21z" />
    <glyph glyph-name="V" unicode="V" horiz-adv-x="521" 
d="M327 0h-131q-21 0 -25 21l-155 599q-7 23 20 23h94q20 0 24 -21l105 -492h4l105 492q4 21 24 21h94q25 0 20 -23l-155 -599q-5 -21 -24 -21z" />
    <glyph glyph-name="W" unicode="W" horiz-adv-x="807" 
d="M287 0h-140q-22 0 -25 21l-107 601q-3 21 21 21h104q23 0 24 -21l58 -493h7l96 496q3 18 21 18h112q19 0 22 -17l98 -497h8l57 492q1 22 24 22h104q24 0 21 -22l-108 -600q-3 -21 -23 -21h-141q-21 0 -24 21l-90 469h-4l-91 -469q-4 -21 -24 -21z" />
    <glyph glyph-name="X" unicode="X" horiz-adv-x="540" 
d="M138 0h-99q-10 0 -14 6.5t0 15.5l155 307l-150 292q-4 8 0 15t14 7h96q25 0 33 -21l95 -215h4l94 215q10 21 32 21h98q10 0 14.5 -7.5t0.5 -15.5l-152 -291l155 -306q5 -10 1 -16.5t-15 -6.5h-100q-21 0 -29 20l-99 216h-4l-100 -216q-9 -20 -30 -20z" />
    <glyph glyph-name="Y" unicode="Y" horiz-adv-x="517" 
d="M301 0h-85q-21 0 -21 21v214l-183 386q-4 9 0.5 15.5t13.5 6.5h106q16 0 24 -21l100 -243h7l98 243q7 21 24 21h106q10 0 14.5 -6t-0.5 -16l-183 -386v-214q0 -21 -21 -21z" />
    <glyph glyph-name="Z" unicode="Z" horiz-adv-x="521" 
d="M48 21v60q0 33 13 49l265 391v4h-239q-21 0 -21 21v76q0 21 21 21h355q20 0 20 -21v-86q0 -30 -15 -52l-249 -362v-4h254q20 0 20 -19v-76q0 -23 -20 -23h-383q-21 0 -21 21z" />
    <glyph glyph-name="bracketleft" unicode="[" horiz-adv-x="323" 
d="M241 -98h-144q-20 0 -20 22v698q0 21 20 21h144q20 0 20 -21v-43q0 -21 -20 -21h-50q-12 0 -12 -12v-547q0 -12 12 -12h50q20 0 20 -21v-43q0 -21 -20 -21z" />
    <glyph glyph-name="backslash" unicode="\" horiz-adv-x="409" 
d="M46 643h78q18 0 27 -21q32 -83 114 -301t114 -300q8 -21 -16 -21h-77q-19 0 -27 21l-228 601q-8 21 15 21z" />
    <glyph glyph-name="bracketright" unicode="]" horiz-adv-x="323" 
d="M60 -77v43q0 21 21 21h50q11 0 11 12v547q0 12 -11 12h-50q-21 0 -21 21v43q0 21 21 21h143q20 0 20 -21v-698q0 -22 -20 -22h-143q-21 0 -21 21z" />
    <glyph glyph-name="asciicircum" unicode="^" horiz-adv-x="511" 
d="M138 362h-77q-26 0 -15 21l120 229q9 18 18 24.5t26 6.5h90q17 0 26 -6.5t18 -24.5l120 -229q11 -21 -15 -21h-77q-17 0 -27 20l-90 179l-90 -179q-10 -20 -27 -20z" />
    <glyph glyph-name="underscore" unicode="_" horiz-adv-x="372" 
d="M351 -112h-330q-21 0 -21 22v26q0 21 21 21h330q21 0 21 -21v-26q0 -22 -21 -22z" />
    <glyph glyph-name="grave" unicode="`" horiz-adv-x="298" 
d="M231 574h-65q-16 0 -27 13l-81 96q-7 8 -4 14t14 6h99q19 0 30 -19l44 -89q11 -21 -10 -21z" />
    <glyph glyph-name="a" unicode="a" horiz-adv-x="518" 
d="M234 0h-24q-79 0 -122 42t-43 121v184q0 79 43 121t122 42h231q22 0 22 -21v-468q0 -21 -22 -21h-84q-21 0 -21 21v33h-4q-11 -27 -39 -40.5t-59 -13.5zM336 186v203q0 11 -12 11h-94q-32 0 -45 -13.5t-13 -45.5v-172q0 -32 13 -45.5t45 -13.5h37q69 0 69 76z" />
    <glyph glyph-name="b" unicode="b" horiz-adv-x="526" 
d="M193 110h102q32 0 45.5 13.5t13.5 45.5v174q0 32 -13.5 45.5t-45.5 13.5h-44q-69 0 -69 -76v-205q0 -11 11 -11zM55 21v661q0 21 21 21h85q21 0 21 -21v-225h4q11 27 39 41t59 14h32q79 0 122 -42t43 -121v-186q0 -79 -43 -121t-122 -42h-240q-21 0 -21 21z" />
    <glyph glyph-name="c" unicode="c" horiz-adv-x="411" 
d="M380 89v-69q0 -11 -4.5 -15.5t-16.5 -4.5h-149q-79 0 -122 42t-43 121v184q0 79 43 121t122 42h149q21 0 21 -21v-69q0 -11 -4.5 -15.5t-16.5 -4.5h-129q-31 0 -44.5 -13.5t-13.5 -45.5v-172q0 -32 13.5 -45.5t44.5 -13.5h129q21 0 21 -21z" />
    <glyph glyph-name="d" unicode="d" horiz-adv-x="526" 
d="M242 0h-41q-77 0 -116.5 42t-39.5 121v184q0 79 39.5 121t116.5 42h41q31 0 59 -13.5t39 -40.5h4v226q0 21 21 21h85q21 0 21 -21v-661q0 -21 -21 -21h-85q-21 0 -21 21v33h-4q-11 -27 -39 -40.5t-59 -13.5zM344 186v138q0 76 -69 76h-45q-32 0 -45 -13.5t-13 -45.5v-172
q0 -32 13 -45.5t45 -13.5h45q69 0 69 76z" />
    <glyph glyph-name="e" unicode="e" horiz-adv-x="494" 
d="M431 0h-221q-79 0 -122 42t-43 121v184q0 79 43 121t122 42h79q79 0 122 -42t43 -121v-127q0 -21 -21 -21h-251q-12 0 -12 -11v-22q0 -31 13.5 -44.5t45.5 -13.5h202q21 0 21 -22v-66q0 -11 -4.5 -15.5t-16.5 -4.5zM182 284h136q11 0 11 11v48q0 32 -13 45t-45 13h-42
q-32 0 -45 -13t-13 -45v-48q0 -11 11 -11z" />
    <glyph glyph-name="f" unicode="f" horiz-adv-x="354" 
d="M240 510h80q12 0 16.5 -4.5t4.5 -15.5v-69q0 -21 -21 -21h-80q-11 0 -11 -11v-368q0 -21 -22 -21h-84q-21 0 -21 21v368q0 11 -12 11h-46q-21 0 -21 21v69q0 12 4.5 16t16.5 4h46q12 0 12 11v19q0 79 41.5 121t120.5 42h57q12 0 16 -4.5t4 -15.5v-69q0 -21 -20 -21h-37
q-32 0 -43.5 -13.5t-11.5 -45.5v-13q0 -11 11 -11z" />
    <glyph glyph-name="g" unicode="g" horiz-adv-x="519" 
d="M235 23h-33q-77 0 -116.5 42t-39.5 121v161q0 79 43 121t122 42h231q22 0 22 -21v-493q0 -78 -43.5 -120t-121.5 -42h-192q-12 0 -16.5 4.5t-4.5 15.5v69q0 21 21 21h171q32 0 45.5 13.5t13.5 44.5v76h-4q-11 -27 -39 -41t-59 -14zM337 209v180q0 11 -12 11h-94
q-32 0 -45 -13.5t-13 -45.5v-149q0 -32 13 -45t45 -13h37q69 0 69 75z" />
    <glyph glyph-name="h" unicode="h" horiz-adv-x="523" 
d="M161 0h-85q-21 0 -21 21v661q0 21 21 21h85q21 0 21 -21v-226h4q22 54 98 54h32q157 0 157 -163v-326q0 -21 -22 -21h-84q-21 0 -21 21v320q0 32 -13.5 45.5t-45.5 13.5h-36q-69 0 -69 -76v-303q0 -21 -21 -21z" />
    <glyph glyph-name="i" unicode="i" horiz-adv-x="247" 
d="M60 596v87q0 20 20 20h87q20 0 20 -19v-88q0 -20 -20 -20h-87q-20 0 -20 20zM60 21v468q0 21 20 21h86q21 0 21 -21v-468q0 -13 -4.5 -17t-15.5 -4h-86q-21 0 -21 21z" />
    <glyph glyph-name="j" unicode="j" horiz-adv-x="247" 
d="M60 596v87q0 20 20 20h87q20 0 20 -19v-88q0 -20 -20 -20h-87q-20 0 -20 20zM21 -166h-67q-21 0 -21 21v68q0 21 21 21h28q45 0 61.5 16t16.5 61v468q0 21 21 21h85q21 0 21 -21v-491q0 -78 -44 -121t-122 -43z" />
    <glyph glyph-name="k" unicode="k" horiz-adv-x="472" 
d="M347 510h97q12 0 16 -7t-3 -18l-133 -219v-4l139 -237q6 -10 1 -17.5t-18 -7.5h-86q-17 0 -24.5 4t-15.5 17l-127 223q-9 16 0 33l120 213q11 20 34 20zM161 0h-85q-21 0 -21 21v661q0 21 21 21h85q21 0 21 -21v-661q0 -21 -21 -21z" />
    <glyph glyph-name="l" unicode="l" horiz-adv-x="247" 
d="M166 0h-85q-21 0 -21 21v661q0 21 21 21h85q21 0 21 -21v-661q0 -21 -21 -21z" />
    <glyph glyph-name="m" unicode="m" horiz-adv-x="798" 
d="M161 0h-85q-21 0 -21 21v468q0 21 21 21h85q21 0 21 -21v-33h4q12 24 40.5 39t65.5 15h28q87 0 125 -64q34 64 117 64h29q77 0 116.5 -42t39.5 -121v-326q0 -21 -21 -21h-85q-21 0 -21 21v320q0 32 -13 45.5t-45 13.5h-25q-69 0 -69 -77v-302q0 -21 -22 -21h-84
q-21 0 -21 21v320q0 32 -13.5 45.5t-45.5 13.5h-31q-69 0 -69 -76v-303q0 -21 -21 -21z" />
    <glyph glyph-name="n" unicode="n" horiz-adv-x="523" 
d="M161 0h-85q-21 0 -21 21v468q0 21 21 21h85q21 0 21 -21v-33h4q22 54 98 54h32q157 0 157 -163v-326q0 -21 -22 -21h-84q-21 0 -21 21v320q0 32 -13.5 45.5t-45.5 13.5h-36q-69 0 -69 -76v-303q0 -21 -21 -21z" />
    <glyph glyph-name="o" unicode="o" horiz-adv-x="509" 
d="M299 0h-89q-79 0 -122 42t-43 121v184q0 79 43 121t122 42h89q78 0 121.5 -42.5t43.5 -120.5v-184q0 -78 -43.5 -120.5t-121.5 -42.5zM229 109h51q32 0 45.5 13t13.5 45v176q0 32 -13.5 45t-45.5 13h-51q-32 0 -45 -13t-13 -45v-176q0 -32 13 -45t45 -13z" />
    <glyph glyph-name="p" unicode="p" horiz-adv-x="526" 
d="M161 -136h-85q-21 0 -21 20v605q0 21 21 21h85q21 0 21 -21v-33h4q11 27 39 40.5t59 13.5h41q77 0 116.5 -42t39.5 -121v-184q0 -79 -39.5 -121t-116.5 -42h-41q-31 0 -59 13.5t-39 40.5h-4v-170q0 -20 -21 -20zM251 110h44q32 0 45.5 13.5t13.5 45.5v172
q0 32 -13.5 45.5t-45.5 13.5h-44q-69 0 -69 -76v-138q0 -76 69 -76z" />
    <glyph glyph-name="q" unicode="q" horiz-adv-x="518" 
d="M336 187v202q0 11 -12 11h-94q-32 0 -45 -13.5t-13 -45.5v-172q0 -32 13 -45.5t45 -13.5h36q70 0 70 77zM233 0h-23q-79 0 -122 42t-43 121v184q0 79 43 121t122 42h231q22 0 22 -21v-605q0 -20 -22 -20h-84q-21 0 -21 20v171h-4q-24 -55 -99 -55z" />
    <glyph glyph-name="r" unicode="r" horiz-adv-x="349" 
d="M161 0h-85q-21 0 -21 21v468q0 21 21 21h85q21 0 21 -21v-34h4q11 27 39 41t59 14h36q20 0 20 -21v-69q0 -12 -4.5 -16.5t-15.5 -3.5h-69q-69 0 -69 -78v-301q0 -21 -21 -21z" />
    <glyph glyph-name="s" unicode="s" horiz-adv-x="438" 
d="M248 0h-190q-20 0 -20 21v64q0 11 4 15.5t16 4.5h167q49 0 49 30v5q0 24 -41 46l-99 55q-51 26 -75 56t-24 77q0 70 37 103t116 33h167q20 0 20 -21v-65q0 -11 -4 -15.5t-16 -4.5h-139q-49 0 -49 -25v-5q0 -22 43 -45l101 -60q52 -28 73 -57.5t21 -77.5q0 -134 -157 -134
z" />
    <glyph glyph-name="t" unicode="t" horiz-adv-x="353" 
d="M66 400h-40q-12 0 -16.5 4t-4.5 16v69q0 21 21 21h40q11 0 11 11v95q0 21 22 21h84q21 0 21 -21v-95q0 -11 12 -11h78q21 0 21 -21v-69q0 -11 -4.5 -15.5t-16.5 -4.5h-78q-12 0 -12 -11v-221q0 -31 14 -44.5t46 -13.5h40q21 0 21 -21v-69q0 -11 -4.5 -15.5t-16.5 -4.5
h-61q-79 0 -122.5 42t-43.5 120v227q0 11 -11 11z" />
    <glyph glyph-name="u" unicode="u" horiz-adv-x="523" 
d="M239 0h-33q-77 0 -116.5 42t-39.5 121v326q0 21 21 21h85q21 0 21 -21v-320q0 -32 13.5 -45.5t44.5 -13.5h37q69 0 69 76v303q0 21 21 21h84q22 0 22 -21v-468q0 -21 -22 -21h-84q-21 0 -21 21v33h-4q-11 -27 -39 -40.5t-59 -13.5z" />
    <glyph glyph-name="v" unicode="v" horiz-adv-x="468" 
d="M33 510h88q20 0 24 -21l86 -376h7l84 376q4 21 25 21h88q21 0 15 -21l-126 -467q-4 -22 -27 -22h-127q-21 0 -27 22l-125 467q-6 21 15 21z" />
    <glyph glyph-name="w" unicode="w" horiz-adv-x="696" 
d="M259 0h-114q-19 0 -24 21l-100 468q-4 21 15 21h96q22 0 24 -21l45 -342h8l71 342q3 21 23 21h88q21 0 25 -21l69 -342h8l46 342q3 21 24 21h96q20 0 15 -21l-100 -468q-4 -21 -24 -21h-114q-20 0 -24 21l-61 338h-8l-60 -338q-3 -21 -24 -21z" />
    <glyph glyph-name="x" unicode="x" horiz-adv-x="462" 
d="M137 0h-101q-26 0 -14 21l126 239l-126 229q-10 21 12 21h102q24 0 31 -21l63 -152h4l55 152q7 21 31 21h100q26 0 13 -21l-120 -229l129 -239q5 -9 1.5 -15t-13.5 -6h-103q-21 0 -30 21l-63 153h-4l-63 -153q-7 -21 -30 -21z" />
    <glyph glyph-name="y" unicode="y" horiz-adv-x="471" 
d="M138 -169h-64q-20 0 -20 22v67q0 22 20 22h21q63 0 85.5 17.5t34.5 67.5h-53q-19 0 -25 21l-117 441q-6 21 15 21h89q20 0 25 -21l86 -369h4l85 369q4 21 25 21h84q25 0 20 -22l-122 -488q-22 -83 -68 -126t-125 -43z" />
    <glyph glyph-name="z" unicode="z" horiz-adv-x="449" 
d="M31 21v33q0 34 19 58l212 285v4h-201q-21 0 -21 22v66q0 21 21 21h326q21 0 21 -21v-60q0 -32 -16 -52l-196 -264v-4h202q21 0 21 -22v-66q0 -21 -21 -21h-346q-21 0 -21 21z" />
    <glyph glyph-name="braceleft" unicode="{" horiz-adv-x="315" 
d="M235 643h8q20 0 20 -21v-47q0 -21 -20 -21h-3q-31 0 -42.5 -13.5t-11.5 -45.5v-126q0 -41 -14 -64.5t-48 -34.5q62 -17 62 -98v-126q0 -32 11.5 -45.5t42.5 -13.5h3q20 0 20 -21v-47q0 -21 -20 -21h-8q-149 0 -149 163v101q0 53 -42 53q-21 0 -21 22v67q0 22 21 22
q42 0 42 53v101q0 163 149 163z" />
    <glyph glyph-name="bar" unicode="|" horiz-adv-x="231" 
d="M159 622v-601q0 -21 -22 -21h-43q-21 0 -21 21v601q0 21 21 21h43q22 0 22 -21z" />
    <glyph glyph-name="braceright" unicode="}" horiz-adv-x="315" 
d="M201 480v-101q0 -29 10 -41t32 -12q20 0 20 -22v-67q0 -22 -20 -22q-22 0 -32 -12t-10 -41v-101q0 -163 -150 -163h-7q-21 0 -21 21v47q0 21 21 21h3q30 0 41.5 13.5t11.5 45.5v126q0 81 62 98q-62 20 -62 99v126q0 32 -11.5 45.5t-41.5 13.5h-3q-21 0 -21 21v47
q0 21 21 21h7q150 0 150 -163z" />
    <glyph glyph-name="asciitilde" unicode="~" horiz-adv-x="565" 
d="M278 273.5q-68 15.5 -98 15.5t-60.5 -15t-35.5 -15q-14 0 -14 14v58q0 15 6 23t32.5 19t65.5 11t105.5 -16t101 -16t65 15t35.5 15q14 0 14 -13v-59q0 -26 -28 -37q-33 -15 -77 -15t-112 15.5z" />
    <glyph glyph-name="uni00A0" unicode="&#xa0;" horiz-adv-x="220" 
 />
    <glyph glyph-name="exclamdown" unicode="&#xa1;" horiz-adv-x="238" 
d="M164 480h-88q-20 0 -20 20v121q0 22 20 22h88q20 0 20 -21v-123q0 -19 -20 -19zM90 415h57q19 0 23 -21q0 -1 2 -16t4 -39t4 -51q7 -72 7 -112v-155q0 -21 -21 -21h-95q-21 0 -21 21v155q0 90 8.5 153.5t8.5 64.5q4 21 23 21z" />
    <glyph glyph-name="cent" unicode="&#xa2;" horiz-adv-x="430" 
d="M287 -94h-63q-20 0 -20 20v74h-7q-72 0 -112 43.5t-40 119.5v184q0 76 40 119.5t112 43.5h7v77q0 20 20 20h63q19 0 19 -19v-78h47q13 0 25.5 -5.5t12.5 -15.5v-69q0 -20 -22 -20h-139q-31 0 -44.5 -13.5t-13.5 -45.5v-172q0 -32 13.5 -45.5t44.5 -13.5h139q22 0 22 -20
v-69q0 -21 -22 -21h-63v-75q0 -19 -19 -19z" />
    <glyph glyph-name="sterling" unicode="&#xa3;" horiz-adv-x="557" 
d="M170 103h304q20 0 20 -22v-60q0 -21 -20 -21h-430q-21 0 -21 21v60q0 22 21 22h7q40 0 40 64v82h-47q-21 0 -21 22v60q0 21 21 21h47v129q0 78 43 120t122 42h65q79 0 122 -42t43 -120v-25q0 -21 -22 -21h-84q-21 0 -21 21v23q0 32 -13.5 45t-45.5 13h-23
q-33 0 -47.5 -13.5t-14.5 -44.5v-127h110q21 0 21 -21v-60q0 -22 -21 -22h-110v-65q0 -33 -13 -55t-32 -22v-4z" />
    <glyph glyph-name="yen" unicode="&#xa5;" horiz-adv-x="543" 
d="M314 0h-85q-21 0 -21 21v132h-139q-23 0 -23 23v38q0 24 23 24h134v7l-27 58h-107q-23 0 -23 23v38q0 24 23 24h67l-112 234q-9 21 13 21h108q9 0 13 -4q3 -4 111 -273h4q110 270 113 273.5t13 3.5h107q22 0 13 -21l-111 -234h65q13 0 18 -5.5t5 -18.5v-38q0 -23 -23 -23
h-106l-27 -58v-7h133q13 0 18 -5.5t5 -18.5v-38q0 -23 -23 -23h-138v-132q0 -21 -21 -21z" />
    <glyph glyph-name="brokenbar" unicode="&#xa6;" horiz-adv-x="230" 
d="M158 622v-230q0 -21 -21 -21h-44q-21 0 -21 21v230q0 21 21 21h44q21 0 21 -21zM158 251v-230q0 -21 -21 -21h-44q-21 0 -21 21v230q0 21 21 21h44q21 0 21 -21z" />
    <glyph glyph-name="section" unicode="&#xa7;" horiz-adv-x="490" 
d="M312 301q0 35 -44 48q-55 14 -91 27v-32q0 -38 46 -51q70 -17 89 -25v33zM265 0h-167q-21 0 -21 21v69q0 20 21 20h157q47 0 47 33q0 16 -13 25t-48 17l-86 19q-95 21 -95 131v173q0 64 41.5 99.5t121.5 35.5h164q20 0 20 -21v-69q0 -11 -4.5 -15.5t-15.5 -4.5h-160
q-40 0 -40 -31q0 -15 13 -25t49 -18l86 -19q95 -23 95 -130v-173q0 -65 -42 -101t-123 -36z" />
    <glyph glyph-name="dieresis" unicode="&#xa8;" horiz-adv-x="416" 
d="M53 595v88q0 20 20 20h79q20 0 20 -19v-89q0 -21 -20 -21h-79q-20 0 -20 21zM243 595v88q0 20 20 20h79q20 0 20 -19v-89q0 -21 -20 -21h-79q-20 0 -20 21z" />
    <glyph glyph-name="copyright" unicode="&#xa9;" horiz-adv-x="703" 
d="M490 403v-28q0 -13 -13 -13h-53q-14 0 -14 13v14q0 34 -8.5 42t-44.5 8h-5q-35 0 -43.5 -8t-8.5 -42v-133q0 -35 8.5 -43t43.5 -8h5q36 0 44.5 8t8.5 43v14q0 14 14 14h53q13 0 13 -14v-29q0 -51 -28.5 -78.5t-80.5 -27.5h-52q-52 0 -81 27.5t-29 78.5v162q0 52 29 79
t81 27h52q52 0 80.5 -27t28.5 -79zM214 74h275q37 0 54 15t17 51v363q0 36 -17 51t-54 15h-275q-37 0 -54 -15t-17 -51v-363q0 -36 17 -51t54 -15zM189 643h326q59 0 92.5 -33t33.5 -91v-395q0 -58 -33.5 -91t-92.5 -33h-326q-59 0 -92.5 33t-33.5 91v395q0 58 33.5 91
t92.5 33z" />
    <glyph glyph-name="guillemotleft" unicode="&#xab;" horiz-adv-x="454" 
d="M409 150v-55q0 -11 -6 -14t-15 4l-149 115q-12 9 -16 15.5t-4 21.5v41q0 21 20 35l149 115q9 7 15 4t6 -14v-55q0 -17 -20 -29l-102 -77l102 -77q20 -13 20 -30zM235 150v-55q0 -11 -6 -14t-15 4l-149 115q-12 9 -16 15.5t-4 21.5v41q0 21 20 35l149 115q9 7 15 4t6 -14
v-55q0 -17 -20 -29l-102 -77l102 -77q20 -13 20 -30z" />
    <glyph glyph-name="registered" unicode="&#xae;" horiz-adv-x="475" 
d="M249 603h-30v-49h30q11 0 11 11v28q0 10 -11 10zM174 467v158q0 11 4 15t16 4h59q53 0 53 -46v-38q0 -30 -21 -40l22 -46q12 -25 -14 -25h-10q-13 0 -18 13l-25 56h-21v-51q0 -11 -3.5 -14.5t-14.5 -3.5h-7q-12 0 -16 3.5t-4 14.5zM172 416h131q31 0 44.5 13t13.5 45v145
q0 31 -13.5 44.5t-44.5 13.5h-131q-32 0 -45 -13.5t-13 -44.5v-145q0 -32 13 -45t45 -13zM315 368h-155q-45 0 -71.5 25.5t-26.5 68.5v169q0 43 26.5 68.5t71.5 25.5h155q46 0 72 -25t26 -69v-169q0 -44 -26 -69t-72 -25z" />
    <glyph glyph-name="macron" unicode="&#xaf;" horiz-adv-x="345" 
d="M271 595h-197q-21 0 -21 22v44q0 21 21 21h197q21 0 21 -21v-44q0 -22 -21 -22z" />
    <glyph glyph-name="degree" unicode="&#xb0;" horiz-adv-x="379" 
d="M220 510h-62q-49 0 -49 49v97q0 47 49 47h62q23 0 36.5 -12.5t13.5 -34.5v-97q0 -23 -13.5 -36t-36.5 -13zM196 557q13 0 17.5 4t4.5 17v56q0 14 -4.5 18t-17.5 4h-14q-14 0 -18 -4t-4 -18v-56q0 -13 4.5 -17t17.5 -4h14z" />
    <glyph glyph-name="plusminus" unicode="&#xb1;" horiz-adv-x="565" 
d="M336 442h136q13 0 18 -5.5t5 -18.5v-53q0 -13 -5 -18.5t-18 -5.5h-136v-69q0 -24 -24 -24h-59q-24 0 -24 24v69h-136q-13 0 -18 5.5t-5 18.5v53q0 13 5 18.5t18 5.5h136v68q0 24 24 24h59q24 0 24 -24v-68zM93 209h379q23 0 23 -23v-54q0 -24 -23 -24h-379q-23 0 -23 24
v54q0 23 23 23z" />
    <glyph glyph-name="acute" unicode="&#xb4;" horiz-adv-x="298" 
d="M132 703h99q10 0 13 -6t-3 -14l-82 -96q-11 -13 -28 -13h-63q-21 0 -11 21l45 89q10 19 30 19z" />
    <glyph glyph-name="paragraph" unicode="&#xb6;" horiz-adv-x="546" 
d="M257 0h-60q-21 0 -21 21v297q-52 0 -89 31.5t-37 93.5v74q0 66 42.5 96t103.5 30h255q21 0 21 -20v-602q0 -21 -21 -21h-60q-21 0 -21 21v517q0 11 -12 11h-68q-12 0 -12 -11v-517q0 -21 -21 -21z" />
    <glyph glyph-name="periodcentered" unicode="&#xb7;" horiz-adv-x="207" 
d="M167 380v-123q0 -21 -19 -21h-89q-20 0 -20 21v122q0 20 20 20h89q19 0 19 -19z" />
    <glyph glyph-name="cedilla" unicode="&#xb8;" horiz-adv-x="266" 
d="M138 -37q74 0 74 -75v-18q0 -70 -94 -70h-45q-11 0 -14.5 3.5t-3.5 14.5v20q0 11 3.5 15t14.5 4h33q27 0 36 4.5t9 18.5v2q0 15 -9 19.5t-36 4.5h-25q-18 0 -25 19.5t6 35.5l51 59h78l-53 -53v-4z" />
    <glyph glyph-name="guillemotright" unicode="&#xbb;" horiz-adv-x="454" 
d="M219 363v55q0 11 5.5 14t14.5 -4l150 -115q20 -14 20 -35v-41q0 -15 -4 -21.5t-16 -15.5l-150 -115q-9 -7 -14.5 -4t-5.5 14v55q0 17 19 30l103 77l-103 77q-19 12 -19 29zM45 363v55q0 11 5.5 14t14.5 -4l150 -115q20 -14 20 -35v-41q0 -15 -4 -21.5t-16 -15.5
l-150 -115q-9 -7 -14.5 -4t-5.5 14v55q0 17 19 30l103 77l-103 77q-19 12 -19 29z" />
    <glyph glyph-name="questiondown" unicode="&#xbf;" horiz-adv-x="466" 
d="M177 498v123q0 21 20 21h89q19 0 19 -22v-121q0 -20 -19 -20h-89q-20 0 -20 19zM177 367v26q0 21 21 21h79q21 0 21 -21v-27q0 -32 -11 -53t-37 -42l-56 -46q-32 -24 -32 -55v-6q0 -31 14.5 -44.5t46.5 -13.5h18q32 0 45.5 13t13.5 45v21q0 22 21 22h85q21 0 21 -22v-23
q0 -78 -43 -120t-122 -42h-59q-79 0 -122 42t-43 120v14q0 49 45 88l68 55q26 25 26 48z" />
    <glyph glyph-name="Agrave" unicode="&#xc0;" horiz-adv-x="556" 
d="M309 707h-66q-16 0 -26 13l-81 96q-7 8 -4 14t14 6h98q20 0 30 -19l45 -89q10 -21 -10 -21zM132 0h-96q-18 0 -12 21l158 601q7 21 30 21h133q25 0 30 -21l158 -601q6 -21 -12 -21h-96q-11 0 -15 4.5t-6 16.5l-28 110h-195l-28 -110q-2 -12 -6.5 -16.5t-14.5 -4.5z
M277 522l-72 -289h148l-72 289h-4z" />
    <glyph glyph-name="Aacute" unicode="&#xc1;" horiz-adv-x="556" 
d="M307 836h99q11 0 14 -6t-4 -14l-81 -96q-11 -13 -26 -13h-66q-20 0 -10 21l45 89q10 19 29 19zM132 0h-96q-18 0 -12 21l158 601q7 21 30 21h133q25 0 30 -21l158 -601q6 -21 -12 -21h-96q-11 0 -15 4.5t-6 16.5l-28 110h-195l-28 -110q-2 -12 -6.5 -16.5t-14.5 -4.5z
M277 522l-72 -289h148l-72 289h-4z" />
    <glyph glyph-name="Acircumflex" unicode="&#xc2;" horiz-adv-x="556" 
d="M389 707h-60q-13 0 -18 12l-32 66l-33 -66q-4 -12 -17 -12h-59q-15 0 -8 13l62 105q8 11 22 11h65q14 0 22 -11l63 -105q7 -13 -7 -13zM132 0h-96q-18 0 -12 21l158 601q7 21 30 21h133q25 0 30 -21l158 -601q6 -21 -12 -21h-96q-11 0 -15 4.5t-6 16.5l-28 110h-195
l-28 -110q-2 -12 -6.5 -16.5t-14.5 -4.5zM277 522l-72 -289h148l-72 289h-4z" />
    <glyph glyph-name="Atilde" unicode="&#xc3;" horiz-adv-x="556" 
d="M231 702q-72 0 -72 76v39q0 7 2 9t9 2h39q11 0 11 -11v-12q0 -22 3 -29t10 -7t12.5 5.5t26.5 32t55 26.5q72 0 72 -77v-37q0 -13 -10 -13h-40q-10 0 -10 13v10q0 22 -3.5 29t-11.5 7q-12 0 -30 -27q-26 -36 -63 -36zM132 0h-96q-18 0 -12 21l158 601q7 21 30 21h133
q25 0 30 -21l158 -601q6 -21 -12 -21h-96q-11 0 -15 4.5t-6 16.5l-28 110h-195l-28 -110q-2 -12 -6.5 -16.5t-14.5 -4.5zM277 522l-72 -289h148l-72 289h-4z" />
    <glyph glyph-name="Adieresis" unicode="&#xc4;" horiz-adv-x="556" 
d="M124 728v88q0 20 19 20h80q19 0 19 -19v-89q0 -21 -19 -21h-80q-19 0 -19 21zM314 728v88q0 20 19 20h80q19 0 19 -19v-89q0 -21 -19 -21h-80q-19 0 -19 21zM132 0h-96q-18 0 -12 21l158 601q7 21 30 21h133q25 0 30 -21l158 -601q6 -21 -12 -21h-96q-11 0 -15 4.5
t-6 16.5l-28 110h-195l-28 -110q-2 -12 -6.5 -16.5t-14.5 -4.5zM277 522l-72 -289h148l-72 289h-4z" />
    <glyph glyph-name="Aring" unicode="&#xc5;" horiz-adv-x="556" 
d="M306 704h-57q-54 0 -54 54v64q0 52 54 52h57q25 0 40 -14t15 -38v-64q0 -26 -15 -40t-40 -14zM269 750h16q13 0 18 5.5t5 19.5v26q0 15 -4.5 20.5t-17.5 5.5h-16q-13 0 -18.5 -5.5t-5.5 -20.5v-26q0 -14 5 -19.5t18 -5.5zM132 0h-96q-18 0 -12 21l158 601q7 21 30 21h133
q25 0 30 -21l158 -601q6 -21 -12 -21h-96q-11 0 -15 4.5t-6 16.5l-28 110h-195l-28 -110q-2 -12 -6.5 -16.5t-14.5 -4.5zM277 522l-72 -289h148l-72 289h-4z" />
    <glyph glyph-name="AE" unicode="&#xc6;" horiz-adv-x="781" 
d="M112 0h-92q-22 0 -13 22l277 600q10 21 33 21h399q20 0 20 -21v-68q0 -21 -20 -21h-209q-12 0 -12 -11v-130q0 -11 12 -11h171q21 0 21 -21v-68q0 -21 -21 -21h-171q-12 0 -12 -11v-139q0 -11 12 -11h209q20 0 20 -21v-68q0 -21 -20 -21h-327q-21 0 -21 21v111h-178
l-51 -111q-8 -21 -27 -21zM368 243v279h-4l-127 -279h131z" />
    <glyph glyph-name="Ccedilla" unicode="&#xc7;" horiz-adv-x="538" 
d="M472 411h-84q-21 0 -21 22v41q0 32 -13.5 45.5t-45.5 13.5h-68q-31 0 -44.5 -13.5t-13.5 -45.5v-305q0 -32 13.5 -45.5t44.5 -13.5h68q32 0 45.5 13.5t13.5 45.5v41q0 22 21 22h84q22 0 22 -22v-47q0 -78 -43.5 -120.5t-121.5 -42.5h-1l-40 -41v-4q74 0 74 -75v-18
q0 -36 -25.5 -53.5t-68.5 -17.5h-46q-11 0 -14.5 4t-3.5 15v19q0 12 3.5 16t14.5 4h34q27 0 36 4.5t9 17.5v3q0 15 -9 19.5t-36 4.5h-26q-18 0 -25 19.5t7 35.5l40 47h-32q-79 0 -122 42t-43 121v317q0 79 43 121t122 42h109q78 0 121.5 -42.5t43.5 -120.5v-47
q0 -22 -22 -22z" />
    <glyph glyph-name="Egrave" unicode="&#xc8;" horiz-adv-x="479" 
d="M280 707h-66q-16 0 -26 13l-81 96q-7 8 -4 14t14 6h98q21 0 30 -19l45 -89q10 -21 -10 -21zM413 0h-327q-21 0 -21 21v601q0 21 21 21h327q20 0 20 -21v-68q0 -21 -20 -21h-209q-12 0 -12 -11v-130q0 -11 12 -11h171q21 0 21 -21v-68q0 -21 -21 -21h-171q-12 0 -12 -11
v-139q0 -11 12 -11h209q20 0 20 -21v-68q0 -21 -20 -21z" />
    <glyph glyph-name="Eacute" unicode="&#xc9;" horiz-adv-x="479" 
d="M268 836h99q11 0 14 -6t-4 -14l-81 -96q-11 -13 -27 -13h-65q-20 0 -10 21l44 89q11 19 30 19zM413 0h-327q-21 0 -21 21v601q0 21 21 21h327q20 0 20 -21v-68q0 -21 -20 -21h-209q-12 0 -12 -11v-130q0 -11 12 -11h171q21 0 21 -21v-68q0 -21 -21 -21h-171
q-12 0 -12 -11v-139q0 -11 12 -11h209q20 0 20 -21v-68q0 -21 -20 -21z" />
    <glyph glyph-name="Ecircumflex" unicode="&#xca;" horiz-adv-x="479" 
d="M358 707h-60q-13 0 -17 12l-33 66l-32 -66q-5 -12 -18 -12h-59q-15 0 -8 13l63 105q8 11 22 11h65q14 0 22 -11l62 -105q7 -13 -7 -13zM413 0h-327q-21 0 -21 21v601q0 21 21 21h327q20 0 20 -21v-68q0 -21 -20 -21h-209q-12 0 -12 -11v-130q0 -11 12 -11h171
q21 0 21 -21v-68q0 -21 -21 -21h-171q-12 0 -12 -11v-139q0 -11 12 -11h209q20 0 20 -21v-68q0 -21 -20 -21z" />
    <glyph glyph-name="Edieresis" unicode="&#xcb;" horiz-adv-x="479" 
d="M95 728v88q0 20 19 20h80q20 0 20 -19v-89q0 -21 -20 -21h-80q-19 0 -19 21zM285 728v88q0 20 19 20h80q20 0 20 -19v-89q0 -21 -20 -21h-80q-19 0 -19 21zM413 0h-327q-21 0 -21 21v601q0 21 21 21h327q20 0 20 -21v-68q0 -21 -20 -21h-209q-12 0 -12 -11v-130
q0 -11 12 -11h171q21 0 21 -21v-68q0 -21 -21 -21h-171q-12 0 -12 -11v-139q0 -11 12 -11h209q20 0 20 -21v-68q0 -21 -20 -21z" />
    <glyph glyph-name="Igrave" unicode="&#xcc;" horiz-adv-x="267" 
d="M166 707h-65q-16 0 -26 13l-81 96q-7 8 -4 14t13 6h99q20 0 30 -19l45 -89q10 -21 -11 -21zM197 622v-601q0 -21 -21 -21h-85q-21 0 -21 21v601q0 21 21 21h85q21 0 21 -21z" />
    <glyph glyph-name="Iacute" unicode="&#xcd;" horiz-adv-x="267" 
d="M164 836h99q11 0 14 -6t-4 -14l-81 -96q-11 -13 -27 -13h-65q-20 0 -10 21l44 89q11 19 30 19zM197 622v-601q0 -21 -21 -21h-85q-21 0 -21 21v601q0 21 21 21h85q21 0 21 -21z" />
    <glyph glyph-name="Icircumflex" unicode="&#xce;" horiz-adv-x="265" 
d="M242 707h-60q-12 0 -17 12l-33 66l-32 -66q-5 -12 -18 -12h-58q-16 0 -9 13l63 105q8 11 22 11h65q14 0 22 -11l62 -105q7 -13 -7 -13zM197 622v-601q0 -21 -21 -21h-85q-21 0 -21 21v601q0 21 21 21h85q21 0 21 -21z" />
    <glyph glyph-name="Idieresis" unicode="&#xcf;" horiz-adv-x="266" 
d="M-21 728v88q0 20 19 20h80q20 0 20 -19v-89q0 -21 -20 -21h-80q-19 0 -19 21zM169 728v88q0 20 19 20h80q20 0 20 -19v-89q0 -21 -20 -21h-80q-19 0 -19 21zM197 622v-601q0 -21 -21 -21h-85q-21 0 -21 21v601q0 21 21 21h85q21 0 21 -21z" />
    <glyph glyph-name="Eth" unicode="&#xd0;" horiz-adv-x="566" 
d="M217 110h109q32 0 45.5 13.5t13.5 45.5v305q0 32 -13.5 45.5t-45.5 13.5h-109q-11 0 -11 -11v-142q0 -11 11 -11h76q21 0 21 -21v-52q0 -21 -21 -21h-76q-11 0 -11 -11v-143q0 -11 11 -11zM347 0h-247q-21 0 -21 21v243q0 11 -11 11h-26q-12 0 -16.5 4.5t-4.5 16.5v52
q0 21 21 21h26q11 0 11 11v242q0 21 21 21h247q79 0 122 -42t43 -121v-317q0 -79 -43 -121t-122 -42z" />
    <glyph glyph-name="Ntilde" unicode="&#xd1;" horiz-adv-x="585" 
d="M245 702q-71 0 -71 76v39q0 11 10 11h39q7 0 9 -2t2 -9v-12q0 -22 3 -29t11 -7t34 32q24 32 60 32q72 0 72 -77v-37q0 -13 -11 -13h-39q-11 0 -11 13v10q0 22 -3 29t-11.5 7t-30.5 -27q-25 -36 -63 -36zM169 0h-83q-21 0 -21 21v601q0 21 21 21h75q21 0 28 -14l202 -379
h4v372q0 21 21 21h83q21 0 21 -21v-601q0 -21 -21 -21h-73q-22 0 -32 20l-200 372h-4v-371q0 -21 -21 -21z" />
    <glyph glyph-name="Ograve" unicode="&#xd2;" horiz-adv-x="552" 
d="M308 707h-66q-16 0 -26 13l-81 96q-7 8 -4 14t13 6h99q21 0 30 -19l45 -89q10 -21 -10 -21zM240 110h71q32 0 45.5 13.5t13.5 45.5v305q0 32 -13.5 45.5t-45.5 13.5h-71q-32 0 -45 -13.5t-13 -45.5v-305q0 -32 13 -45.5t45 -13.5zM332 0h-112q-79 0 -122 42t-43 121v317
q0 79 43 121t122 42h112q79 0 122 -42t43 -121v-317q0 -79 -43 -121t-122 -42z" />
    <glyph glyph-name="Oacute" unicode="&#xd3;" horiz-adv-x="552" 
d="M298 836h99q10 0 13 -6t-4 -14l-81 -96q-10 -13 -26 -13h-66q-20 0 -10 21l45 89q10 19 30 19zM240 110h71q32 0 45.5 13.5t13.5 45.5v305q0 32 -13.5 45.5t-45.5 13.5h-71q-32 0 -45 -13.5t-13 -45.5v-305q0 -32 13 -45.5t45 -13.5zM332 0h-112q-79 0 -122 42t-43 121
v317q0 79 43 121t122 42h112q79 0 122 -42t43 -121v-317q0 -79 -43 -121t-122 -42z" />
    <glyph glyph-name="Ocircumflex" unicode="&#xd4;" horiz-adv-x="552" 
d="M389 707h-60q-13 0 -17 12l-33 66l-32 -66q-5 -12 -18 -12h-59q-15 0 -8 13l63 105q8 11 22 11h65q14 0 22 -11l62 -105q7 -13 -7 -13zM240 110h71q32 0 45.5 13.5t13.5 45.5v305q0 32 -13.5 45.5t-45.5 13.5h-71q-32 0 -45 -13.5t-13 -45.5v-305q0 -32 13 -45.5
t45 -13.5zM332 0h-112q-79 0 -122 42t-43 121v317q0 79 43 121t122 42h112q79 0 122 -42t43 -121v-317q0 -79 -43 -121t-122 -42z" />
    <glyph glyph-name="Otilde" unicode="&#xd5;" horiz-adv-x="552" 
d="M228 702q-72 0 -72 76v39q0 11 11 11h39q7 0 9 -2t2 -9v-12q0 -22 3 -29t11 -7t34 32q24 32 60 32q71 0 71 -77v-37q0 -13 -10 -13h-39q-11 0 -11 13v10q0 22 -3 29t-11.5 7t-30.5 -27q-25 -36 -63 -36zM240 110h71q32 0 45.5 13.5t13.5 45.5v305q0 32 -13.5 45.5
t-45.5 13.5h-71q-32 0 -45 -13.5t-13 -45.5v-305q0 -32 13 -45.5t45 -13.5zM332 0h-112q-79 0 -122 42t-43 121v317q0 79 43 121t122 42h112q79 0 122 -42t43 -121v-317q0 -79 -43 -121t-122 -42z" />
    <glyph glyph-name="Odieresis" unicode="&#xd6;" horiz-adv-x="552" 
d="M122 728v88q0 20 19 20h80q19 0 19 -19v-89q0 -21 -19 -21h-80q-19 0 -19 21zM312 728v88q0 20 19 20h80q19 0 19 -19v-89q0 -21 -19 -21h-80q-19 0 -19 21zM240 110h71q32 0 45.5 13.5t13.5 45.5v305q0 32 -13.5 45.5t-45.5 13.5h-71q-32 0 -45 -13.5t-13 -45.5v-305
q0 -32 13 -45.5t45 -13.5zM332 0h-112q-79 0 -122 42t-43 121v317q0 79 43 121t122 42h112q79 0 122 -42t43 -121v-317q0 -79 -43 -121t-122 -42z" />
    <glyph glyph-name="multiply" unicode="&#xd7;" horiz-adv-x="521" 
d="M336 322l100 -101q17 -16 0 -33l-43 -42q-16 -17 -33 -1l-100 101l-101 -101q-16 -16 -32 1l-43 42q-17 17 -1 33l101 101l-100 99q-16 17 1 33l42 43q17 17 33 0l100 -99l99 99q17 17 34 0l42 -43q17 -16 0 -33z" />
    <glyph glyph-name="Oslash" unicode="&#xd8;" horiz-adv-x="580" 
d="M515 480v-317q0 -78 -43 -120.5t-121 -42.5h-121q-63 0 -105 28l-17 -24q-12 -16 -31 -5l-21 16q-17 12 -5 30l28 40q-14 34 -14 78v317q0 79 43 121t122 42h121q64 0 105 -29l17 24q13 17 31 5l21 -15q17 -12 6 -30l-30 -42q14 -33 14 -76zM192 474v-231l190 267
q-12 23 -52 23h-80q-32 0 -45 -13.5t-13 -45.5zM388 169v228l-189 -265q12 -22 51 -22h80q32 0 45 13.5t13 45.5z" />
    <glyph glyph-name="Ugrave" unicode="&#xd9;" horiz-adv-x="560" 
d="M312 707h-65q-16 0 -27 13l-81 96q-6 8 -3 14t13 6h99q19 0 30 -19l44 -89q11 -21 -10 -21zM394 643h84q22 0 22 -20v-460q0 -78 -43.5 -120.5t-121.5 -42.5h-110q-79 0 -122 42t-43 121v459q0 21 21 21h85q21 0 21 -21v-453q0 -32 13.5 -45.5t44.5 -13.5h69
q32 0 45.5 13.5t13.5 45.5v453q0 21 21 21z" />
    <glyph glyph-name="Uacute" unicode="&#xda;" horiz-adv-x="560" 
d="M309 836h99q10 0 13 -6t-3 -14l-82 -96q-10 -13 -26 -13h-65q-21 0 -11 21l45 89q9 19 30 19zM394 643h84q22 0 22 -20v-460q0 -78 -43.5 -120.5t-121.5 -42.5h-110q-79 0 -122 42t-43 121v459q0 21 21 21h85q21 0 21 -21v-453q0 -32 13.5 -45.5t44.5 -13.5h69
q32 0 45.5 13.5t13.5 45.5v453q0 21 21 21z" />
    <glyph glyph-name="Ucircumflex" unicode="&#xdb;" horiz-adv-x="560" 
d="M392 707h-59q-13 0 -18 12l-33 66l-32 -66q-5 -12 -18 -12h-58q-16 0 -9 13l63 105q8 11 22 11h65q14 0 22 -11l63 -105q7 -13 -8 -13zM394 643h84q22 0 22 -20v-460q0 -78 -43.5 -120.5t-121.5 -42.5h-110q-79 0 -122 42t-43 121v459q0 21 21 21h85q21 0 21 -21v-453
q0 -32 13.5 -45.5t44.5 -13.5h69q32 0 45.5 13.5t13.5 45.5v453q0 21 21 21z" />
    <glyph glyph-name="Udieresis" unicode="&#xdc;" horiz-adv-x="560" 
d="M126 728v88q0 20 19 20h80q19 0 19 -19v-89q0 -21 -19 -21h-80q-19 0 -19 21zM316 728v88q0 20 19 20h80q19 0 19 -19v-89q0 -21 -19 -21h-80q-19 0 -19 21zM394 643h84q22 0 22 -20v-460q0 -78 -43.5 -120.5t-121.5 -42.5h-110q-79 0 -122 42t-43 121v459q0 21 21 21h85
q21 0 21 -21v-453q0 -32 13.5 -45.5t44.5 -13.5h69q32 0 45.5 13.5t13.5 45.5v453q0 21 21 21z" />
    <glyph glyph-name="Yacute" unicode="&#xdd;" horiz-adv-x="517" 
d="M284 836h99q10 0 13 -6t-3 -14l-81 -96q-11 -13 -27 -13h-65q-21 0 -10 21l44 89q11 19 30 19zM301 0h-85q-21 0 -21 21v214l-183 386q-4 9 0.5 15.5t13.5 6.5h106q16 0 24 -21l100 -243h7l98 243q7 21 24 21h106q10 0 14.5 -6t-0.5 -16l-183 -386v-214q0 -21 -21 -21z
" />
    <glyph glyph-name="Thorn" unicode="&#xde;" horiz-adv-x="504" 
d="M217 242h63q32 0 45 13t13 45v41q0 32 -13 45.5t-45 13.5h-63q-11 0 -11 -11v-136q0 -11 11 -11zM185 0h-85q-21 0 -21 21v601q0 21 21 21h85q21 0 21 -21v-101q0 -11 12 -11h83q78 0 121.5 -42.5t43.5 -120.5v-53q0 -78 -43.5 -120.5t-121.5 -42.5h-83q-12 0 -12 -11
v-99q0 -21 -21 -21z" />
    <glyph glyph-name="germandbls" unicode="&#xdf;" horiz-adv-x="543" 
d="M281 372h15q33 0 48 14t15 45v48q0 31 -14.5 44t-46.5 13h-57q-31 0 -44.5 -13t-13.5 -44v-458q0 -21 -21 -21h-85q-21 0 -21 21v459q0 79 43 121t122 42h97q79 0 122 -43t43 -122v-53q0 -82 -71 -105q41 -6 61 -38.5t20 -78.5v-49q0 -154 -165 -154h-60q-12 0 -16.5 4.5
t-4.5 15.5v65q0 21 21 21h40q32 0 46.5 13.5t14.5 44.5v42q0 59 -64 59h-24q-12 0 -16 4.5t-4 15.5v66q0 21 20 21z" />
    <glyph glyph-name="agrave" unicode="&#xe0;" horiz-adv-x="518" 
d="M319 574h-65q-16 0 -27 13l-81 96q-6 8 -3 14t13 6h99q21 0 30 -19l45 -89q10 -21 -11 -21zM234 0h-24q-79 0 -122 42t-43 121v184q0 79 43 121t122 42h231q22 0 22 -21v-468q0 -21 -22 -21h-84q-21 0 -21 21v33h-4q-11 -27 -39 -40.5t-59 -13.5zM336 186v203
q0 11 -12 11h-94q-32 0 -45 -13.5t-13 -45.5v-172q0 -32 13 -45.5t45 -13.5h37q69 0 69 76z" />
    <glyph glyph-name="aacute" unicode="&#xe1;" horiz-adv-x="518" 
d="M301 703h99q10 0 13 -6t-4 -14l-81 -96q-11 -13 -28 -13h-64q-20 0 -10 21l45 89q9 19 30 19zM234 0h-24q-79 0 -122 42t-43 121v184q0 79 43 121t122 42h231q22 0 22 -21v-468q0 -21 -22 -21h-84q-21 0 -21 21v33h-4q-11 -27 -39 -40.5t-59 -13.5zM336 186v203
q0 11 -12 11h-94q-32 0 -45 -13.5t-13 -45.5v-172q0 -32 13 -45.5t45 -13.5h37q69 0 69 76z" />
    <glyph glyph-name="acircumflex" unicode="&#xe2;" horiz-adv-x="518" 
d="M379 574h-60q-13 0 -17 12l-33 66l-32 -66q-5 -12 -18 -12h-59q-15 0 -8 13l63 105q8 11 22 11h65q14 0 22 -11l62 -105q7 -13 -7 -13zM234 0h-24q-79 0 -122 42t-43 121v184q0 79 43 121t122 42h231q22 0 22 -21v-468q0 -21 -22 -21h-84q-21 0 -21 21v33h-4
q-11 -27 -39 -40.5t-59 -13.5zM336 186v203q0 11 -12 11h-94q-32 0 -45 -13.5t-13 -45.5v-172q0 -32 13 -45.5t45 -13.5h37q69 0 69 76z" />
    <glyph glyph-name="atilde" unicode="&#xe3;" horiz-adv-x="518" 
d="M153 650v38q0 7 2 9.5t9 2.5h39q10 0 10 -12v-11q0 -21 3.5 -28.5t10.5 -7.5t12.5 5.5t26 31.5t55.5 26q72 0 72 -76v-37q0 -13 -10 -13h-40q-10 0 -10 13v9q0 23 -3.5 30t-11 7t-11.5 -4t-19 -24q-26 -35 -63 -35q-72 0 -72 76zM234 0h-24q-79 0 -122 42t-43 121v184
q0 79 43 121t122 42h231q22 0 22 -21v-468q0 -21 -22 -21h-84q-21 0 -21 21v33h-4q-11 -27 -39 -40.5t-59 -13.5zM336 186v203q0 11 -12 11h-94q-32 0 -45 -13.5t-13 -45.5v-172q0 -32 13 -45.5t45 -13.5h37q69 0 69 76z" />
    <glyph glyph-name="adieresis" unicode="&#xe4;" horiz-adv-x="518" 
d="M121 595v88q0 20 19 20h80q19 0 19 -19v-89q0 -21 -19 -21h-80q-19 0 -19 21zM311 595v88q0 20 19 20h80q19 0 19 -19v-89q0 -21 -19 -21h-80q-19 0 -19 21zM234 0h-24q-79 0 -122 42t-43 121v184q0 79 43 121t122 42h231q22 0 22 -21v-468q0 -21 -22 -21h-84
q-21 0 -21 21v33h-4q-11 -27 -39 -40.5t-59 -13.5zM336 186v203q0 11 -12 11h-94q-32 0 -45 -13.5t-13 -45.5v-172q0 -32 13 -45.5t45 -13.5h37q69 0 69 76z" />
    <glyph glyph-name="aring" unicode="&#xe5;" horiz-adv-x="518" 
d="M336 186v203q0 11 -12 11h-94q-32 0 -45 -13.5t-13 -45.5v-172q0 -32 13 -45.5t45 -13.5h37q69 0 69 76zM234 0h-24q-79 0 -122 42t-43 121v184q0 79 43 121t122 42h231q22 0 22 -21v-468q0 -21 -22 -21h-84q-21 0 -21 21v33h-4q-11 -27 -39 -40.5t-59 -13.5zM234 654
v-30q0 -16 6 -21.5t21 -5.5h16q15 0 21 5.5t6 21.5v30q0 17 -5.5 22.5t-20.5 5.5h-17q-15 0 -21 -5.5t-6 -22.5zM191 607v68q0 46 49 46h58q50 0 50 -46v-68q0 -48 -50 -48h-58q-49 0 -49 48z" />
    <glyph glyph-name="ae" unicode="&#xe6;" horiz-adv-x="755" 
d="M450 183v-14q0 -32 13.5 -45.5t45.5 -13.5h184q21 0 21 -21v-69q0 -11 -4.5 -15.5t-16.5 -4.5h-205q-84 0 -125 57q-33 -57 -141 -57h-16q-77 0 -121 40.5t-44 115.5v11q0 155 165 155h110q7 0 7 8v13q0 31 -14 44t-44 13h-163q-20 0 -20 21v68q0 21 20 21h159
q95 0 126 -55q31 55 119 55h44q78 0 121 -42.5t43 -120.5v-132q0 -21 -21 -21h-231q-12 0 -12 -11zM604 291v50q0 32 -13.5 45.5t-45.5 13.5h-35q-32 0 -46 -13.5t-14 -44.5v-51q0 -11 11 -11h131q12 0 12 11zM324 178v43q0 11 -12 11h-85q-38 0 -52.5 -13.5t-14.5 -45.5v-9
q0 -34 15 -48t52 -14h28q38 0 53.5 18t15.5 58z" />
    <glyph glyph-name="ccedilla" unicode="&#xe7;" horiz-adv-x="411" 
d="M359 400h-129q-31 0 -44.5 -13.5t-13.5 -45.5v-172q0 -32 13.5 -45.5t44.5 -13.5h129q21 0 21 -21v-69q0 -11 -4.5 -15.5t-16.5 -4.5h-59l-33 -33v-4q74 0 74 -75v-18q0 -70 -94 -70h-45q-12 0 -15.5 3.5t-3.5 14.5v20q0 11 4 15t15 4h33q27 0 36 4.5t9 18.5v2
q0 15 -9 19.5t-36 4.5h-26q-18 0 -24.5 19.5t6.5 35.5l33 39h-14q-79 0 -122 42t-43 121v184q0 79 43 121t122 42h149q21 0 21 -21v-69q0 -11 -4.5 -15.5t-16.5 -4.5z" />
    <glyph glyph-name="egrave" unicode="&#xe8;" horiz-adv-x="494" 
d="M290 574h-65q-16 0 -26 13l-82 96q-6 8 -3 14t13 6h99q20 0 30 -19l45 -89q10 -21 -11 -21zM431 0h-221q-79 0 -122 42t-43 121v184q0 79 43 121t122 42h79q79 0 122 -42t43 -121v-127q0 -21 -21 -21h-251q-12 0 -12 -11v-22q0 -31 13.5 -44.5t45.5 -13.5h202
q21 0 21 -22v-66q0 -11 -4.5 -15.5t-16.5 -4.5zM182 284h136q11 0 11 11v48q0 32 -13 45t-45 13h-42q-32 0 -45 -13t-13 -45v-48q0 -11 11 -11z" />
    <glyph glyph-name="eacute" unicode="&#xe9;" horiz-adv-x="494" 
d="M282 703h98q11 0 14 -6t-4 -14l-81 -96q-11 -13 -28 -13h-64q-20 0 -10 21l45 89q10 19 30 19zM431 0h-221q-79 0 -122 42t-43 121v184q0 79 43 121t122 42h79q79 0 122 -42t43 -121v-127q0 -21 -21 -21h-251q-12 0 -12 -11v-22q0 -31 13.5 -44.5t45.5 -13.5h202
q21 0 21 -22v-66q0 -11 -4.5 -15.5t-16.5 -4.5zM182 284h136q11 0 11 11v48q0 32 -13 45t-45 13h-42q-32 0 -45 -13t-13 -45v-48q0 -11 11 -11z" />
    <glyph glyph-name="ecircumflex" unicode="&#xea;" horiz-adv-x="494" 
d="M364 574h-59q-13 0 -18 12l-32 66l-33 -66q-4 -12 -17 -12h-59q-15 0 -8 13l62 105q8 11 22 11h65q14 0 22 -11l63 -105q7 -13 -8 -13zM431 0h-221q-79 0 -122 42t-43 121v184q0 79 43 121t122 42h79q79 0 122 -42t43 -121v-127q0 -21 -21 -21h-251q-12 0 -12 -11v-22
q0 -31 13.5 -44.5t45.5 -13.5h202q21 0 21 -22v-66q0 -11 -4.5 -15.5t-16.5 -4.5zM182 284h136q11 0 11 11v48q0 32 -13 45t-45 13h-42q-32 0 -45 -13t-13 -45v-48q0 -11 11 -11z" />
    <glyph glyph-name="edieresis" unicode="&#xeb;" horiz-adv-x="494" 
d="M100 595v88q0 20 20 20h79q20 0 20 -19v-89q0 -21 -20 -21h-79q-20 0 -20 21zM290 595v88q0 20 20 20h79q20 0 20 -19v-89q0 -21 -20 -21h-79q-20 0 -20 21zM431 0h-221q-79 0 -122 42t-43 121v184q0 79 43 121t122 42h79q79 0 122 -42t43 -121v-127q0 -21 -21 -21h-251
q-12 0 -12 -11v-22q0 -31 13.5 -44.5t45.5 -13.5h202q21 0 21 -22v-66q0 -11 -4.5 -15.5t-16.5 -4.5zM182 284h136q11 0 11 11v48q0 32 -13 45t-45 13h-42q-32 0 -45 -13t-13 -45v-48q0 -11 11 -11z" />
    <glyph glyph-name="igrave" unicode="&#xec;" horiz-adv-x="247" 
d="M155 574h-65q-16 0 -26 13l-81 96q-7 8 -4 14t13 6h99q21 0 30 -19l45 -89q10 -21 -11 -21zM60 21v468q0 21 20 21h86q21 0 21 -21v-468q0 -13 -4.5 -17t-15.5 -4h-86q-21 0 -21 21z" />
    <glyph glyph-name="iacute" unicode="&#xed;" horiz-adv-x="247" 
d="M157 703h98q11 0 14 -6t-4 -14l-81 -96q-11 -13 -28 -13h-64q-20 0 -10 21l45 89q9 19 30 19zM60 21v468q0 21 20 21h86q21 0 21 -21v-468q0 -13 -4.5 -17t-15.5 -4h-86q-21 0 -21 21z" />
    <glyph glyph-name="icircumflex" unicode="&#xee;" horiz-adv-x="246" 
d="M233 574h-60q-13 0 -17 12l-33 66l-32 -66q-5 -12 -18 -12h-59q-15 0 -8 13l63 105q8 11 22 11h65q14 0 22 -11l62 -105q7 -13 -7 -13zM60 21v468q0 21 20 21h86q21 0 21 -21v-468q0 -13 -4.5 -17t-15.5 -4h-86q-21 0 -21 21z" />
    <glyph glyph-name="idieresis" unicode="&#xef;" horiz-adv-x="246" 
d="M-31 595v88q0 20 19 20h80q20 0 20 -19v-89q0 -21 -20 -21h-80q-19 0 -19 21zM159 595v88q0 20 19 20h80q20 0 20 -19v-89q0 -21 -20 -21h-80q-19 0 -19 21zM60 21v468q0 21 20 21h86q21 0 21 -21v-468q0 -13 -4.5 -17t-15.5 -4h-86q-21 0 -21 21z" />
    <glyph glyph-name="eth" unicode="&#xf0;" horiz-adv-x="507" 
d="M454 309v-146q0 -78 -43 -120.5t-121 -42.5h-80q-79 0 -122 42t-43 121v84q0 79 43 121t122 42h24q32 0 64 -13.5t43 -40.5h4q-9 36 -34 61l-85 95l-80 -67q-14 -11 -29 5l-30 36q-10 15 3 26l77 65l-56 63q-19 20 4 38l42 31q19 14 37 -4l54 -60l82 69q17 14 28 0
l31 -38q13 -19 -2 -31l-79 -66l95 -105q29 -33 40 -70t11 -95zM327 169v55q0 38 -11 57t-49 19h-28q-67 0 -67 -59v-72q0 -32 13 -45.5t45 -13.5h39q32 0 45 13.5t13 45.5z" />
    <glyph glyph-name="ntilde" unicode="&#xf1;" horiz-adv-x="523" 
d="M134 650v38q0 12 11 12h39q7 0 9 -2.5t2 -9.5v-11q0 -22 3 -29t11 -7t33 31.5t61 31.5q71 0 71 -76v-37q0 -13 -10 -13h-39q-11 0 -11 13v9q0 23 -3 30t-11.5 7t-30.5 -28q-25 -35 -63 -35q-72 0 -72 76zM161 0h-85q-21 0 -21 21v468q0 21 21 21h85q21 0 21 -21v-33h4
q22 54 98 54h32q157 0 157 -163v-326q0 -21 -22 -21h-84q-21 0 -21 21v320q0 32 -13.5 45.5t-45.5 13.5h-36q-69 0 -69 -76v-303q0 -21 -21 -21z" />
    <glyph glyph-name="ograve" unicode="&#xf2;" horiz-adv-x="509" 
d="M292 574h-65q-16 0 -27 13l-81 96q-6 8 -3 14t13 6h99q20 0 30 -19l44 -89q11 -21 -10 -21zM299 0h-89q-79 0 -122 42t-43 121v184q0 79 43 121t122 42h89q78 0 121.5 -42.5t43.5 -120.5v-184q0 -78 -43.5 -120.5t-121.5 -42.5zM229 109h51q32 0 45.5 13t13.5 45v176
q0 32 -13.5 45t-45.5 13h-51q-32 0 -45 -13t-13 -45v-176q0 -32 13 -45t45 -13z" />
    <glyph glyph-name="oacute" unicode="&#xf3;" horiz-adv-x="509" 
d="M285 703h99q11 0 14 -6t-4 -14l-81 -96q-13 -13 -28 -13h-64q-21 0 -10 21l44 89q11 19 30 19zM299 0h-89q-79 0 -122 42t-43 121v184q0 79 43 121t122 42h89q78 0 121.5 -42.5t43.5 -120.5v-184q0 -78 -43.5 -120.5t-121.5 -42.5zM229 109h51q32 0 45.5 13t13.5 45v176
q0 32 -13.5 45t-45.5 13h-51q-32 0 -45 -13t-13 -45v-176q0 -32 13 -45t45 -13z" />
    <glyph glyph-name="ocircumflex" unicode="&#xf4;" horiz-adv-x="509" 
d="M364 574h-60q-13 0 -17 12l-33 66l-32 -66q-5 -12 -18 -12h-59q-15 0 -8 13l63 105q8 11 22 11h65q14 0 22 -11l62 -105q7 -13 -7 -13zM299 0h-89q-79 0 -122 42t-43 121v184q0 79 43 121t122 42h89q78 0 121.5 -42.5t43.5 -120.5v-184q0 -78 -43.5 -120.5t-121.5 -42.5z
M229 109h51q32 0 45.5 13t13.5 45v176q0 32 -13.5 45t-45.5 13h-51q-32 0 -45 -13t-13 -45v-176q0 -32 13 -45t45 -13z" />
    <glyph glyph-name="otilde" unicode="&#xf5;" horiz-adv-x="509" 
d="M126 650v38q0 12 11 12h39q7 0 9 -2.5t2 -9.5v-11q0 -22 3 -29t11 -7t33 31.5t61 31.5q71 0 71 -76v-37q0 -13 -10 -13h-39q-11 0 -11 13v9q0 23 -3 30t-11.5 7t-30.5 -28q-24 -35 -63 -35q-72 0 -72 76zM299 0h-89q-79 0 -122 42t-43 121v184q0 79 43 121t122 42h89
q78 0 121.5 -42.5t43.5 -120.5v-184q0 -78 -43.5 -120.5t-121.5 -42.5zM229 109h51q32 0 45.5 13t13.5 45v176q0 32 -13.5 45t-45.5 13h-51q-32 0 -45 -13t-13 -45v-176q0 -32 13 -45t45 -13z" />
    <glyph glyph-name="odieresis" unicode="&#xf6;" horiz-adv-x="509" 
d="M100 595v88q0 20 20 20h79q20 0 20 -19v-89q0 -21 -20 -21h-79q-20 0 -20 21zM290 595v88q0 20 20 20h79q20 0 20 -19v-89q0 -21 -20 -21h-79q-20 0 -20 21zM299 0h-89q-79 0 -122 42t-43 121v184q0 79 43 121t122 42h89q78 0 121.5 -42.5t43.5 -120.5v-184
q0 -78 -43.5 -120.5t-121.5 -42.5zM229 109h51q32 0 45.5 13t13.5 45v176q0 32 -13.5 45t-45.5 13h-51q-32 0 -45 -13t-13 -45v-176q0 -32 13 -45t45 -13z" />
    <glyph glyph-name="divide" unicode="&#xf7;" horiz-adv-x="464" 
d="M190 160v49q0 20 21 20h43q22 0 22 -20v-49q0 -21 -22 -21h-43q-21 0 -21 21zM373 278h-281q-21 0 -21 21v43q0 21 21 21h281q20 0 20 -21v-43q0 -21 -20 -21zM190 432v49q0 21 21 21h43q22 0 22 -21v-49q0 -20 -22 -20h-43q-21 0 -21 20z" />
    <glyph glyph-name="oslash" unicode="&#xf8;" horiz-adv-x="520" 
d="M470 347v-184q0 -78 -43.5 -120.5t-121.5 -42.5h-89q-78 0 -122 42l-27 -27q-18 -15 -30 0l-15 15q-16 14 -1 31l39 39q-9 27 -9 63v184q0 79 43 121t122 42h89q79 0 122 -43l27 27q15 16 30 1l16 -15q16 -16 0 -31l-39 -39q9 -28 9 -63zM178 341v-123l158 158
q-11 24 -52 24h-48q-32 0 -45 -13.5t-13 -45.5zM342 169v122l-157 -158q11 -23 51 -23h48q32 0 45 13.5t13 45.5z" />
    <glyph glyph-name="ugrave" unicode="&#xf9;" horiz-adv-x="523" 
d="M295 574h-66q-16 0 -26 13l-81 96q-7 8 -4 14t13 6h99q20 0 30 -19l45 -89q10 -21 -10 -21zM239 0h-33q-77 0 -116.5 42t-39.5 121v326q0 21 21 21h85q21 0 21 -21v-320q0 -32 13.5 -45.5t44.5 -13.5h37q69 0 69 76v303q0 21 21 21h84q22 0 22 -21v-468q0 -21 -22 -21
h-84q-21 0 -21 21v33h-4q-11 -27 -39 -40.5t-59 -13.5z" />
    <glyph glyph-name="uacute" unicode="&#xfa;" horiz-adv-x="523" 
d="M285 703h99q10 0 13 -6t-3 -14l-82 -96q-11 -13 -28 -13h-63q-21 0 -11 21l45 89q9 19 30 19zM239 0h-33q-77 0 -116.5 42t-39.5 121v326q0 21 21 21h85q21 0 21 -21v-320q0 -32 13.5 -45.5t44.5 -13.5h37q69 0 69 76v303q0 21 21 21h84q22 0 22 -21v-468q0 -21 -22 -21
h-84q-21 0 -21 21v33h-4q-11 -27 -39 -40.5t-59 -13.5z" />
    <glyph glyph-name="ucircumflex" unicode="&#xfb;" horiz-adv-x="523" 
d="M369 574h-60q-13 0 -18 12l-32 66l-32 -66q-5 -12 -18 -12h-59q-15 0 -8 13l62 105q8 11 23 11h64q15 0 23 -11l62 -105q7 -13 -7 -13zM239 0h-33q-77 0 -116.5 42t-39.5 121v326q0 21 21 21h85q21 0 21 -21v-320q0 -32 13.5 -45.5t44.5 -13.5h37q69 0 69 76v303
q0 21 21 21h84q22 0 22 -21v-468q0 -21 -22 -21h-84q-21 0 -21 21v33h-4q-11 -27 -39 -40.5t-59 -13.5z" />
    <glyph glyph-name="udieresis" unicode="&#xfc;" horiz-adv-x="523" 
d="M105 595v88q0 20 19 20h80q19 0 19 -19v-89q0 -21 -19 -21h-80q-19 0 -19 21zM295 595v88q0 20 19 20h80q19 0 19 -19v-89q0 -21 -19 -21h-80q-19 0 -19 21zM239 0h-33q-77 0 -116.5 42t-39.5 121v326q0 21 21 21h85q21 0 21 -21v-320q0 -32 13.5 -45.5t44.5 -13.5h37
q69 0 69 76v303q0 21 21 21h84q22 0 22 -21v-468q0 -21 -22 -21h-84q-21 0 -21 21v33h-4q-11 -27 -39 -40.5t-59 -13.5z" />
    <glyph glyph-name="yacute" unicode="&#xfd;" horiz-adv-x="472" 
d="M264 703h98q11 0 14 -6t-4 -14l-81 -96q-11 -13 -28 -13h-64q-20 0 -10 21l45 89q10 19 30 19zM138 -169h-64q-20 0 -20 22v67q0 22 20 22h21q63 0 85.5 17.5t34.5 67.5h-53q-19 0 -25 21l-117 441q-6 21 15 21h89q20 0 25 -21l86 -369h4l85 369q4 21 25 21h84
q25 0 20 -22l-122 -488q-22 -83 -68 -126t-125 -43z" />
    <glyph glyph-name="thorn" unicode="&#xfe;" horiz-adv-x="527" 
d="M252 110h44q32 0 45.5 13.5t13.5 45.5v172q0 32 -13.5 45.5t-45.5 13.5h-44q-69 0 -69 -76v-138q0 -76 69 -76zM183 54v-166q0 -21 -21 -21h-85q-21 0 -21 21v794q0 21 21 21h85q21 0 21 -21v-226h4q11 27 39 40.5t59 13.5h32q79 0 122 -42t43 -121v-184q0 -79 -43 -121
t-122 -42h-32q-31 0 -59 13.5t-39 40.5h-4z" />
    <glyph glyph-name="ydieresis" unicode="&#xff;" horiz-adv-x="472" 
d="M83 595v88q0 20 19 20h80q20 0 20 -19v-89q0 -21 -20 -21h-80q-19 0 -19 21zM273 595v88q0 20 19 20h80q20 0 20 -19v-89q0 -21 -20 -21h-80q-19 0 -19 21zM138 -169h-64q-20 0 -20 22v67q0 22 20 22h21q63 0 85.5 17.5t34.5 67.5h-53q-19 0 -25 21l-117 441q-6 21 15 21
h89q20 0 25 -21l86 -369h4l85 369q4 21 25 21h84q25 0 20 -22l-122 -488q-22 -83 -68 -126t-125 -43z" />
    <glyph glyph-name="Amacron" unicode="&#x100;" horiz-adv-x="556" 
d="M377 732h-198q-20 0 -20 21v45q0 21 20 21h198q20 0 20 -21v-45q0 -21 -20 -21zM132 0h-96q-18 0 -12 21l158 601q7 21 30 21h133q25 0 30 -21l158 -601q6 -21 -12 -21h-96q-11 0 -15 4.5t-6 16.5l-28 110h-195l-28 -110q-2 -12 -6.5 -16.5t-14.5 -4.5zM277 522l-72 -289
h148l-72 289h-4z" />
    <glyph glyph-name="amacron" unicode="&#x101;" horiz-adv-x="518" 
d="M381 595h-197q-21 0 -21 22v44q0 21 21 21h197q21 0 21 -21v-44q0 -22 -21 -22zM234 0h-24q-79 0 -122 42t-43 121v184q0 79 43 121t122 42h231q22 0 22 -21v-468q0 -21 -22 -21h-84q-21 0 -21 21v33h-4q-11 -27 -39 -40.5t-59 -13.5zM336 186v203q0 11 -12 11h-94
q-32 0 -45 -13.5t-13 -45.5v-172q0 -32 13 -45.5t45 -13.5h37q69 0 69 76z" />
    <glyph glyph-name="Abreve" unicode="&#x102;" horiz-adv-x="556" 
d="M163 823q0 13 14 13h50q13 0 13 -13v-9q0 -24 8.5 -33.5t26.5 -9.5h7q35 0 35 43v9q0 13 13 13h50q14 0 14 -13v-11q0 -51 -26.5 -78t-71.5 -27h-35q-46 0 -72 27t-26 78v11zM132 0h-96q-18 0 -12 21l158 601q7 21 30 21h133q25 0 30 -21l158 -601q6 -21 -12 -21h-96
q-11 0 -15 4.5t-6 16.5l-28 110h-195l-28 -110q-2 -12 -6.5 -16.5t-14.5 -4.5zM277 522l-72 -289h148l-72 289h-4z" />
    <glyph glyph-name="abreve" unicode="&#x103;" horiz-adv-x="518" 
d="M336 186v203q0 11 -12 11h-94q-32 0 -45 -13.5t-13 -45.5v-172q0 -32 13 -45.5t45 -13.5h37q69 0 69 76zM234 0h-24q-79 0 -122 42t-43 121v184q0 79 43 121t122 42h231q22 0 22 -21v-468q0 -21 -22 -21h-84q-21 0 -21 21v33h-4q-11 -27 -39 -40.5t-59 -13.5zM161 679v11
q0 13 14 13h50q14 0 14 -13v-9q0 -24 8 -33.5t26 -9.5h8q34 0 34 43v9q0 13 14 13h49q14 0 14 -13v-11q0 -51 -26 -78t-72 -27h-35q-46 0 -72 27t-26 78z" />
    <glyph glyph-name="Aogonek" unicode="&#x104;" horiz-adv-x="556" 
d="M521 0h-68l-37 -57h41q13 0 17.5 -4t4.5 -16q0 -21 -33 -33.5t-62.5 -12.5t-38 17.5t5.5 37.5l53 87v2l-28 110h-195l-28 -110q-2 -12 -6.5 -16.5t-14.5 -4.5h-96q-18 0 -12 21l158 601q7 21 30 21h133q25 0 30 -21l158 -601q6 -21 -12 -21zM205 233h148l-72 289h-4z" />
    <glyph glyph-name="aogonek" unicode="&#x105;" horiz-adv-x="518" 
d="M210 510h231q22 0 22 -21v-468q0 -21 -22 -21h-62q-10 -16 -22 -39.5t-9 -23.5q43 0 43 5q21 2 15 -17q-2 -21 -33.5 -32t-56.5 -11t-27.5 23.5t10.5 41.5l37 71v36h-4q-11 -27 -39 -40.5t-59 -13.5h-24q-79 0 -122 42t-43 121v184q0 79 43 121t122 42zM336 186v203
q0 11 -12 11h-94q-32 0 -45 -13.5t-13 -45.5v-172q0 -32 13 -45.5t45 -13.5h37q69 0 69 76z" />
    <glyph glyph-name="Cacute" unicode="&#x106;" horiz-adv-x="538" 
d="M329 0h-109q-79 0 -122 42t-43 121v317q0 79 43 121t122 42h109q78 0 121.5 -42.5t43.5 -120.5v-47q0 -22 -22 -22h-84q-21 0 -21 22v41q0 32 -13.5 45.5t-45.5 13.5h-68q-31 0 -44.5 -13.5t-13.5 -45.5v-305q0 -32 13.5 -45.5t44.5 -13.5h68q32 0 45.5 13.5t13.5 45.5
v41q0 22 21 22h84q22 0 22 -22v-47q0 -78 -43.5 -120.5t-121.5 -42.5zM290 836h99q10 0 13 -6t-3 -14l-81 -96q-11 -13 -27 -13h-65q-21 0 -11 21l45 89q10 19 30 19z" />
    <glyph glyph-name="cacute" unicode="&#x107;" horiz-adv-x="411" 
d="M255 703h99q11 0 14 -6t-4 -14l-81 -96q-11 -13 -28 -13h-64q-21 0 -10 21l44 89q11 19 30 19zM380 89v-69q0 -11 -4.5 -15.5t-16.5 -4.5h-149q-79 0 -122 42t-43 121v184q0 79 43 121t122 42h149q21 0 21 -21v-69q0 -11 -4.5 -15.5t-16.5 -4.5h-129q-31 0 -44.5 -13.5
t-13.5 -45.5v-172q0 -32 13.5 -45.5t44.5 -13.5h129q21 0 21 -21z" />
    <glyph glyph-name="Cdotaccent" unicode="&#x10a;" horiz-adv-x="538" 
d="M329 0h-109q-79 0 -122 42t-43 121v317q0 79 43 121t122 42h109q78 0 121.5 -42.5t43.5 -120.5v-47q0 -22 -22 -22h-84q-21 0 -21 22v41q0 32 -13.5 45.5t-45.5 13.5h-68q-31 0 -44.5 -13.5t-13.5 -45.5v-305q0 -32 13.5 -45.5t44.5 -13.5h68q32 0 45.5 13.5t13.5 45.5
v41q0 22 21 22h84q22 0 22 -22v-47q0 -78 -43.5 -120.5t-121.5 -42.5zM211 729v94q0 20 20 20h87q20 0 20 -19v-95q0 -21 -20 -21h-87q-20 0 -20 21z" />
    <glyph glyph-name="cdotaccent" unicode="&#x10b;" horiz-adv-x="411" 
d="M177 591v95q0 20 20 20h88q19 0 19 -19v-96q0 -20 -19 -20h-88q-20 0 -20 20zM380 89v-69q0 -11 -4.5 -15.5t-16.5 -4.5h-149q-79 0 -122 42t-43 121v184q0 79 43 121t122 42h149q21 0 21 -21v-69q0 -11 -4.5 -15.5t-16.5 -4.5h-129q-31 0 -44.5 -13.5t-13.5 -45.5v-172
q0 -32 13.5 -45.5t44.5 -13.5h129q21 0 21 -21z" />
    <glyph glyph-name="Ccaron" unicode="&#x10c;" horiz-adv-x="538" 
d="M329 0h-109q-79 0 -122 42t-43 121v317q0 79 43 121t122 42h109q78 0 121.5 -42.5t43.5 -120.5v-47q0 -22 -22 -22h-84q-21 0 -21 22v41q0 32 -13.5 45.5t-45.5 13.5h-68q-31 0 -44.5 -13.5t-13.5 -45.5v-305q0 -32 13.5 -45.5t44.5 -13.5h68q32 0 45.5 13.5t13.5 45.5
v41q0 22 21 22h84q22 0 22 -22v-47q0 -78 -43.5 -120.5t-121.5 -42.5zM310 707h-64q-15 0 -23 11l-62 105q-7 13 8 13h59q13 0 17 -12l33 -66l32 66q5 12 18 12h60q14 0 7 -13l-62 -105q-8 -11 -23 -11z" />
    <glyph glyph-name="ccaron" unicode="&#x10d;" horiz-adv-x="411" 
d="M208 574q-14 0 -22 11l-62 105q-7 13 8 13h59q13 0 17 -12l33 -66l32 66q5 12 18 12h59q15 0 8 -13l-63 -105q-8 -11 -22 -11h-65zM380 89v-69q0 -11 -4.5 -15.5t-16.5 -4.5h-149q-79 0 -122 42t-43 121v184q0 79 43 121t122 42h149q21 0 21 -21v-69q0 -11 -4.5 -15.5
t-16.5 -4.5h-129q-31 0 -44.5 -13.5t-13.5 -45.5v-172q0 -32 13.5 -45.5t44.5 -13.5h129q21 0 21 -21z" />
    <glyph glyph-name="Dcaron" unicode="&#x10e;" horiz-adv-x="553" 
d="M243 707q-14 0 -22 11l-63 105q-7 13 9 13h58q13 0 18 -12l32 -66l33 66q5 12 18 12h59q14 0 7 -13l-62 -105q-8 -11 -22 -11h-65zM203 110h109q32 0 45.5 13.5t13.5 45.5v305q0 32 -13.5 45.5t-45.5 13.5h-109q-11 0 -11 -11v-401q0 -11 11 -11zM65 21v601q0 21 21 21
h247q78 0 121.5 -42.5t43.5 -120.5v-317q0 -78 -43.5 -120.5t-121.5 -42.5h-247q-21 0 -21 21z" />
    <glyph glyph-name="dcaron" unicode="&#x10f;" horiz-adv-x="634" 
d="M635 684v-30q0 -35 -23 -79l-52 -101q-8 -10 -19 -10q-17 0 -17 20v199q0 20 19 20h73q19 0 19 -19zM242 0h-41q-77 0 -116.5 42t-39.5 121v184q0 79 39.5 121t116.5 42h41q31 0 59 -13.5t39 -40.5h4v226q0 21 21 21h85q21 0 21 -21v-661q0 -21 -21 -21h-85q-21 0 -21 21
v33h-4q-11 -27 -39 -40.5t-59 -13.5zM344 186v138q0 76 -69 76h-45q-32 0 -45 -13.5t-13 -45.5v-172q0 -32 13 -45.5t45 -13.5h45q69 0 69 76z" />
    <glyph glyph-name="Dcroat" unicode="&#x110;" horiz-adv-x="566" 
d="M217 110h109q32 0 45.5 13.5t13.5 45.5v305q0 32 -13.5 45.5t-45.5 13.5h-109q-11 0 -11 -11v-108q0 -12 11 -12h76q21 0 21 -21v-52q0 -11 -4.5 -15.5t-16.5 -4.5h-76q-11 0 -11 -11v-177q0 -11 11 -11zM347 0h-247q-21 0 -21 21v277q0 11 -11 11h-26q-12 0 -16.5 4.5
t-4.5 15.5v52q0 21 21 21h26q11 0 11 12v208q0 21 21 21h247q79 0 122 -42t43 -121v-317q0 -79 -43 -121t-122 -42z" />
    <glyph glyph-name="dcroat" unicode="&#x111;" horiz-adv-x="563" 
d="M242 0h-32q-79 0 -122 42t-43 121v131q0 79 43 121t122 42h32q31 0 59 -14t39 -41h4v120q0 12 -12 12h-130q-12 0 -16 4.5t-4 15.5v52q0 21 20 21h130q12 0 12 12v43q0 21 21 21h85q21 0 21 -21v-43q0 -12 12 -12h54q21 0 21 -21v-52q0 -11 -4.5 -15.5t-16.5 -4.5h-54
q-12 0 -12 -12v-501q0 -21 -21 -21h-85q-21 0 -21 21v33h-4q-11 -27 -39 -40.5t-59 -13.5zM344 186v85q0 75 -69 75h-45q-32 0 -45 -13t-13 -45v-119q0 -32 13 -45.5t45 -13.5h45q69 0 69 76z" />
    <glyph glyph-name="Emacron" unicode="&#x112;" horiz-adv-x="479" 
d="M348 732h-198q-20 0 -20 21v45q0 21 20 21h198q20 0 20 -21v-45q0 -21 -20 -21zM413 0h-327q-21 0 -21 21v601q0 21 21 21h327q20 0 20 -21v-68q0 -21 -20 -21h-209q-12 0 -12 -11v-130q0 -11 12 -11h171q21 0 21 -21v-68q0 -21 -21 -21h-171q-12 0 -12 -11v-139
q0 -11 12 -11h209q20 0 20 -21v-68q0 -21 -20 -21z" />
    <glyph glyph-name="emacron" unicode="&#x113;" horiz-adv-x="494" 
d="M353 595h-197q-21 0 -21 22v44q0 21 21 21h197q21 0 21 -21v-44q0 -22 -21 -22zM431 0h-221q-79 0 -122 42t-43 121v184q0 79 43 121t122 42h79q79 0 122 -42t43 -121v-127q0 -21 -21 -21h-251q-12 0 -12 -11v-22q0 -31 13.5 -44.5t45.5 -13.5h202q21 0 21 -22v-66
q0 -11 -4.5 -15.5t-16.5 -4.5zM182 284h136q11 0 11 11v48q0 32 -13 45t-45 13h-42q-32 0 -45 -13t-13 -45v-48q0 -11 11 -11z" />
    <glyph glyph-name="Ebreve" unicode="&#x114;" horiz-adv-x="479" 
d="M133 823q0 13 14 13h50q14 0 14 -13v-9q0 -24 8 -33.5t26 -9.5h7q35 0 35 43v9q0 13 14 13h49q14 0 14 -13v-11q0 -51 -26 -78t-72 -27h-35q-46 0 -72 27t-26 78v11zM413 0h-327q-21 0 -21 21v601q0 21 21 21h327q20 0 20 -21v-68q0 -21 -20 -21h-209q-12 0 -12 -11v-130
q0 -11 12 -11h171q21 0 21 -21v-68q0 -21 -21 -21h-171q-12 0 -12 -11v-139q0 -11 12 -11h209q20 0 20 -21v-68q0 -21 -20 -21z" />
    <glyph glyph-name="ebreve" unicode="&#x115;" horiz-adv-x="494" 
d="M182 284h136q11 0 11 11v48q0 32 -13 45t-45 13h-42q-32 0 -45 -13t-13 -45v-48q0 -11 11 -11zM431 0h-221q-79 0 -122 42t-43 121v184q0 79 43 121t122 42h79q79 0 122 -42t43 -121v-127q0 -21 -21 -21h-251q-12 0 -12 -11v-22q0 -31 13.5 -44.5t45.5 -13.5h202
q21 0 21 -22v-66q0 -11 -4.5 -15.5t-16.5 -4.5zM139 679v11q0 13 14 13h50q13 0 13 -13v-9q0 -24 8.5 -33.5t26.5 -9.5h7q35 0 35 43v9q0 13 13 13h50q14 0 14 -13v-11q0 -51 -26.5 -78t-71.5 -27h-35q-46 0 -72 27t-26 78z" />
    <glyph glyph-name="Edotaccent" unicode="&#x116;" horiz-adv-x="482" 
d="M186 729v94q0 20 20 20h88q19 0 19 -19v-95q0 -21 -19 -21h-88q-20 0 -20 21zM413 0h-327q-21 0 -21 21v601q0 21 21 21h327q20 0 20 -21v-68q0 -21 -20 -21h-209q-12 0 -12 -11v-130q0 -11 12 -11h171q21 0 21 -21v-68q0 -21 -21 -21h-171q-12 0 -12 -11v-139
q0 -11 12 -11h209q20 0 20 -21v-68q0 -21 -20 -21z" />
    <glyph glyph-name="edotaccent" unicode="&#x117;" horiz-adv-x="494" 
d="M192 591v95q0 20 19 20h88q20 0 20 -19v-96q0 -20 -20 -20h-88q-19 0 -19 20zM431 0h-221q-79 0 -122 42t-43 121v184q0 79 43 121t122 42h79q79 0 122 -42t43 -121v-127q0 -21 -21 -21h-251q-12 0 -12 -11v-22q0 -31 13.5 -44.5t45.5 -13.5h202q21 0 21 -22v-66
q0 -11 -4.5 -15.5t-16.5 -4.5zM182 284h136q11 0 11 11v48q0 32 -13 45t-45 13h-42q-32 0 -45 -13t-13 -45v-48q0 -11 11 -11z" />
    <glyph glyph-name="Eogonek" unicode="&#x118;" horiz-adv-x="479" 
d="M413 533h-209q-12 0 -12 -11v-130q0 -11 12 -11h171q21 0 21 -21v-68q0 -21 -21 -21h-171q-12 0 -12 -11v-139q0 -11 12 -11h209q20 0 20 -21v-68q0 -21 -20 -21h-40l-38 -57h42q12 0 16.5 -4t4.5 -16q0 -21 -33 -33.5t-62.5 -12.5t-37.5 17.5t6 37.5l42 68h-227
q-21 0 -21 21v601q0 21 21 21h327q20 0 20 -21v-68q0 -21 -20 -21z" />
    <glyph glyph-name="eogonek" unicode="&#x119;" horiz-adv-x="494" 
d="M433 199h-251q-12 0 -12 -11v-22q0 -31 13.5 -44.5t45.5 -13.5h202q21 0 21 -22v-66q0 -11 -4.5 -15.5t-16.5 -4.5h-51q-5 -8 -9.5 -17l-10.5 -21q-13 -25 -11 -25q44 0 44 5q9 1 13 -3.5t1 -13.5q-1 -21 -32.5 -32t-56.5 -11t-27.5 23.5t10.5 41.5l27 53h-118
q-79 0 -122 42t-43 121v184q0 79 43 121t122 42h79q79 0 122 -42t43 -121v-127q0 -21 -21 -21zM171 343v-48q0 -11 11 -11h136q11 0 11 11v48q0 32 -13 45t-45 13h-42q-32 0 -45 -13t-13 -45z" />
    <glyph glyph-name="Ecaron" unicode="&#x11a;" horiz-adv-x="479" 
d="M223 707q-14 0 -22 11l-62 105q-7 13 8 13h58q13 0 18 -12l33 -66l32 66q5 12 18 12h59q15 0 8 -13l-63 -105q-8 -11 -22 -11h-65zM413 0h-327q-21 0 -21 21v601q0 21 21 21h327q20 0 20 -21v-68q0 -21 -20 -21h-209q-12 0 -12 -11v-130q0 -11 12 -11h171q21 0 21 -21
v-68q0 -21 -21 -21h-171q-12 0 -12 -11v-139q0 -11 12 -11h209q20 0 20 -21v-68q0 -21 -20 -21z" />
    <glyph glyph-name="ecaron" unicode="&#x11b;" horiz-adv-x="494" 
d="M222 574q-14 0 -22 11l-62 105q-7 13 8 13h59q13 0 17 -12l33 -66l32 66q5 12 18 12h59q15 0 8 -13l-63 -105q-8 -11 -22 -11h-65zM431 0h-221q-79 0 -122 42t-43 121v184q0 79 43 121t122 42h79q79 0 122 -42t43 -121v-127q0 -21 -21 -21h-251q-12 0 -12 -11v-22
q0 -31 13.5 -44.5t45.5 -13.5h202q21 0 21 -22v-66q0 -11 -4.5 -15.5t-16.5 -4.5zM182 284h136q11 0 11 11v48q0 32 -13 45t-45 13h-42q-32 0 -45 -13t-13 -45v-48q0 -11 11 -11z" />
    <glyph glyph-name="Gcircumflex" unicode="&#x11c;" horiz-adv-x="545" 
d="M385 707h-60q-13 0 -18 12l-32 66l-33 -66q-4 -12 -17 -12h-59q-15 0 -8 13l62 105q8 11 22 11h65q15 0 23 -11l62 -105q7 -13 -7 -13zM326 0h-106q-79 0 -122 42t-43 121v317q0 79 43 121t122 42h106q78 0 121 -42.5t43 -120.5v-30q0 -22 -21 -22h-85q-21 0 -21 22v24
q0 32 -13 45.5t-45 13.5h-65q-31 0 -44.5 -13.5t-13.5 -45.5v-305q0 -32 13.5 -45.5t44.5 -13.5h65q32 0 45 13.5t13 45.5v63q0 11 -11 11h-60q-21 0 -21 21v68q0 21 21 21h175q23 0 23 -23v-167q0 -78 -43 -120.5t-121 -42.5z" />
    <glyph glyph-name="gcircumflex" unicode="&#x11d;" horiz-adv-x="519" 
d="M383 574h-59q-13 0 -18 12l-32 66l-33 -66q-4 -12 -17 -12h-59q-15 0 -8 13l62 105q8 11 22 11h65q14 0 22 -11l63 -105q7 -13 -8 -13zM235 23h-33q-77 0 -116.5 42t-39.5 121v161q0 79 43 121t122 42h231q22 0 22 -21v-493q0 -78 -43.5 -120t-121.5 -42h-192
q-12 0 -16.5 4.5t-4.5 15.5v69q0 21 21 21h171q32 0 45.5 13.5t13.5 44.5v76h-4q-11 -27 -39 -41t-59 -14zM337 209v180q0 11 -12 11h-94q-32 0 -45 -13.5t-13 -45.5v-149q0 -32 13 -45t45 -13h37q69 0 69 75z" />
    <glyph glyph-name="Gbreve" unicode="&#x11e;" horiz-adv-x="545" 
d="M157 823q0 13 14 13h50q14 0 14 -13v-9q0 -24 8 -33.5t26 -9.5h8q34 0 34 43v9q0 13 14 13h49q14 0 14 -13v-11q0 -51 -26 -78t-72 -27h-35q-45 0 -71.5 27t-26.5 78v11zM326 0h-106q-79 0 -122 42t-43 121v317q0 79 43 121t122 42h106q78 0 121 -42.5t43 -120.5v-30
q0 -22 -21 -22h-85q-21 0 -21 22v24q0 32 -13 45.5t-45 13.5h-65q-31 0 -44.5 -13.5t-13.5 -45.5v-305q0 -32 13.5 -45.5t44.5 -13.5h65q32 0 45 13.5t13 45.5v63q0 11 -11 11h-60q-21 0 -21 21v68q0 21 21 21h175q23 0 23 -23v-167q0 -78 -43 -120.5t-121 -42.5z" />
    <glyph glyph-name="gbreve" unicode="&#x11f;" horiz-adv-x="519" 
d="M337 209v180q0 11 -12 11h-94q-32 0 -45 -13.5t-13 -45.5v-149q0 -32 13 -45t45 -13h37q69 0 69 75zM235 23h-33q-77 0 -116.5 42t-39.5 121v161q0 79 43 121t122 42h231q22 0 22 -21v-493q0 -78 -43.5 -120t-121.5 -42h-192q-12 0 -16.5 4.5t-4.5 15.5v69q0 21 21 21
h171q32 0 45.5 13.5t13.5 44.5v76h-4q-11 -27 -39 -41t-59 -14zM164 679v11q0 13 14 13h49q14 0 14 -13v-9q0 -24 8.5 -33.5t26.5 -9.5h7q34 0 34 43v9q0 13 14 13h50q14 0 14 -13v-11q0 -51 -26.5 -78t-72.5 -27h-34q-46 0 -72 27t-26 78z" />
    <glyph glyph-name="Gdotaccent" unicode="&#x120;" horiz-adv-x="545" 
d="M209 729v94q0 20 20 20h88q19 0 19 -19v-95q0 -21 -19 -21h-88q-20 0 -20 21zM326 0h-106q-79 0 -122 42t-43 121v317q0 79 43 121t122 42h106q78 0 121 -42.5t43 -120.5v-30q0 -22 -21 -22h-85q-21 0 -21 22v24q0 32 -13 45.5t-45 13.5h-65q-31 0 -44.5 -13.5
t-13.5 -45.5v-305q0 -32 13.5 -45.5t44.5 -13.5h65q32 0 45 13.5t13 45.5v63q0 11 -11 11h-60q-21 0 -21 21v68q0 21 21 21h175q23 0 23 -23v-167q0 -78 -43 -120.5t-121 -42.5z" />
    <glyph glyph-name="gdotaccent" unicode="&#x121;" horiz-adv-x="519" 
d="M210 591v95q0 20 20 20h88q19 0 19 -19v-96q0 -20 -19 -20h-88q-20 0 -20 20zM235 23h-33q-77 0 -116.5 42t-39.5 121v161q0 79 43 121t122 42h231q22 0 22 -21v-493q0 -78 -43.5 -120t-121.5 -42h-192q-12 0 -16.5 4.5t-4.5 15.5v69q0 21 21 21h171q32 0 45.5 13.5
t13.5 44.5v76h-4q-11 -27 -39 -41t-59 -14zM337 209v180q0 11 -12 11h-94q-32 0 -45 -13.5t-13 -45.5v-149q0 -32 13 -45t45 -13h37q69 0 69 75z" />
    <glyph glyph-name="uni0122" unicode="&#x122;" horiz-adv-x="545" 
d="M340 -51v-47q0 -35 -23 -62l-53 -68q-8 -10 -18 -10q-18 0 -18 20v166q0 20 20 20h72q20 0 20 -19zM326 0h-106q-79 0 -122 42t-43 121v317q0 79 43 121t122 42h106q78 0 121 -42.5t43 -120.5v-30q0 -22 -21 -22h-85q-21 0 -21 22v24q0 32 -13 45.5t-45 13.5h-65
q-31 0 -44.5 -13.5t-13.5 -45.5v-305q0 -32 13.5 -45.5t44.5 -13.5h65q32 0 45 13.5t13 45.5v63q0 11 -11 11h-60q-21 0 -21 21v68q0 21 21 21h175q23 0 23 -23v-167q0 -78 -43 -120.5t-121 -42.5z" />
    <glyph glyph-name="uni0123" unicode="&#x123;" horiz-adv-x="519" 
d="M235 23h-33q-77 0 -116.5 42t-39.5 121v161q0 79 43 121t122 42h231q22 0 22 -21v-493q0 -78 -43.5 -120t-121.5 -42h-192q-12 0 -16.5 4.5t-4.5 15.5v69q0 21 21 21h171q32 0 45.5 13.5t13.5 44.5v76h-4q-11 -27 -39 -41t-59 -14zM337 209v180q0 11 -12 11h-94
q-32 0 -45 -13.5t-13 -45.5v-149q0 -32 13 -45t45 -13h37q69 0 69 75zM220 592v47q0 35 23 63l53 67q8 10 18 10q18 0 18 -20v-166q0 -20 -20 -20h-72q-20 0 -20 19z" />
    <glyph glyph-name="hcircumflex" unicode="&#x125;" horiz-adv-x="523" 
d="M431 645h-59q-12 0 -18 12l-32 66l-33 -66q-6 -12 -17 -12h-59q-15 0 -8 13l62 105q7 11 22 11h65q15 0 22 -11l63 -105q7 -13 -8 -13zM161 0h-85q-21 0 -21 21v661q0 21 21 21h85q21 0 21 -21v-226h4q22 54 98 54h32q157 0 157 -163v-326q0 -21 -22 -21h-84
q-21 0 -21 21v320q0 32 -13.5 45.5t-45.5 13.5h-36q-69 0 -69 -76v-303q0 -21 -21 -21z" />
    <glyph glyph-name="Hbar" unicode="&#x126;" horiz-adv-x="610" 
d="M193 0h-84q-22 0 -22 21v406q0 12 -11 12h-34q-12 0 -16.5 4.5t-4.5 15.5v52q0 21 21 21h34q11 0 11 12v78q0 21 22 21h84q22 0 22 -21v-78q0 -12 11 -12h170q10 0 10 9v81q0 21 22 21h84q22 0 22 -21v-78q0 -12 12 -12h34q21 0 21 -21v-52q0 -11 -4.5 -15.5t-16.5 -4.5
h-34q-12 0 -12 -12v-406q0 -21 -22 -21h-84q-22 0 -22 21v217q0 11 -11 11h-169q-11 0 -11 -11v-217q0 -21 -22 -21zM226 359h169q12 0 12 12v56q0 12 -12 12h-169q-11 0 -11 -12v-56q0 -12 11 -12z" />
    <glyph glyph-name="hbar" unicode="&#x127;" horiz-adv-x="572" 
d="M197 0h-84q-22 0 -22 21v501q0 12 -11 12h-54q-12 0 -16.5 4t-4.5 16v52q0 21 21 21h54q11 0 11 12v43q0 21 22 21h84q22 0 22 -21v-43q0 -12 11 -12h130q21 0 21 -21v-52q0 -11 -4.5 -15.5t-16.5 -4.5h-130q-11 0 -11 -12v-112h4q10 28 38 41.5t59 13.5h33
q78 0 121.5 -42.5t43.5 -120.5v-281q0 -21 -22 -21h-84q-22 0 -22 21v275q0 32 -13 45.5t-45 13.5h-45q-68 0 -68 -76v-258q0 -21 -22 -21z" />
    <glyph glyph-name="Itilde" unicode="&#x128;" horiz-adv-x="266" 
d="M85 702q-71 0 -71 76v39q0 11 10 11h40q10 0 10 -11v-12q0 -22 3.5 -29t11 -7t33.5 32t60 32q72 0 72 -77v-37q0 -13 -11 -13h-39q-11 0 -11 13v10q0 22 -3 29t-11.5 7t-29.5 -27q-26 -36 -64 -36zM197 622v-601q0 -21 -21 -21h-85q-21 0 -21 21v601q0 21 21 21h85
q21 0 21 -21z" />
    <glyph glyph-name="itilde" unicode="&#x129;" horiz-adv-x="247" 
d="M4 650v38q0 12 10 12h40q10 0 10 -12v-11q0 -22 3.5 -29t11 -7t33 31.5t60.5 31.5q72 0 72 -76v-37q0 -13 -11 -13h-39q-11 0 -11 13v9q0 23 -3 30t-10.5 7t-12.5 -5t-18 -23q-26 -35 -64 -35q-71 0 -71 76zM60 21v468q0 21 20 21h86q21 0 21 -21v-468q0 -13 -4.5 -17
t-15.5 -4h-86q-21 0 -21 21z" />
    <glyph glyph-name="Imacron" unicode="&#x12a;" horiz-adv-x="266" 
d="M232 732h-197q-21 0 -21 21v45q0 21 21 21h197q21 0 21 -21v-45q0 -21 -21 -21zM197 622v-601q0 -21 -21 -21h-85q-21 0 -21 21v601q0 21 21 21h85q21 0 21 -21z" />
    <glyph glyph-name="imacron" unicode="&#x12b;" horiz-adv-x="246" 
d="M222 595h-198q-20 0 -20 22v44q0 21 20 21h198q20 0 20 -21v-44q0 -22 -20 -22zM60 21v468q0 21 20 21h86q21 0 21 -21v-468q0 -13 -4.5 -17t-15.5 -4h-86q-21 0 -21 21z" />
    <glyph glyph-name="Ibreve" unicode="&#x12c;" horiz-adv-x="267" 
d="M18 823q0 13 14 13h50q14 0 14 -13v-9q0 -24 8 -33.5t26 -9.5h8q34 0 34 43v9q0 13 14 13h49q14 0 14 -13v-11q0 -51 -26 -78t-72 -27h-35q-46 0 -72 27t-26 78v11zM197 622v-601q0 -21 -21 -21h-85q-21 0 -21 21v601q0 21 21 21h85q21 0 21 -21z" />
    <glyph glyph-name="ibreve" unicode="&#x12d;" horiz-adv-x="247" 
d="M60 21v468q0 21 20 21h86q21 0 21 -21v-468q0 -13 -4.5 -17t-15.5 -4h-86q-21 0 -21 21zM8 679v11q0 13 14 13h50q14 0 14 -13v-9q0 -24 8 -33.5t26 -9.5h8q34 0 34 43v9q0 13 14 13h49q14 0 14 -13v-11q0 -51 -26 -78t-72 -27h-35q-46 0 -72 27t-26 78z" />
    <glyph glyph-name="Iogonek" unicode="&#x12e;" horiz-adv-x="267" 
d="M176 0h-6l-38 -57h42q12 0 16.5 -4t4.5 -16q0 -21 -33 -33.5t-62.5 -12.5t-37.5 17.5t6 37.5l41 68h-18q-21 0 -21 21v601q0 21 21 21h85q21 0 21 -21v-601q0 -21 -21 -21z" />
    <glyph glyph-name="iogonek" unicode="&#x12f;" horiz-adv-x="247" 
d="M80 703h87q20 0 20 -19v-88q0 -20 -20 -20h-87q-20 0 -20 20v87q0 20 20 20zM80 510h86q21 0 21 -21v-468q0 -13 -4.5 -17t-15.5 -4h-15q-5 -8 -9.5 -17l-10.5 -21q-13 -25 -11 -25q44 0 44 5q9 1 13 -3.5t1 -13.5q-1 -21 -32.5 -32t-56.5 -11t-27.5 23.5t10.5 41.5
l27 53h-19q-21 0 -21 21v468q0 21 20 21z" />
    <glyph glyph-name="Idotaccent" unicode="&#x130;" horiz-adv-x="267" 
d="M197 622v-601q0 -21 -21 -21h-85q-21 0 -21 21v601q0 21 21 21h85q21 0 21 -21zM70 724v86q0 20 20 20h87q20 0 20 -19v-87q0 -21 -20 -21h-87q-20 0 -20 21z" />
    <glyph glyph-name="dotlessi" unicode="&#x131;" horiz-adv-x="256" 
d="M64 21v468q0 21 20 21h86q21 0 21 -21v-468q0 -13 -4.5 -17t-15.5 -4h-86q-21 0 -21 21z" />
    <glyph glyph-name="IJ" unicode="&#x132;" horiz-adv-x="754" 
d="M585 643h84q21 0 21 -20v-460q0 -78 -43 -120.5t-121 -42.5h-100q-79 0 -122 42t-43 121v94q0 21 21 21h85q21 0 21 -21v-88q0 -32 13.5 -45.5t44.5 -13.5h59q32 0 45 13.5t13 45.5v453q0 21 22 21zM201 622v-601q0 -21 -21 -21h-85q-21 0 -21 21v601q0 21 21 21h85
q21 0 21 -21z" />
    <glyph glyph-name="ij" unicode="&#x133;" horiz-adv-x="490" 
d="M60 21v468q0 21 20 21h86q21 0 21 -21v-468q0 -13 -4.5 -17t-15.5 -4h-86q-21 0 -21 21zM60 596v87q0 20 20 20h87q20 0 20 -19v-88q0 -20 -20 -20h-87q-20 0 -20 20zM302 596v87q0 20 20 20h87q20 0 20 -19v-88q0 -20 -20 -20h-87q-20 0 -20 20zM263 -166h-66
q-21 0 -21 21v68q0 21 21 21h27q45 0 61.5 16t16.5 61v468q0 21 22 21h84q21 0 21 -21v-491q0 -78 -44 -121t-122 -43z" />
    <glyph glyph-name="Jcircumflex" unicode="&#x134;" horiz-adv-x="499" 
d="M356 643h84q21 0 21 -20v-460q0 -78 -43 -120.5t-121 -42.5h-100q-79 0 -122 42t-43 121v94q0 21 21 21h85q21 0 21 -21v-88q0 -32 13.5 -45.5t44.5 -13.5h59q32 0 45 13.5t13 45.5v453q0 21 22 21zM507 707h-60q-13 0 -17 12l-33 66l-32 -66q-5 -12 -18 -12h-59
q-15 0 -8 13l63 105q8 11 22 11h65q14 0 22 -11l62 -105q7 -13 -7 -13z" />
    <glyph glyph-name="jcircumflex" unicode="&#x135;" horiz-adv-x="243" 
d="M230 574h-60q-13 0 -18 12l-32 66l-33 -66q-4 -12 -17 -12h-59q-15 0 -8 13l62 105q8 11 23 11h64q15 0 23 -11l62 -105q7 -13 -7 -13zM21 -166h-67q-21 0 -21 21v68q0 21 21 21h28q45 0 61.5 16t16.5 61v468q0 21 21 21h85q21 0 21 -21v-491q0 -78 -44 -121t-122 -43z
" />
    <glyph glyph-name="uni0136" unicode="&#x136;" horiz-adv-x="558" 
d="M356 -51v-47q0 -34 -22 -62l-53 -68q-8 -10 -19 -10q-17 0 -17 20v166q0 20 19 20h73q19 0 19 -19zM171 0h-85q-21 0 -21 21v601q0 21 21 21h85q21 0 21 -21v-285h2q8 24 31 62l152 223q13 21 39 21h98q11 0 13.5 -6.5t-5.5 -16.5l-190 -263l212 -332q7 -12 2.5 -18.5
t-18.5 -6.5h-73q-35 0 -47 21l-153 245l-63 -74v-171q0 -21 -21 -21z" />
    <glyph glyph-name="uni0137" unicode="&#x137;" horiz-adv-x="472" 
d="M347 510h97q12 0 16 -7t-3 -18l-133 -219v-4l139 -237q6 -10 1 -17.5t-18 -7.5h-86q-17 0 -24.5 4t-15.5 17l-127 223q-9 16 0 33l120 213q11 20 34 20zM161 0h-85q-21 0 -21 21v661q0 21 21 21h85q21 0 21 -21v-661q0 -21 -21 -21zM309 -51v-47q0 -34 -22 -62l-53 -68
q-10 -10 -19 -10q-17 0 -17 20v166q0 20 19 20h73q19 0 19 -19z" />
    <glyph glyph-name="Lacute" unicode="&#x139;" horiz-adv-x="449" 
d="M161 836h99q10 0 13 -6t-3 -14l-82 -96q-10 -13 -26 -13h-65q-21 0 -11 21l45 89q9 19 30 19zM415 0h-329q-21 0 -21 21v601q0 21 21 21h85q21 0 21 -21v-500q0 -11 12 -11h211q20 0 20 -22v-68q0 -21 -20 -21z" />
    <glyph glyph-name="lacute" unicode="&#x13a;" horiz-adv-x="243" 
d="M153 882h99q10 0 13 -6t-3 -14l-81 -96q-13 -13 -29 -13h-63q-21 0 -11 21l45 89q9 19 30 19zM166 0h-85q-21 0 -21 21v661q0 21 21 21h85q21 0 21 -21v-661q0 -21 -21 -21z" />
    <glyph glyph-name="uni013B" unicode="&#x13b;" horiz-adv-x="449" 
d="M302 -51v-47q0 -33 -23 -62l-53 -68q-8 -10 -19 -10q-17 0 -17 20v166q0 20 19 20h73q20 0 20 -19zM415 0h-329q-21 0 -21 21v601q0 21 21 21h85q21 0 21 -21v-500q0 -11 12 -11h211q20 0 20 -22v-68q0 -21 -20 -21z" />
    <glyph glyph-name="uni013C" unicode="&#x13c;" horiz-adv-x="247" 
d="M180 -51v-47q0 -35 -23 -62l-52 -68q-10 -10 -19 -10q-17 0 -17 20v166q0 20 19 20h73q19 0 19 -19zM166 0h-85q-21 0 -21 21v661q0 21 21 21h85q21 0 21 -21v-661q0 -21 -21 -21z" />
    <glyph glyph-name="Lcaron" unicode="&#x13d;" horiz-adv-x="449" 
d="M395 624v-30q0 -31 -23 -79l-53 -101q-8 -10 -19 -10q-17 0 -17 20v199q0 20 19 20h73q20 0 20 -19zM415 0h-329q-21 0 -21 21v601q0 21 21 21h85q21 0 21 -21v-500q0 -11 12 -11h211q20 0 20 -22v-68q0 -21 -20 -21z" />
    <glyph glyph-name="lcaron" unicode="&#x13e;" horiz-adv-x="357" 
d="M354 684v-30q0 -35 -23 -79l-53 -101q-7 -10 -18 -10q-18 0 -18 20v199q0 20 20 20h72q20 0 20 -19zM166 0h-85q-21 0 -21 21v661q0 21 21 21h85q21 0 21 -21v-661q0 -21 -21 -21z" />
    <glyph glyph-name="Ldot" unicode="&#x13f;" horiz-adv-x="498" 
d="M423 0h-329q-21 0 -21 21v601q0 21 21 21h85q21 0 21 -21v-500q0 -11 12 -11h211q20 0 20 -22v-68q0 -21 -20 -21zM415 368v-97q0 -21 -19 -21h-89q-20 0 -20 22v95q0 20 20 20h89q19 0 19 -19z" />
    <glyph glyph-name="ldot" unicode="&#x140;" horiz-adv-x="400" 
d="M174 0h-85q-21 0 -21 21v661q0 21 21 21h85q21 0 21 -21v-661q0 -21 -21 -21zM383 368v-97q0 -21 -19 -21h-89q-20 0 -20 22v95q0 20 20 20h89q19 0 19 -19z" />
    <glyph glyph-name="Lslash" unicode="&#x141;" horiz-adv-x="517" 
d="M451 0h-329q-21 0 -21 21v263l-63 -36q-8 -4 -14 -0.5t-6 13.5v65q0 20 20 31l63 35v230q0 21 21 21h85q21 0 21 -21v-157l82 46q20 9 20 -12v-67q0 -21 -20 -32l-82 -46v-232q0 -11 12 -11h211q20 0 20 -22v-68q0 -21 -20 -21z" />
    <glyph glyph-name="lslash" unicode="&#x142;" horiz-adv-x="322" 
d="M203 0h-85q-21 0 -21 21v269l-64 -36q-8 -4 -14 -0.5t-6 13.5v69q0 20 20 29l64 36v281q0 21 21 21h85q21 0 21 -21v-208l65 36q8 5 13.5 1.5t5.5 -13.5v-68q0 -21 -19 -31l-65 -36v-342q0 -21 -21 -21z" />
    <glyph glyph-name="Nacute" unicode="&#x143;" horiz-adv-x="585" 
d="M319 836h98q11 0 14 -6t-4 -14l-81 -96q-10 -13 -26 -13h-66q-20 0 -10 21l45 89q9 19 30 19zM169 0h-83q-21 0 -21 21v601q0 21 21 21h75q21 0 28 -14l202 -379h4v372q0 21 21 21h83q21 0 21 -21v-601q0 -21 -21 -21h-73q-22 0 -32 20l-200 372h-4v-371q0 -21 -21 -21z
" />
    <glyph glyph-name="nacute" unicode="&#x144;" horiz-adv-x="523" 
d="M302 703h99q10 0 13 -6t-3 -14l-82 -96q-11 -13 -28 -13h-63q-21 0 -11 21l45 89q10 19 30 19zM161 0h-85q-21 0 -21 21v468q0 21 21 21h85q21 0 21 -21v-33h4q22 54 98 54h32q157 0 157 -163v-326q0 -21 -22 -21h-84q-21 0 -21 21v320q0 32 -13.5 45.5t-45.5 13.5h-36
q-69 0 -69 -76v-303q0 -21 -21 -21z" />
    <glyph glyph-name="uni0145" unicode="&#x145;" horiz-adv-x="585" 
d="M357 -51v-47q0 -35 -23 -62l-53 -68q-8 -10 -18 -10q-18 0 -18 20v166q0 20 20 20h72q20 0 20 -19zM169 0h-83q-21 0 -21 21v601q0 21 21 21h75q21 0 28 -14l202 -379h4v372q0 21 21 21h83q21 0 21 -21v-601q0 -21 -21 -21h-73q-22 0 -32 20l-200 372h-4v-371
q0 -21 -21 -21z" />
    <glyph glyph-name="uni0146" unicode="&#x146;" horiz-adv-x="522" 
d="M320 -51v-47q0 -35 -23 -62l-52 -68q-10 -10 -19 -10q-17 0 -17 20v166q0 20 19 20h73q19 0 19 -19zM161 0h-85q-21 0 -21 21v468q0 21 21 21h85q21 0 21 -21v-33h4q22 54 98 54h32q157 0 157 -163v-326q0 -21 -22 -21h-84q-21 0 -21 21v320q0 32 -13.5 45.5t-45.5 13.5
h-36q-69 0 -69 -76v-303q0 -21 -21 -21z" />
    <glyph glyph-name="Ncaron" unicode="&#x147;" horiz-adv-x="585" 
d="M169 0h-83q-21 0 -21 21v601q0 21 21 21h75q21 0 28 -14l202 -379h4v372q0 21 21 21h83q21 0 21 -21v-601q0 -21 -21 -21h-73q-22 0 -32 20l-200 372h-4v-371q0 -21 -21 -21zM269 707q-14 0 -22 11l-63 105q-7 13 8 13h59q13 0 18 -12l32 -66l33 66q4 12 17 12h60
q14 0 7 -13l-62 -105q-8 -11 -22 -11h-65z" />
    <glyph glyph-name="ncaron" unicode="&#x148;" horiz-adv-x="523" 
d="M232 574q-15 0 -23 11l-62 105q-7 13 8 13h59q13 0 18 -12l32 -66l32 66q5 12 18 12h60q14 0 7 -13l-62 -105q-8 -11 -23 -11h-64zM161 0h-85q-21 0 -21 21v468q0 21 21 21h85q21 0 21 -21v-33h4q22 54 98 54h32q157 0 157 -163v-326q0 -21 -22 -21h-84q-21 0 -21 21v320
q0 32 -13.5 45.5t-45.5 13.5h-36q-69 0 -69 -76v-303q0 -21 -21 -21z" />
    <glyph glyph-name="Eng" unicode="&#x14a;" horiz-adv-x="589" 
d="M400 20l-196 372h-4v-371q0 -21 -21 -21h-85q-21 0 -21 21v601q0 21 21 21h77q20 0 27 -14l199 -379h4v372q0 21 21 21h85q21 0 21 -21v-630q0 -78 -44 -121t-122 -43h-67q-20 0 -20 21v68q0 21 20 21h28q45 0 61 16t16 61v5z" />
    <glyph glyph-name="eng" unicode="&#x14b;" horiz-adv-x="523" 
d="M307 -172h-66q-21 0 -21 21v68q0 21 21 21h27q46 0 62 16t16 61v326q0 32 -13.5 45.5t-45.5 13.5h-36q-69 0 -69 -76v-303q0 -21 -21 -21h-85q-21 0 -21 21v468q0 21 21 21h85q21 0 21 -21v-33h4q11 27 39 40.5t59 13.5h24q78 0 121.5 -42.5t43.5 -120.5v-355
q0 -78 -44 -121t-122 -43z" />
    <glyph glyph-name="Omacron" unicode="&#x14c;" horiz-adv-x="552" 
d="M375 732h-198q-20 0 -20 21v45q0 21 20 21h198q20 0 20 -21v-45q0 -21 -20 -21zM240 110h71q32 0 45.5 13.5t13.5 45.5v305q0 32 -13.5 45.5t-45.5 13.5h-71q-32 0 -45 -13.5t-13 -45.5v-305q0 -32 13 -45.5t45 -13.5zM332 0h-112q-79 0 -122 42t-43 121v317q0 79 43 121
t122 42h112q79 0 122 -42t43 -121v-317q0 -79 -43 -121t-122 -42z" />
    <glyph glyph-name="omacron" unicode="&#x14d;" horiz-adv-x="509" 
d="M353 595h-197q-21 0 -21 22v44q0 21 21 21h197q21 0 21 -21v-44q0 -22 -21 -22zM299 0h-89q-79 0 -122 42t-43 121v184q0 79 43 121t122 42h89q78 0 121.5 -42.5t43.5 -120.5v-184q0 -78 -43.5 -120.5t-121.5 -42.5zM229 109h51q32 0 45.5 13t13.5 45v176q0 32 -13.5 45
t-45.5 13h-51q-32 0 -45 -13t-13 -45v-176q0 -32 13 -45t45 -13z" />
    <glyph glyph-name="Obreve" unicode="&#x14e;" horiz-adv-x="552" 
d="M161 823q0 13 14 13h50q14 0 14 -13v-9q0 -24 8 -33.5t26 -9.5h7q35 0 35 43v9q0 13 14 13h49q14 0 14 -13v-11q0 -51 -26 -78t-72 -27h-35q-46 0 -72 27t-26 78v11zM240 110h71q32 0 45.5 13.5t13.5 45.5v305q0 32 -13.5 45.5t-45.5 13.5h-71q-32 0 -45 -13.5t-13 -45.5
v-305q0 -32 13 -45.5t45 -13.5zM332 0h-112q-79 0 -122 42t-43 121v317q0 79 43 121t122 42h112q79 0 122 -42t43 -121v-317q0 -79 -43 -121t-122 -42z" />
    <glyph glyph-name="obreve" unicode="&#x14f;" horiz-adv-x="509" 
d="M229 109h51q32 0 45.5 13t13.5 45v176q0 32 -13.5 45t-45.5 13h-51q-32 0 -45 -13t-13 -45v-176q0 -32 13 -45t45 -13zM299 0h-89q-79 0 -122 42t-43 121v184q0 79 43 121t122 42h89q78 0 121.5 -42.5t43.5 -120.5v-184q0 -78 -43.5 -120.5t-121.5 -42.5zM139 679v11
q0 13 14 13h50q14 0 14 -13v-9q0 -24 8 -33.5t26 -9.5h8q34 0 34 43v9q0 13 14 13h49q14 0 14 -13v-11q0 -51 -26 -78t-72 -27h-35q-45 0 -71.5 27t-26.5 78z" />
    <glyph glyph-name="Ohungarumlaut" unicode="&#x150;" horiz-adv-x="552" 
d="M236 836h65q23 0 10 -20l-72 -96q-10 -13 -25 -13h-42q-20 0 -10 21l44 89q10 19 30 19zM389 836h64q24 0 10 -20l-71 -96q-11 -13 -26 -13h-41q-21 0 -10 21l44 89q9 19 30 19zM240 110h71q32 0 45.5 13.5t13.5 45.5v305q0 32 -13.5 45.5t-45.5 13.5h-71
q-32 0 -45 -13.5t-13 -45.5v-305q0 -32 13 -45.5t45 -13.5zM332 0h-112q-79 0 -122 42t-43 121v317q0 79 43 121t122 42h112q79 0 122 -42t43 -121v-317q0 -79 -43 -121t-122 -42z" />
    <glyph glyph-name="ohungarumlaut" unicode="&#x151;" horiz-adv-x="509" 
d="M216 703h65q23 0 9 -20l-71 -96q-10 -13 -25 -13h-42q-20 0 -10 21l44 89q10 19 30 19zM369 703h64q24 0 10 -20l-71 -96q-11 -13 -26 -13h-41q-21 0 -10 21l44 89q9 19 30 19zM299 0h-89q-79 0 -122 42t-43 121v184q0 79 43 121t122 42h89q78 0 121.5 -42.5t43.5 -120.5
v-184q0 -78 -43.5 -120.5t-121.5 -42.5zM229 109h51q32 0 45.5 13t13.5 45v176q0 32 -13.5 45t-45.5 13h-51q-32 0 -45 -13t-13 -45v-176q0 -32 13 -45t45 -13z" />
    <glyph glyph-name="OE" unicode="&#x152;" horiz-adv-x="781" 
d="M63 163v317q0 79 43 121t122 42h477q21 0 21 -21v-68q0 -21 -21 -21h-201q-11 0 -11 -11v-130q0 -11 11 -11h164q20 0 20 -21v-68q0 -21 -20 -21h-164q-11 0 -11 -11v-139q0 -11 11 -11h201q21 0 21 -21v-68q0 -21 -21 -21h-477q-79 0 -122 42t-43 121zM249 110h106
q12 0 12 11v401q0 11 -12 11h-106q-32 0 -45 -13.5t-13 -45.5v-305q0 -32 13 -45.5t45 -13.5z" />
    <glyph glyph-name="oe" unicode="&#x153;" horiz-adv-x="787" 
d="M282 0h-72q-79 0 -122 42t-43 121v184q0 79 43 121t122 42h64q92 0 135 -60q33 60 125 60h47q78 0 121.5 -42.5t43.5 -120.5v-127q0 -21 -22 -21h-249q-11 0 -11 -11v-19q0 -32 13 -45.5t45 -13.5h201q20 0 20 -21v-69q0 -11 -4 -15.5t-16 -4.5h-197q-55 0 -84 15t-51 50
q-21 -65 -109 -65zM475 284h132q12 0 12 11v46q0 32 -13.5 45.5t-44.5 13.5h-39q-32 0 -45 -13.5t-13 -45.5v-46q0 -11 11 -11zM230 110h48q32 0 45 13.5t13 45.5v172q0 32 -13 45.5t-45 13.5h-48q-32 0 -45 -13.5t-13 -45.5v-172q0 -32 13 -45.5t45 -13.5z" />
    <glyph glyph-name="Racute" unicode="&#x154;" horiz-adv-x="547" 
d="M286 836h99q10 0 13 -6t-3 -14l-82 -96q-10 -13 -26 -13h-65q-21 0 -11 21l45 89q10 19 30 19zM171 0h-85q-21 0 -21 21v601q0 21 21 21h238q78 0 122 -43t44 -121v-78q0 -113 -89 -150v-4l107 -223q9 -24 -17 -24h-81q-18 0 -26 4t-13 17l-100 216h-67q-12 0 -12 -11
v-205q0 -21 -21 -21zM203 339h98q32 0 47 13.5t15 43.5v78q0 31 -15 45t-47 14h-98q-11 0 -11 -11v-172q0 -11 11 -11z" />
    <glyph glyph-name="racute" unicode="&#x155;" horiz-adv-x="349" 
d="M208 703h99q11 0 14 -6t-4 -14l-81 -96q-11 -13 -28 -13h-64q-20 0 -10 21l44 89q11 19 30 19zM161 0h-85q-21 0 -21 21v468q0 21 21 21h85q21 0 21 -21v-34h4q11 27 39 41t59 14h36q20 0 20 -21v-69q0 -12 -4.5 -16.5t-15.5 -3.5h-69q-69 0 -69 -78v-301q0 -21 -21 -21z
" />
    <glyph glyph-name="uni0156" unicode="&#x156;" horiz-adv-x="547" 
d="M344 -51v-47q0 -35 -23 -62l-53 -68q-8 -10 -18 -10q-18 0 -18 20v166q0 20 20 20h72q20 0 20 -19zM171 0h-85q-21 0 -21 21v601q0 21 21 21h238q78 0 122 -43t44 -121v-78q0 -113 -89 -150v-4l107 -223q9 -24 -17 -24h-81q-18 0 -26 4t-13 17l-100 216h-67
q-12 0 -12 -11v-205q0 -21 -21 -21zM203 339h98q32 0 47 13.5t15 43.5v78q0 31 -15 45t-47 14h-98q-11 0 -11 -11v-172q0 -11 11 -11z" />
    <glyph glyph-name="uni0157" unicode="&#x157;" horiz-adv-x="349" 
d="M175 -51v-47q0 -35 -23 -62l-52 -68q-10 -10 -19 -10q-17 0 -17 20v166q0 20 19 20h73q19 0 19 -19zM161 0h-85q-21 0 -21 21v468q0 21 21 21h85q21 0 21 -21v-34h4q11 27 39 41t59 14h36q20 0 20 -21v-69q0 -12 -4.5 -16.5t-15.5 -3.5h-69q-69 0 -69 -78v-301
q0 -21 -21 -21z" />
    <glyph glyph-name="Rcaron" unicode="&#x158;" horiz-adv-x="547" 
d="M231 707q-14 0 -22 11l-62 105q-7 13 8 13h59q13 0 17 -12l33 -66l32 66q5 12 18 12h60q14 0 7 -13l-62 -105q-8 -11 -23 -11h-65zM171 0h-85q-21 0 -21 21v601q0 21 21 21h238q78 0 122 -43t44 -121v-78q0 -113 -89 -150v-4l107 -223q9 -24 -17 -24h-81q-18 0 -26 4
t-13 17l-100 216h-67q-12 0 -12 -11v-205q0 -21 -21 -21zM203 339h98q32 0 47 13.5t15 43.5v78q0 31 -15 45t-47 14h-98q-11 0 -11 -11v-172q0 -11 11 -11z" />
    <glyph glyph-name="rcaron" unicode="&#x159;" horiz-adv-x="349" 
d="M158 574q-14 0 -22 11l-62 105q-7 13 8 13h59q13 0 17 -12l33 -66l32 66q5 12 18 12h59q15 0 8 -13l-63 -105q-8 -11 -22 -11h-65zM161 0h-85q-21 0 -21 21v468q0 21 21 21h85q21 0 21 -21v-34h4q11 27 39 41t59 14h36q20 0 20 -21v-69q0 -12 -4.5 -16.5t-15.5 -3.5h-69
q-69 0 -69 -78v-301q0 -21 -21 -21z" />
    <glyph glyph-name="Sacute" unicode="&#x15a;" horiz-adv-x="539" 
d="M49 164v20q0 21 21 21h85q21 0 21 -21v-8q0 -38 15 -52t55 -14h47q39 0 54.5 15t15.5 56v12q0 29 -23.5 44.5t-58.5 18.5t-75.5 11.5t-75.5 22t-58.5 53t-23.5 101.5v35q0 78 44 121t122 43h100q79 0 123 -43t44 -121v-19q0 -21 -21 -21h-85q-21 0 -21 21v6q0 39 -15 53
t-55 14h-39q-41 0 -55.5 -15.5t-14.5 -60.5v-19q0 -47 82 -54q85 -7 151 -34q35 -15 58.5 -53.5t23.5 -98.5v-34q0 -78 -44 -121t-122 -43h-109q-78 0 -122 43t-44 121zM282 836h99q10 0 13 -6t-3 -14l-81 -96q-11 -13 -27 -13h-65q-21 0 -11 21l45 89q10 19 30 19z" />
    <glyph glyph-name="sacute" unicode="&#x15b;" horiz-adv-x="440" 
d="M228 703h99q10 0 13 -6t-4 -14l-81 -96q-11 -13 -28 -13h-64q-20 0 -10 21l45 89q10 19 30 19zM248 0h-190q-20 0 -20 21v64q0 11 4 15.5t16 4.5h167q49 0 49 30v5q0 24 -41 46l-99 55q-51 26 -75 56t-24 77q0 70 37 103t116 33h167q20 0 20 -21v-65q0 -11 -4 -15.5
t-16 -4.5h-139q-49 0 -49 -25v-5q0 -22 43 -45l101 -60q52 -28 73 -57.5t21 -77.5q0 -134 -157 -134z" />
    <glyph glyph-name="Scircumflex" unicode="&#x15c;" horiz-adv-x="539" 
d="M49 164v20q0 21 21 21h85q21 0 21 -21v-8q0 -38 15 -52t55 -14h47q39 0 54.5 15t15.5 56v12q0 29 -23.5 44.5t-58.5 18.5t-75.5 11.5t-75.5 22t-58.5 53t-23.5 101.5v35q0 78 44 121t122 43h100q79 0 123 -43t44 -121v-19q0 -21 -21 -21h-85q-21 0 -21 21v6q0 39 -15 53
t-55 14h-39q-41 0 -55.5 -15.5t-14.5 -60.5v-19q0 -47 82 -54q85 -7 151 -34q35 -15 58.5 -53.5t23.5 -98.5v-34q0 -78 -44 -121t-122 -43h-109q-78 0 -122 43t-44 121zM380 707h-60q-13 0 -18 12l-32 66l-33 -66q-4 -12 -17 -12h-59q-15 0 -8 13l62 105q8 11 23 11h64
q15 0 23 -11l62 -105q7 -13 -7 -13z" />
    <glyph glyph-name="scircumflex" unicode="&#x15d;" horiz-adv-x="440" 
d="M324 574h-60q-13 0 -17 12l-33 66l-32 -66q-5 -12 -18 -12h-59q-15 0 -8 13l62 105q8 11 23 11h65q14 0 22 -11l62 -105q7 -13 -7 -13zM248 0h-190q-20 0 -20 21v64q0 11 4 15.5t16 4.5h167q49 0 49 30v5q0 24 -41 46l-99 55q-51 26 -75 56t-24 77q0 70 37 103t116 33
h167q20 0 20 -21v-65q0 -11 -4 -15.5t-16 -4.5h-139q-49 0 -49 -25v-5q0 -22 43 -45l101 -60q52 -28 73 -57.5t21 -77.5q0 -134 -157 -134z" />
    <glyph glyph-name="uni015E" unicode="&#x15e;" horiz-adv-x="539" 
d="M175 457v-19q0 -47 82 -54q85 -7 151 -34q35 -15 58.5 -53.5t23.5 -98.5v-34q0 -76 -42 -119t-116 -45l-33 -33v-4q74 0 74 -75v-18q0 -70 -94 -70h-45q-11 0 -14.5 3.5t-3.5 14.5v20q0 11 3.5 15t14.5 4h33q27 0 36 4.5t9 18.5v2q0 15 -9 19.5t-36 4.5h-25
q-18 0 -25 19.5t6 35.5l34 39h-42q-78 0 -122 43t-44 121v20q0 21 21 21h85q21 0 21 -21v-8q0 -38 15 -52t55 -14h47q39 0 54.5 15t15.5 56v12q0 29 -23.5 44.5t-58.5 18.5t-75.5 11.5t-75.5 22t-58.5 53t-23.5 101.5v35q0 78 44 121t122 43h100q79 0 123 -43t44 -121v-19
q0 -21 -21 -21h-85q-21 0 -21 21v6q0 39 -15 53t-55 14h-39q-41 0 -55.5 -15.5t-14.5 -60.5z" />
    <glyph glyph-name="uni015F" unicode="&#x15f;" horiz-adv-x="440" 
d="M233 -37q74 0 74 -75v-18q0 -70 -94 -70h-45q-12 0 -15 3.5t-3 14.5v20q0 11 3.5 15t14.5 4h33q27 0 36 4.5t9 18.5v2q0 15 -9 19.5t-36 4.5h-25q-18 0 -25 19.5t6 35.5l34 39h-133q-20 0 -20 21v64q0 11 4 15.5t16 4.5h167q49 0 49 30v5q0 24 -41 46l-99 55
q-51 26 -75 56t-24 77q0 70 37 103t116 33h167q20 0 20 -21v-65q0 -11 -4 -15.5t-16 -4.5h-139q-49 0 -49 -25v-5q0 -22 43 -45l101 -60q52 -28 73 -57.5t21 -77.5q0 -126 -138 -133l-34 -34v-4z" />
    <glyph glyph-name="Scaron" unicode="&#x160;" horiz-adv-x="539" 
d="M49 164v20q0 21 21 21h85q21 0 21 -21v-8q0 -38 15 -52t55 -14h47q39 0 54.5 15t15.5 56v12q0 29 -23.5 44.5t-58.5 18.5t-75.5 11.5t-75.5 22t-58.5 53t-23.5 101.5v35q0 78 44 121t122 43h100q79 0 123 -43t44 -121v-19q0 -21 -21 -21h-85q-21 0 -21 21v6q0 39 -15 53
t-55 14h-39q-41 0 -55.5 -15.5t-14.5 -60.5v-19q0 -47 82 -54q85 -7 151 -34q35 -15 58.5 -53.5t23.5 -98.5v-34q0 -78 -44 -121t-122 -43h-109q-78 0 -122 43t-44 121zM295 707h-65q-15 0 -23 11l-62 105q-7 13 8 13h59q13 0 18 -12l32 -66l33 66q4 12 17 12h60q14 0 7 -13
l-62 -105q-8 -11 -22 -11z" />
    <glyph glyph-name="scaron" unicode="&#x161;" horiz-adv-x="440" 
d="M182 574q-15 0 -23 11l-62 105q-7 13 8 13h59q13 0 18 -12l32 -66l33 66q4 12 17 12h60q14 0 7 -13l-62 -105q-8 -11 -22 -11h-65zM248 0h-190q-20 0 -20 21v64q0 11 4 15.5t16 4.5h167q49 0 49 30v5q0 24 -41 46l-99 55q-51 26 -75 56t-24 77q0 70 37 103t116 33h167
q20 0 20 -21v-65q0 -11 -4 -15.5t-16 -4.5h-139q-49 0 -49 -25v-5q0 -22 43 -45l101 -60q52 -28 73 -57.5t21 -77.5q0 -134 -157 -134z" />
    <glyph glyph-name="uni0162" unicode="&#x162;" horiz-adv-x="443" 
d="M277 -51v-47q0 -34 -22 -62l-53 -68q-8 -10 -19 -10q-17 0 -17 20v166q0 20 19 20h73q19 0 19 -19zM264 0h-84q-22 0 -22 21v501q0 11 -11 11h-114q-21 0 -21 21v68q0 21 21 21h378q21 0 21 -21v-68q0 -21 -21 -21h-114q-12 0 -12 -11v-501q0 -21 -21 -21z" />
    <glyph glyph-name="uni0163" unicode="&#x163;" horiz-adv-x="353" 
d="M260 -51v-47q0 -35 -23 -62l-53 -68q-8 -10 -18 -10q-17 0 -17 20v166q0 20 19 20h73q19 0 19 -19zM66 400h-40q-12 0 -16.5 4t-4.5 16v69q0 21 21 21h40q11 0 11 11v95q0 21 22 21h84q21 0 21 -21v-95q0 -11 12 -11h78q21 0 21 -21v-69q0 -11 -4.5 -15.5t-16.5 -4.5h-78
q-12 0 -12 -11v-221q0 -31 14 -44.5t46 -13.5h40q21 0 21 -21v-69q0 -11 -4.5 -15.5t-16.5 -4.5h-61q-79 0 -122.5 42t-43.5 120v227q0 11 -11 11z" />
    <glyph glyph-name="Tcaron" unicode="&#x164;" horiz-adv-x="443" 
d="M191 707q-14 0 -22 11l-63 105q-7 13 9 13h58q13 0 18 -12l33 -66l32 66q5 12 18 12h59q15 0 8 -13l-63 -105q-8 -11 -22 -11h-65zM264 0h-84q-22 0 -22 21v501q0 11 -11 11h-114q-21 0 -21 21v68q0 21 21 21h378q21 0 21 -21v-68q0 -21 -21 -21h-114q-12 0 -12 -11v-501
q0 -21 -21 -21z" />
    <glyph glyph-name="tcaron" unicode="&#x165;" horiz-adv-x="468" 
d="M467 624v-30q0 -31 -23 -79l-53 -101q-8 -10 -19 -10q-17 0 -17 20v199q0 20 20 20h72q20 0 20 -19zM66 400h-40q-12 0 -16.5 4t-4.5 16v69q0 21 21 21h40q11 0 11 11v95q0 21 22 21h84q21 0 21 -21v-95q0 -11 12 -11h78q21 0 21 -21v-69q0 -11 -4.5 -15.5t-16.5 -4.5
h-78q-12 0 -12 -11v-221q0 -31 14 -44.5t46 -13.5h40q21 0 21 -21v-69q0 -11 -4.5 -15.5t-16.5 -4.5h-61q-79 0 -122.5 42t-43.5 120v227q0 11 -11 11z" />
    <glyph glyph-name="Tbar" unicode="&#x166;" horiz-adv-x="507" 
d="M288 0h-84q-21 0 -21 21v255q0 11 -12 11h-61q-12 0 -16 4.5t-4 16.5v51q0 22 20 22h61q12 0 12 11v130q0 11 -12 11h-122q-21 0 -21 21v68q0 21 21 21h395q20 0 20 -21v-68q0 -21 -20 -21h-123q-11 0 -11 -11v-130q0 -11 11 -11h63q20 0 20 -22v-51q0 -12 -4 -16.5
t-16 -4.5h-63q-11 0 -11 -11v-255q0 -21 -22 -21z" />
    <glyph glyph-name="tbar" unicode="&#x167;" horiz-adv-x="367" 
d="M318 0h-69q-79 0 -122.5 42t-43.5 120v51q0 12 -11 12h-46q-12 0 -16.5 4.5t-4.5 15.5v52q0 21 21 21h46q11 0 11 12v59q0 11 -11 11h-46q-12 0 -16.5 4t-4.5 16v69q0 21 21 21h46q11 0 11 11v95q0 21 21 21h85q21 0 21 -21v-95q0 -11 12 -11h86q20 0 20 -21v-69
q0 -11 -4 -15.5t-16 -4.5h-86q-12 0 -12 -11v-59q0 -12 12 -12h86q20 0 20 -21v-52q0 -11 -4 -15.5t-16 -4.5h-86q-12 0 -12 -12v-45q0 -31 14 -44.5t46 -13.5h48q20 0 20 -21v-69q0 -11 -4 -15.5t-16 -4.5z" />
    <glyph glyph-name="Utilde" unicode="&#x168;" horiz-adv-x="560" 
d="M232 702q-72 0 -72 76v39q0 11 11 11h39q7 0 9 -2t2 -9v-12q0 -22 3 -29t10 -7t12.5 5.5t26.5 32t56 26.5q71 0 71 -77v-37q0 -13 -10 -13h-39q-11 0 -11 13v10q0 22 -3.5 29t-11.5 7t-30 -27q-25 -36 -63 -36zM394 643h84q22 0 22 -20v-460q0 -78 -43.5 -120.5
t-121.5 -42.5h-110q-79 0 -122 42t-43 121v459q0 21 21 21h85q21 0 21 -21v-453q0 -32 13.5 -45.5t44.5 -13.5h69q32 0 45.5 13.5t13.5 45.5v453q0 21 21 21z" />
    <glyph glyph-name="utilde" unicode="&#x169;" horiz-adv-x="523" 
d="M129 650v38q0 12 11 12h39q7 0 9 -2.5t2 -9.5v-11q0 -22 3 -29t11 -7t33 31.5t61 31.5q71 0 71 -76v-37q0 -13 -10 -13h-39q-11 0 -11 13v9q0 23 -3 30t-11.5 7t-30.5 -28q-24 -35 -63 -35q-72 0 -72 76zM239 0h-33q-77 0 -116.5 42t-39.5 121v326q0 21 21 21h85
q21 0 21 -21v-320q0 -32 13.5 -45.5t44.5 -13.5h37q69 0 69 76v303q0 21 21 21h84q22 0 22 -21v-468q0 -21 -22 -21h-84q-21 0 -21 21v33h-4q-11 -27 -39 -40.5t-59 -13.5z" />
    <glyph glyph-name="Umacron" unicode="&#x16a;" horiz-adv-x="560" 
d="M379 732h-198q-20 0 -20 21v45q0 21 20 21h198q20 0 20 -21v-45q0 -21 -20 -21zM394 643h84q22 0 22 -20v-460q0 -78 -43.5 -120.5t-121.5 -42.5h-110q-79 0 -122 42t-43 121v459q0 21 21 21h85q21 0 21 -21v-453q0 -32 13.5 -45.5t44.5 -13.5h69q32 0 45.5 13.5
t13.5 45.5v453q0 21 21 21z" />
    <glyph glyph-name="umacron" unicode="&#x16b;" horiz-adv-x="523" 
d="M358 595h-198q-20 0 -20 22v44q0 21 20 21h198q20 0 20 -21v-44q0 -22 -20 -22zM239 0h-33q-77 0 -116.5 42t-39.5 121v326q0 21 21 21h85q21 0 21 -21v-320q0 -32 13.5 -45.5t44.5 -13.5h37q69 0 69 76v303q0 21 21 21h84q22 0 22 -21v-468q0 -21 -22 -21h-84
q-21 0 -21 21v33h-4q-11 -27 -39 -40.5t-59 -13.5z" />
    <glyph glyph-name="Ubreve" unicode="&#x16c;" horiz-adv-x="560" 
d="M165 823q0 13 14 13h50q14 0 14 -13v-9q0 -24 8 -33.5t26 -9.5h7q35 0 35 43v9q0 13 14 13h49q14 0 14 -13v-11q0 -51 -26 -78t-72 -27h-35q-46 0 -72 27t-26 78v11zM394 643h84q22 0 22 -20v-460q0 -78 -43.5 -120.5t-121.5 -42.5h-110q-79 0 -122 42t-43 121v459
q0 21 21 21h85q21 0 21 -21v-453q0 -32 13.5 -45.5t44.5 -13.5h69q32 0 45.5 13.5t13.5 45.5v453q0 21 21 21z" />
    <glyph glyph-name="ubreve" unicode="&#x16d;" horiz-adv-x="523" 
d="M239 0h-33q-77 0 -116.5 42t-39.5 121v326q0 21 21 21h85q21 0 21 -21v-320q0 -32 13.5 -45.5t44.5 -13.5h37q69 0 69 76v303q0 21 21 21h84q22 0 22 -21v-468q0 -21 -22 -21h-84q-21 0 -21 21v33h-4q-11 -27 -39 -40.5t-59 -13.5zM144 677v11q0 13 14 13h50q14 0 14 -13
v-9q0 -24 8 -33t26 -9h7q35 0 35 42v9q0 13 14 13h49q14 0 14 -13v-11q0 -51 -26 -78t-72 -27h-35q-46 0 -72 27t-26 78z" />
    <glyph glyph-name="Uring" unicode="&#x16e;" horiz-adv-x="560" 
d="M308 704h-57q-54 0 -54 54v64q0 25 14 38.5t40 13.5h57q25 0 40 -14t15 -38v-64q0 -26 -15 -40t-40 -14zM271 750h16q13 0 18 5.5t5 19.5v26q0 15 -4.5 20.5t-17.5 5.5h-16q-13 0 -18 -5.5t-5 -20.5v-26q0 -14 4.5 -19.5t17.5 -5.5zM394 643h84q22 0 22 -20v-460
q0 -78 -43.5 -120.5t-121.5 -42.5h-110q-79 0 -122 42t-43 121v459q0 21 21 21h85q21 0 21 -21v-453q0 -32 13.5 -45.5t44.5 -13.5h69q32 0 45.5 13.5t13.5 45.5v453q0 21 21 21z" />
    <glyph glyph-name="uring" unicode="&#x16f;" horiz-adv-x="523" 
d="M239 0h-33q-77 0 -116.5 42t-39.5 121v326q0 21 21 21h85q21 0 21 -21v-320q0 -32 13.5 -45.5t44.5 -13.5h37q69 0 69 76v303q0 21 21 21h84q22 0 22 -21v-468q0 -21 -22 -21h-84q-21 0 -21 21v33h-4q-11 -27 -39 -40.5t-59 -13.5zM218 654v-30q0 -16 6 -21.5t21 -5.5h16
q15 0 21 5.5t6 21.5v30q0 17 -5.5 22.5t-20.5 5.5h-17q-15 0 -21 -5.5t-6 -22.5zM174 607v68q0 46 50 46h58q50 0 50 -46v-68q0 -48 -50 -48h-58q-50 0 -50 48z" />
    <glyph glyph-name="Uhungarumlaut" unicode="&#x170;" horiz-adv-x="560" 
d="M237 836h65q23 0 9 -20l-71 -96q-10 -13 -25 -13h-42q-20 0 -10 21l44 89q10 19 30 19zM390 836h64q24 0 10 -20l-71 -96q-11 -13 -26 -13h-41q-21 0 -11 21l45 89q9 19 30 19zM394 643h84q22 0 22 -20v-460q0 -78 -43.5 -120.5t-121.5 -42.5h-110q-79 0 -122 42t-43 121
v459q0 21 21 21h85q21 0 21 -21v-453q0 -32 13.5 -45.5t44.5 -13.5h69q32 0 45.5 13.5t13.5 45.5v453q0 21 21 21z" />
    <glyph glyph-name="uhungarumlaut" unicode="&#x171;" horiz-adv-x="523" 
d="M236 703h65q23 0 9 -20l-71 -96q-10 -13 -25 -13h-42q-20 0 -10 21l44 89q10 19 30 19zM389 703h64q24 0 10 -20l-71 -96q-11 -13 -26 -13h-41q-21 0 -11 21l45 89q9 19 30 19zM239 0h-33q-77 0 -116.5 42t-39.5 121v326q0 21 21 21h85q21 0 21 -21v-320
q0 -32 13.5 -45.5t44.5 -13.5h37q69 0 69 76v303q0 21 21 21h84q22 0 22 -21v-468q0 -21 -22 -21h-84q-21 0 -21 21v33h-4q-11 -27 -39 -40.5t-59 -13.5z" />
    <glyph glyph-name="Uogonek" unicode="&#x172;" horiz-adv-x="560" 
d="M394 643h84q22 0 22 -20v-460q0 -78 -43.5 -120.5t-121.5 -42.5h-9l-38 -57h42q12 0 16.5 -4t4.5 -16q0 -21 -33 -33.5t-62.5 -12.5t-37.5 17.5t6 37.5l41 68h-40q-79 0 -122 42t-43 121v459q0 21 21 21h85q21 0 21 -21v-453q0 -32 13.5 -45.5t44.5 -13.5h69
q32 0 45.5 13.5t13.5 45.5v453q0 21 21 21z" />
    <glyph glyph-name="uogonek" unicode="&#x173;" horiz-adv-x="501" 
d="M362 510h84q22 0 22 -21v-468q0 -21 -22 -21h-61q-5 -8 -9.5 -17l-10.5 -21q-13 -25 -11 -25q44 0 44 5q10 1 13.5 -3t0.5 -14q-1 -21 -32.5 -32t-56.5 -11t-27.5 23.5t10.5 41.5l35 68v39h-4q-11 -27 -39 -40.5t-59 -13.5h-33q-77 0 -116.5 42t-39.5 121v326q0 21 21 21
h85q21 0 21 -21v-320q0 -32 13.5 -45.5t44.5 -13.5h37q69 0 69 76v303q0 21 21 21z" />
    <glyph glyph-name="Wcircumflex" unicode="&#x174;" horiz-adv-x="808" 
d="M518 707h-60q-13 0 -17 12l-33 66l-32 -66q-5 -12 -18 -12h-59q-15 0 -8 13l63 105q8 11 22 11h65q14 0 22 -11l62 -105q7 -13 -7 -13zM287 0h-140q-22 0 -25 21l-107 601q-3 21 21 21h104q23 0 24 -21l58 -493h7l96 496q3 18 21 18h112q19 0 22 -17l98 -497h8l57 492
q1 22 24 22h104q24 0 21 -22l-108 -600q-3 -21 -23 -21h-141q-21 0 -24 21l-90 469h-4l-91 -469q-4 -21 -24 -21z" />
    <glyph glyph-name="wcircumflex" unicode="&#x175;" horiz-adv-x="695" 
d="M457 574h-60q-13 0 -17 12l-33 66l-32 -66q-5 -12 -18 -12h-59q-15 0 -8 13l63 105q8 11 22 11h65q14 0 22 -11l62 -105q7 -13 -7 -13zM259 0h-114q-19 0 -24 21l-100 468q-4 21 15 21h96q22 0 24 -21l45 -342h8l71 342q3 21 23 21h88q21 0 25 -21l69 -342h8l46 342
q3 21 24 21h96q20 0 15 -21l-100 -468q-4 -21 -24 -21h-114q-20 0 -24 21l-61 338h-8l-60 -338q-3 -21 -24 -21z" />
    <glyph glyph-name="Ycircumflex" unicode="&#x176;" horiz-adv-x="517" 
d="M364 707h-59q-13 0 -18 12l-32 66l-33 -66q-4 -12 -17 -12h-59q-15 0 -8 13l62 105q8 11 22 11h65q14 0 22 -11l63 -105q7 -13 -8 -13zM301 0h-85q-21 0 -21 21v214l-183 386q-4 9 0.5 15.5t13.5 6.5h106q16 0 24 -21l100 -243h7l98 243q7 21 24 21h106q10 0 14.5 -6
t-0.5 -16l-183 -386v-214q0 -21 -21 -21z" />
    <glyph glyph-name="ycircumflex" unicode="&#x177;" horiz-adv-x="472" 
d="M352 574h-60q-13 0 -18 12l-32 66l-33 -66q-4 -12 -17 -12h-59q-15 0 -8 13l62 105q8 11 22 11h65q15 0 23 -11l62 -105q7 -13 -7 -13zM138 -169h-64q-20 0 -20 22v67q0 22 20 22h21q63 0 85.5 17.5t34.5 67.5h-53q-19 0 -25 21l-117 441q-6 21 15 21h89q20 0 25 -21
l86 -369h4l85 369q4 21 25 21h84q25 0 20 -22l-122 -488q-22 -83 -68 -126t-125 -43z" />
    <glyph glyph-name="Ydieresis" unicode="&#x178;" horiz-adv-x="517" 
d="M104 728v88q0 20 19 20h80q19 0 19 -19v-89q0 -21 -19 -21h-80q-19 0 -19 21zM294 728v88q0 20 19 20h80q19 0 19 -19v-89q0 -21 -19 -21h-80q-19 0 -19 21zM301 0h-85q-21 0 -21 21v214l-183 386q-4 9 0.5 15.5t13.5 6.5h106q16 0 24 -21l100 -243h7l98 243q7 21 24 21
h106q10 0 14.5 -6t-0.5 -16l-183 -386v-214q0 -21 -21 -21z" />
    <glyph glyph-name="Zacute" unicode="&#x179;" horiz-adv-x="521" 
d="M307 836h99q10 0 13 -6t-3 -14l-82 -96q-10 -13 -26 -13h-65q-21 0 -11 21l45 89q9 19 30 19zM48 21v60q0 33 13 49l265 391v4h-239q-21 0 -21 21v76q0 21 21 21h355q20 0 20 -21v-86q0 -30 -15 -52l-249 -362v-4h254q20 0 20 -19v-76q0 -23 -20 -23h-383q-21 0 -21 21z
" />
    <glyph glyph-name="zacute" unicode="&#x17a;" horiz-adv-x="449" 
d="M269 703h99q10 0 13 -6t-3 -14l-81 -96q-13 -13 -29 -13h-63q-21 0 -11 21l45 89q9 19 30 19zM31 21v33q0 34 19 58l212 285v4h-201q-21 0 -21 22v66q0 21 21 21h326q21 0 21 -21v-60q0 -32 -16 -52l-196 -264v-4h202q21 0 21 -22v-66q0 -21 -21 -21h-346q-21 0 -21 21z
" />
    <glyph glyph-name="Zdotaccent" unicode="&#x17b;" horiz-adv-x="521" 
d="M221 729v94q0 20 20 20h87q20 0 20 -19v-95q0 -21 -20 -21h-87q-20 0 -20 21zM48 21v60q0 33 13 49l265 391v4h-239q-21 0 -21 21v76q0 21 21 21h355q20 0 20 -21v-86q0 -30 -15 -52l-249 -362v-4h254q20 0 20 -19v-76q0 -23 -20 -23h-383q-21 0 -21 21z" />
    <glyph glyph-name="zdotaccent" unicode="&#x17c;" horiz-adv-x="449" 
d="M183 591v95q0 20 20 20h88q20 0 20 -19v-96q0 -20 -20 -20h-88q-20 0 -20 20zM31 21v33q0 34 19 58l212 285v4h-201q-21 0 -21 22v66q0 21 21 21h326q21 0 21 -21v-60q0 -32 -16 -52l-196 -264v-4h202q21 0 21 -22v-66q0 -21 -21 -21h-346q-21 0 -21 21z" />
    <glyph glyph-name="Zcaron" unicode="&#x17d;" horiz-adv-x="521" 
d="M248 707q-14 0 -22 11l-62 105q-7 13 8 13h59q13 0 17 -12l33 -66l32 66q5 12 18 12h59q15 0 8 -13l-63 -105q-8 -11 -22 -11h-65zM48 21v60q0 33 13 49l265 391v4h-239q-21 0 -21 21v76q0 21 21 21h355q20 0 20 -21v-86q0 -30 -15 -52l-249 -362v-4h254q20 0 20 -19v-76
q0 -23 -20 -23h-383q-21 0 -21 21z" />
    <glyph glyph-name="zcaron" unicode="&#x17e;" horiz-adv-x="449" 
d="M211 574q-14 0 -22 11l-62 105q-7 13 8 13h59q13 0 17 -12l33 -66l32 66q5 12 18 12h59q15 0 8 -13l-63 -105q-8 -11 -22 -11h-65zM31 21v33q0 34 19 58l212 285v4h-201q-21 0 -21 22v66q0 21 21 21h326q21 0 21 -21v-60q0 -32 -16 -52l-196 -264v-4h202q21 0 21 -22v-66
q0 -21 -21 -21h-346q-21 0 -21 21z" />
    <glyph glyph-name="florin" unicode="&#x192;" horiz-adv-x="526" 
d="M98 -133h-62q-24 0 -24 20v69q0 21 22 21h50q31 0 45.5 13.5t21.5 45.5l54 250q3 12 -10 12h-58q-24 0 -24 21v68q0 21 23 21h83q11 0 14 11l26 121q19 89 63.5 126t124.5 37h43q24 0 24 -20v-68q0 -22 -21 -22h-41q-31 0 -45.5 -13.5t-21.5 -45.5l-25 -115q-3 -11 9 -11
h73q25 0 25 -21v-68q0 -21 -19 -21h-102q-11 0 -14 -12l-59 -273q-16 -75 -57 -110.5t-118 -35.5z" />
    <glyph glyph-name="AEacute" unicode="&#x1fc;" horiz-adv-x="781" 
d="M487 836h99q11 0 14 -6t-4 -14l-81 -96q-11 -13 -26 -13h-66q-20 0 -10 21l45 89q10 19 29 19zM112 0h-92q-22 0 -13 22l277 600q10 21 33 21h399q20 0 20 -21v-68q0 -21 -20 -21h-209q-12 0 -12 -11v-130q0 -11 12 -11h171q21 0 21 -21v-68q0 -21 -21 -21h-171
q-12 0 -12 -11v-139q0 -11 12 -11h209q20 0 20 -21v-68q0 -21 -20 -21h-327q-21 0 -21 21v111h-178l-51 -111q-8 -21 -27 -21zM368 243v279h-4l-127 -279h131z" />
    <glyph glyph-name="aeacute" unicode="&#x1fd;" horiz-adv-x="755" 
d="M414 703h99q11 0 14 -6t-4 -14l-81 -96q-11 -13 -28 -13h-64q-20 0 -10 21l45 89q9 19 29 19zM450 183v-14q0 -32 13.5 -45.5t45.5 -13.5h184q21 0 21 -21v-69q0 -11 -4.5 -15.5t-16.5 -4.5h-205q-84 0 -125 57q-33 -57 -141 -57h-16q-77 0 -121 40.5t-44 115.5v11
q0 155 165 155h110q7 0 7 8v13q0 31 -14 44t-44 13h-163q-20 0 -20 21v68q0 21 20 21h159q95 0 126 -55q31 55 119 55h44q78 0 121 -42.5t43 -120.5v-132q0 -21 -21 -21h-231q-12 0 -12 -11zM604 291v50q0 32 -13.5 45.5t-45.5 13.5h-35q-32 0 -46 -13.5t-14 -44.5v-51
q0 -11 11 -11h131q12 0 12 11zM324 178v43q0 11 -12 11h-85q-38 0 -52.5 -13.5t-14.5 -45.5v-9q0 -34 15 -48t52 -14h28q38 0 53.5 18t15.5 58z" />
    <glyph glyph-name="Oslashacute" unicode="&#x1fe;" horiz-adv-x="580" 
d="M515 480v-317q0 -78 -43 -120.5t-121 -42.5h-121q-63 0 -105 28l-17 -24q-12 -16 -31 -5l-21 16q-17 12 -5 30l28 40q-14 34 -14 78v317q0 79 43 121t122 42h121q64 0 105 -29l17 24q13 17 31 5l21 -15q17 -12 6 -30l-30 -42q14 -33 14 -76zM192 474v-231l190 267
q-12 23 -52 23h-80q-32 0 -45 -13.5t-13 -45.5zM388 169v228l-189 -265q12 -22 51 -22h80q32 0 45 13.5t13 45.5zM313 707h-65q-21 0 -10 21l44 89q11 19 30 19h99q10 0 13 -6t-3 -14l-81 -96q-11 -13 -27 -13z" />
    <glyph glyph-name="oslashacute" unicode="&#x1ff;" horiz-adv-x="520" 
d="M470 347v-184q0 -78 -43.5 -120.5t-121.5 -42.5h-89q-78 0 -122 42l-27 -27q-18 -15 -30 0l-15 15q-16 14 -1 31l39 39q-9 27 -9 63v184q0 79 43 121t122 42h89q79 0 122 -43l27 27q15 16 30 1l16 -15q16 -16 0 -31l-39 -39q9 -28 9 -63zM178 341v-123l158 158
q-11 24 -52 24h-48q-32 0 -45 -13.5t-13 -45.5zM342 169v122l-157 -158q11 -23 51 -23h48q32 0 45 13.5t13 45.5zM289 574h-64q-20 0 -10 21l45 89q10 19 30 19h98q11 0 14 -6t-4 -14l-81 -96q-11 -13 -28 -13z" />
    <glyph glyph-name="uni0218" unicode="&#x218;" horiz-adv-x="539" 
d="M49 164v20q0 21 21 21h85q21 0 21 -21v-8q0 -38 15 -52t55 -14h47q39 0 54.5 15t15.5 56v12q0 29 -23.5 44.5t-58.5 18.5t-75.5 11.5t-75.5 22t-58.5 53t-23.5 101.5v35q0 78 44 121t122 43h100q79 0 123 -43t44 -121v-19q0 -21 -21 -21h-85q-21 0 -21 21v6q0 39 -15 53
t-55 14h-39q-41 0 -55.5 -15.5t-14.5 -60.5v-19q0 -47 82 -54q85 -7 151 -34q35 -15 58.5 -53.5t23.5 -98.5v-34q0 -78 -44 -121t-122 -43h-109q-78 0 -122 43t-44 121zM327 -51v-47q0 -34 -22 -62l-53 -68q-8 -10 -19 -10q-17 0 -17 20v166q0 20 19 20h73q19 0 19 -19z" />
    <glyph glyph-name="uni0219" unicode="&#x219;" horiz-adv-x="440" 
d="M278 -51v-47q0 -35 -23 -62l-53 -68q-8 -10 -18 -10q-17 0 -17 20v166q0 20 19 20h73q19 0 19 -19zM248 0h-190q-20 0 -20 21v64q0 11 4 15.5t16 4.5h167q49 0 49 30v5q0 24 -41 46l-99 55q-51 26 -75 56t-24 77q0 70 37 103t116 33h167q20 0 20 -21v-65q0 -11 -4 -15.5
t-16 -4.5h-139q-49 0 -49 -25v-5q0 -22 43 -45l101 -60q52 -28 73 -57.5t21 -77.5q0 -134 -157 -134z" />
    <glyph glyph-name="circumflex" unicode="&#x2c6;" horiz-adv-x="345" 
d="M282 574h-60q-13 0 -18 12l-32 66l-32 -66q-5 -12 -18 -12h-59q-15 0 -8 13l62 105q8 11 23 11h64q15 0 23 -11l62 -105q7 -13 -7 -13z" />
    <glyph glyph-name="caron" unicode="&#x2c7;" horiz-adv-x="345" 
d="M140 574q-15 0 -23 11l-62 105q-7 13 8 13h59q13 0 18 -12l32 -66l32 66q5 12 18 12h60q14 0 7 -13l-62 -105q-8 -11 -23 -11h-64z" />
    <glyph glyph-name="uni02C9" unicode="&#x2c9;" horiz-adv-x="345" 
d="M271 595h-197q-21 0 -21 22v44q0 21 21 21h197q21 0 21 -21v-44q0 -22 -21 -22z" />
    <glyph glyph-name="breve" unicode="&#x2d8;" horiz-adv-x="338" 
d="M53 679v11q0 13 14 13h50q13 0 13 -13v-9q0 -24 8.5 -33.5t26.5 -9.5h7q35 0 35 43v9q0 13 14 13h49q14 0 14 -13v-11q0 -51 -26 -78t-72 -27h-35q-46 0 -72 27t-26 78z" />
    <glyph glyph-name="dotaccent" unicode="&#x2d9;" horiz-adv-x="234" 
d="M53 591v95q0 20 20 20h87q20 0 20 -19v-96q0 -20 -20 -20h-87q-20 0 -20 20z" />
    <glyph glyph-name="ring" unicode="&#x2da;" horiz-adv-x="272" 
d="M97 654v-30q0 -15 6.5 -21t21.5 -6h15q15 0 21 5.5t6 21.5v30q0 17 -5.5 22.5t-20.5 5.5h-16q-16 0 -22 -5.5t-6 -22.5zM54 607v68q0 46 49 46h58q50 0 50 -46v-68q0 -48 -50 -48h-58q-49 0 -49 48z" />
    <glyph glyph-name="ogonek" unicode="&#x2db;" horiz-adv-x="243" 
d="M125 -63q44 0 44 5q10 1 13.5 -3t0.5 -14q-1 -21 -32.5 -32t-56.5 -11t-27.5 23.5t10.5 41.5l38 73l45 -15q-8 -8 -22.5 -38t-12.5 -30z" />
    <glyph glyph-name="tilde" unicode="&#x2dc;" horiz-adv-x="352" 
d="M53 650v38q0 12 10 12h40q10 0 10 -12v-11q0 -21 3.5 -28.5t11 -7.5t33 31.5t60.5 31.5q72 0 72 -76v-37q0 -13 -10 -13h-40q-10 0 -10 13v9q0 23 -3.5 30t-11 7t-11.5 -4t-19 -24q-26 -35 -63 -35q-72 0 -72 76z" />
    <glyph glyph-name="hungarumlaut" unicode="&#x2dd;" horiz-adv-x="416" 
d="M132 703h64q23 0 10 -20l-72 -96q-10 -13 -25 -13h-41q-21 0 -11 21l45 89q9 19 30 19zM284 703h64q23 0 10 -20l-72 -96q-10 -13 -25 -13h-41q-21 0 -11 21l45 89q9 19 30 19z" />
    <glyph glyph-name="Mu" unicode="&#x39c;" horiz-adv-x="563" 
d="M200 -112q0 -21 -21 -21h-85q-21 0 -21 21v601q0 21 21 21h85q21 0 21 -21v-320q0 -32 13.5 -45.5t44.5 -13.5h37q69 0 69 76v303q0 21 21 21h84q22 0 22 -21v-468q0 -21 -22 -21h-84q-21 0 -21 21v33h-4q-11 -27 -39 -40.5t-71.5 -13.5t-49.5 7v-119z" />
    <glyph glyph-name="Pi" unicode="&#x3a0;" horiz-adv-x="663" 
d="M240 0h-85q-21 0 -21 21v503q0 8 -11 8h-70q-21 0 -21 22v68q0 21 21 21h558q21 0 21 -21v-68q0 -22 -21 -22h-70q-12 0 -12 -11v-500q0 -21 -21 -21h-85q-21 0 -21 21v500q0 11 -11 11h-118q-12 0 -12 -11v-500q0 -21 -21 -21z" />
    <glyph glyph-name="Sigma" unicode="&#x3a3;" horiz-adv-x="494" 
d="M64 554v68q0 21 21 21h335q21 0 21 -21v-76q0 -22 -21 -22h-209v-4l130 -185q14 -22 0 -42l-130 -171v-4h210q21 0 21 -21v-76q0 -21 -21 -21h-336q-20 0 -20 21v67q0 31 15 54l129 170v4l-130 185q-15 22 -15 53z" />
    <glyph glyph-name="uni0901" unicode="&#x901;" horiz-adv-x="0" 
d="M-39 698h-137q-57 0 -87.5 33.5t-30.5 94.5v8q0 34 29 34h49q26 0 26 -31v-10q0 -34 36 -34h93q35 0 35 34v10q0 31 29 31h46q29 0 29 -34v-7q0 -129 -117 -129zM-60 908v-50q0 -23 -22 -23h-50q-22 0 -22 23v50q0 22 22 22h50q22 0 22 -22z" />
    <glyph glyph-name="uni0902" unicode="&#x902;" horiz-adv-x="0" 
d="M-60 816v-72q0 -23 -22 -23h-81q-22 0 -22 23v72q0 22 22 22h81q22 0 22 -22z" />
    <glyph glyph-name="uni0903" unicode="&#x903;" horiz-adv-x="253" 
d="M190 432v-70q0 -29 -28 -29h-68q-28 0 -28 29v70q0 28 28 28h68q28 0 28 -28zM190 158v-69q0 -29 -28 -29h-68q-28 0 -28 29v69q0 28 28 28h68q28 0 28 -28z" />
    <glyph glyph-name="uni0905" unicode="&#x905;" horiz-adv-x="609" 
d="M477 623h138q24 0 24 -23v-57q0 -24 -24 -24h-54q-12 0 -12 -14v-482q0 -23 -24 -23h-69q-24 0 -24 23v161q0 14 -12 14h-78q-1 -79 -46 -121t-128 -42h-108q-24 0 -24 24v57q0 23 24 23h99q36 0 52.5 14.5t16.5 47.5v22q0 33 -16 47t-53 14h-45q-24 0 -24 24v55
q0 25 23 25h46q36 0 52.5 14.5t16.5 47.5v8q0 33 -16 47t-53 14h-69q-24 0 -24 24v57q0 23 24 23h85q86 0 126.5 -42.5t40.5 -127.5v-9q0 -78 -56 -106v-4q29 -10 43 -35h91q12 0 12 14v264q0 20 12 33t33 13z" />
    <glyph glyph-name="uni0906" unicode="&#x906;" horiz-adv-x="846" 
d="M477 623h375q24 0 24 -23v-57q0 -24 -24 -24h-54q-12 0 -12 -14v-482q0 -23 -24 -23h-69q-24 0 -24 23v482q0 14 -12 14h-96q-12 0 -12 -14v-482q0 -23 -24 -23h-69q-24 0 -24 23v161q0 14 -12 14h-78q-1 -79 -46 -121t-128 -42h-108q-24 0 -24 24v57q0 23 24 23h99
q36 0 52.5 14.5t16.5 47.5v22q0 33 -16 47t-53 14h-45q-24 0 -24 24v55q0 25 23 25h46q36 0 52.5 14.5t16.5 47.5v8q0 33 -16 47t-53 14h-69q-24 0 -24 24v57q0 23 24 23h85q86 0 126.5 -42.5t40.5 -127.5v-9q0 -78 -56 -106v-4q29 -10 43 -35h91q12 0 12 14v264q0 20 12 33
t33 13z" />
    <glyph glyph-name="uni0907" unicode="&#x907;" horiz-adv-x="467" 
d="M277 198h-93q-135 0 -135 128v15q0 60 36.5 91t98.5 31h85q12 0 12 14v28q0 14 -12 14h-275q-24 0 -24 23v58q0 23 24 23h479q24 0 24 -23v-58q0 -23 -24 -23h-64q-12 0 -12 -14v-90q0 -55 -59 -55h-145q-17 0 -23.5 -7.5t-6.5 -24.5v-4q0 -27 30 -27h101q61 0 95.5 -30
t34.5 -88v-48q0 -60 -35 -95.5t-95 -35.5h-69q-48 0 -62 28h-4v-69q0 -23 -24 -23h-67q-24 0 -24 23v188q0 23 24 23h67q24 0 24 -23v-4q0 -42 45 -42h73q17 0 23.5 7.5t6.5 24.5v38q0 27 -30 27z" />
    <glyph glyph-name="uni0908" unicode="&#x908;" horiz-adv-x="467" 
d="M320 701v-39q0 -23 9 -31t36 -8h108q24 0 24 -23v-58q0 -23 -24 -23h-64q-12 0 -12 -12v-92q0 -55 -59 -55h-145q-17 0 -23.5 -7.5t-6.5 -24.5v-4q0 -27 30 -27h101q61 0 95.5 -30t34.5 -88v-48q0 -60 -35 -95.5t-95 -35.5h-69q-48 0 -62 28h-4v-69q0 -23 -24 -23h-67
q-24 0 -24 23v188q0 23 24 23h67q24 0 24 -23v-4q0 -42 45 -42h73q17 0 23.5 7.5t6.5 24.5v38q0 27 -30 27h-93q-135 0 -135 128v15q0 60 36.5 91t98.5 31h85q12 0 12 14v30q0 12 -12 12h-275q-24 0 -24 23v58q0 23 24 23h230v4q-21 9 -21 43v35q0 75 47.5 119.5t122.5 44.5
h61q24 0 24 -24v-56q0 -24 -24 -24h-53q-61 0 -61 -64z" />
    <glyph glyph-name="uni0909" unicode="&#x909;" horiz-adv-x="461" 
d="M416 218v-42q0 -84 -43.5 -130t-129.5 -46h-41q-84 0 -130 46t-46 130v25q0 29 25 29h68q22 0 22 -29v-26q0 -71 76 -71h14q36 0 53 18.5t17 59.5v8q0 41 -15 57t-55 16h-32q-24 0 -24 24v55q0 25 23 25h35q40 0 53 16t13 42v35q0 59 -67 59h-238q-24 0 -24 24v57
q0 23 24 23h473q24 0 24 -23v-57q0 -24 -24 -24h-84v-4q31 -16 31 -61v-40q0 -78 -60 -98v-4q62 -21 62 -94z" />
    <glyph glyph-name="uni090A" unicode="&#x90a;" horiz-adv-x="655" 
d="M-6 623h667q24 0 24 -23v-57q0 -24 -24 -24h-278v-4q31 -16 31 -61v-40q0 -78 -60 -98v-4h152q59 0 95 -32t36 -97v-59q0 -64 -35.5 -94t-95.5 -30h-41q-24 0 -24 24v57q0 23 24 23h9q29 0 39 10.5t10 39.5v4q0 29 -10 39.5t-39 10.5h-58v-27q0 -84 -44 -132.5
t-129 -48.5h-41q-84 0 -130 46t-46 130v25q0 29 25 29h68q22 0 22 -29v-26q0 -71 76 -71h14q36 0 53 19t17 60v7q0 41 -15 57t-55 16h-32q-24 0 -24 24v55q0 25 23 25h35q40 0 53 16t13 42v35q0 59 -67 59h-238q-24 0 -24 24v57q0 23 24 23z" />
    <glyph glyph-name="uni090B" unicode="&#x90b;" horiz-adv-x="790" 
d="M-7 623h803q24 0 24 -23v-57q0 -24 -24 -24h-334q-12 0 -12 -14v-150l78 62q17 13 34 13h144q24 0 24 -23v-186q0 -16 -8 -21.5t-26 -5.5h-25q-16 0 -25.5 -10t-9.5 -25v-29q0 -32 39 -32h40q31 0 31 -28v-43q0 -16 -8 -21.5t-26 -5.5h-51q-139 0 -139 118v47
q0 46 22.5 76.5t66.5 36.5q12 1 12 14v60l-173 -137v-192q0 -23 -24 -23h-69q-24 0 -24 23v104l-141 -114q-17 -13 -36 -13h-96q-18 0 -18 18q0 14 13 24l185 147l89 63v6q0 71 -75 71h-26q-71 0 -71 -70v-15q0 -24 -23 -24h-68q-24 0 -24 24v21q0 81 44.5 126t126.5 45h15
q73 0 101 -46h4v115q0 14 -12 14h-328q-23 0 -23 24v57q0 23 23 23z" />
    <glyph glyph-name="uni090C" unicode="&#x90c;" horiz-adv-x="640" 
d="M692 -148q0 -16 -22 -32q-50 -37 -131 -37t-126 42t-45 119q0 113 95 143v186q0 35 -11 48t-37.5 13t-38 -14.5t-11.5 -51.5v-52q0 -24 -24 -24h-64q-24 0 -24 24v61q0 32 -11.5 45.5t-36.5 13.5q-51 0 -51 -72v-63q0 -72 73 -72h6q24 0 24 -23v-57q0 -24 -24 -24h-24
q-82 0 -126 44t-44 126v77q0 81 42.5 126t121 45t102.5 -57h4q20 55 90 55q45 0 60 -24h4v88q0 13 -10 14h-459q-24 0 -24 24v57q0 23 24 23h652q24 0 24 -23v-57q0 -24 -24 -24h-54q-12 0 -12 -14v-482q0 -25 -25 -25h-30q-26 0 -36.5 -14t-10.5 -45q0 -56 58 -56
q50 0 87 30q9 7 19 7t17 -12l26 -40q7 -10 7 -16z" />
    <glyph glyph-name="uni090D" unicode="&#x90d;" horiz-adv-x="518" 
d="M-6 623h532q24 0 24 -24v-57q0 -23 -24 -23h-41q-13 0 -13 -13v-85q0 -80 -44.5 -122t-126.5 -42h-33q-24 0 -24 24v55q0 23 24 23h16q38 0 55.5 13.5t17.5 48.5v85q0 13 -13 13h-156q-13 0 -13 -13v-278q0 -94 110 -94h128q24 0 24 -24v-57q0 -23 -24 -25h-153
q-94 0 -147 55t-53 140v283q0 13 -13 13h-53q-24 0 -24 23v57q0 24 24 24zM314 698h-107q-57 0 -87.5 33.5t-30.5 94.5v8q0 34 29 34h49q26 0 26 -31v-10q0 -34 36 -34h63q36 0 36 34v10q0 31 26 31h49q29 0 29 -34v-8q0 -61 -30.5 -94.5t-87.5 -33.5z" />
    <glyph glyph-name="uni090E" unicode="&#x90e;" horiz-adv-x="520" 
d="M495 623h31q24 0 24 -24v-57q0 -23 -24 -23h-41q-13 0 -13 -13v-85q0 -80 -44.5 -122t-126.5 -42h-33q-24 0 -24 24v55q0 23 24 23h16q38 0 55.5 13.5t17.5 48.5v85q0 13 -13 13h-156q-13 0 -13 -13v-278q0 -94 110 -94h128q24 0 24 -24v-57q0 -23 -24 -25h-153
q-94 0 -147 55t-53 140v283q0 13 -13 13h-53q-24 0 -24 23v57q0 24 24 24h360q12 0 12 11q0 12 -7.5 16.5t-11 6t-9.5 4.5q-16 8 -25 12q-7 3 -64 31q-93 46 -93 130v36q0 23 24 23h66q24 0 24 -23v-26q0 -23 12.5 -36t40.5 -26q83 -38 97.5 -46.5t31.5 -22.5q31 -24 31 -76
q0 -14 12 -14z" />
    <glyph glyph-name="uni090F" unicode="&#x90f;" horiz-adv-x="520" 
d="M-6 623h532q24 0 24 -24v-57q0 -23 -24 -23h-41q-13 0 -13 -13v-85q0 -80 -44.5 -122t-126.5 -42h-33q-24 0 -24 24v55q0 23 24 23h16q38 0 55.5 13.5t17.5 48.5v85q0 13 -13 13h-156q-13 0 -13 -13v-278q0 -94 110 -94h128q24 0 24 -24v-57q0 -23 -24 -25h-153
q-94 0 -147 55t-53 140v283q0 13 -13 13h-53q-24 0 -24 23v57q0 24 24 24z" />
    <glyph glyph-name="uni0910" unicode="&#x910;" horiz-adv-x="520" 
d="M470 623h56q24 0 24 -24v-57q0 -23 -24 -23h-41q-13 0 -13 -13v-85q0 -80 -44.5 -122t-126.5 -42h-33q-24 0 -24 24v55q0 23 24 23h16q38 0 55.5 13.5t17.5 48.5v85q0 13 -13 13h-156q-13 0 -13 -13v-278q0 -94 110 -94h128q24 0 24 -24v-57q0 -23 -24 -25h-153
q-94 0 -147 55t-53 140v283q0 13 -13 13h-53q-24 0 -24 23v57q0 24 24 24h362q-74 73 -127 154l-52 79q-6 9 -6 18q0 19 19 19h81q21 0 32 -18q144 -240 147 -244q7 -8 20 -8z" />
    <glyph glyph-name="uni0911" unicode="&#x911;" horiz-adv-x="846" 
d="M477 623h375q24 0 24 -23v-57q0 -24 -24 -24h-54q-12 0 -12 -14v-482q0 -23 -24 -23h-69q-24 0 -24 23v482q0 14 -12 14h-96q-12 0 -12 -14v-482q0 -23 -24 -23h-69q-24 0 -24 23v161q0 14 -12 14h-78q-1 -79 -46 -121t-128 -42h-108q-24 0 -24 24v57q0 23 24 23h99
q36 0 52.5 14.5t16.5 47.5v22q0 33 -16 47t-53 14h-45q-24 0 -24 24v55q0 25 23 25h46q36 0 52.5 14.5t16.5 47.5v8q0 33 -16 47t-53 14h-69q-24 0 -24 24v57q0 23 24 23h85q86 0 126.5 -42.5t40.5 -127.5v-9q0 -78 -56 -106v-4q29 -10 43 -35h91q12 0 12 14v264q0 20 12 33
t33 13zM674 698h-107q-57 0 -87.5 33.5t-30.5 94.5v8q0 34 29 34h49q26 0 26 -31v-10q0 -34 36 -34h63q35 0 35 34v10q0 31 29 31h46q29 0 29 -34v-3q0 -64 -29.5 -98.5t-87.5 -34.5z" />
    <glyph glyph-name="uni0912" unicode="&#x912;" horiz-adv-x="838" 
d="M801 623h43q24 0 24 -23v-57q0 -24 -24 -24h-54q-12 0 -12 -14v-482q0 -23 -24 -23h-69q-24 0 -24 23v482q0 14 -12 14h-88q-12 0 -12 -14v-482q0 -23 -24 -23h-69q-24 0 -24 23v161q0 14 -12 14h-78q-1 -79 -46 -121t-128 -42h-108q-24 0 -24 24v57q0 23 24 23h99
q36 0 52.5 14.5t16.5 47.5v22q0 33 -16 47t-53 14h-45q-24 0 -24 24v55q0 25 23 25h46q36 0 52.5 14.5t16.5 47.5v8q0 33 -16 47t-53 14h-69q-24 0 -24 24v57q0 23 24 23h85q86 0 126.5 -42.5t40.5 -127.5v-9q0 -78 -56 -106v-4q29 -10 43 -35h91q12 0 12 14v264q0 20 12 33
t33 13h183q12 0 12 11q0 12 -7.5 16.5t-11 6t-9.5 4.5q-16 8 -25 12q-7 3 -64 31q-93 46 -93 130v36q0 23 24 23h66q24 0 24 -23v-26q0 -23 12.5 -36t40.5 -26q83 -38 97.5 -46.5t31.5 -22.5q31 -24 31 -76q0 -14 12 -14z" />
    <glyph glyph-name="uni0913" unicode="&#x913;" horiz-adv-x="846" 
d="M787 623h65q24 0 24 -23v-57q0 -24 -24 -24h-54q-12 0 -12 -14v-482q0 -23 -24 -23h-69q-24 0 -24 23v482q0 14 -12 14h-96q-12 0 -12 -14v-482q0 -23 -24 -23h-69q-24 0 -24 23v161q0 14 -12 14h-78q-1 -79 -46 -121t-128 -42h-108q-24 0 -24 24v57q0 23 24 23h99
q36 0 52.5 14.5t16.5 47.5v22q0 33 -16 47t-53 14h-45q-24 0 -24 24v55q0 25 23 25h46q36 0 52.5 14.5t16.5 47.5v8q0 33 -16 47t-53 14h-69q-24 0 -24 24v57q0 23 24 23h85q86 0 126.5 -42.5t40.5 -127.5v-9q0 -78 -56 -106v-4q29 -10 43 -35h91q12 0 12 14v264q0 20 12 33
t33 13h194v4q-34 34 -38 38.5t-18 20t-22 26.5q-29 37 -99 144q-6 9 -6 18q0 19 19 19h81q21 0 32 -18q144 -240 147 -244q7 -8 20 -8z" />
    <glyph glyph-name="uni0914" unicode="&#x914;" horiz-adv-x="846" 
d="M798 623h54q24 0 24 -23v-57q0 -24 -24 -24h-54q-12 0 -12 -14v-482q0 -23 -24 -23h-69q-24 0 -24 23v482q0 14 -12 14h-96q-12 0 -12 -14v-482q0 -23 -24 -23h-69q-24 0 -24 23v161q0 14 -12 14h-78q-1 -79 -46 -121t-128 -42h-108q-24 0 -24 24v57q0 23 24 23h99
q36 0 52.5 14.5t16.5 47.5v22q0 33 -16 47t-53 14h-45q-24 0 -24 24v55q0 25 23 25h46q36 0 52.5 14.5t16.5 47.5v8q0 33 -16 47t-53 14h-69q-24 0 -24 24v57q0 23 24 23h85q86 0 126.5 -42.5t40.5 -127.5v-9q0 -78 -56 -106v-4q29 -10 43 -35h91q12 0 12 14v264q0 20 12 33
t33 13h183v4q-70 55 -138 150l-55 79q-6 9 -6 18q0 19 20 19h65q32 0 43 -20l133 -238l4 2q-52 116 -52 219v14q0 23 24 23h64q24 0 24 -23v-233q0 -14 12 -14z" />
    <glyph glyph-name="uni0915" unicode="&#x915;" horiz-adv-x="731" 
d="M422 505v-82h4q23 39 86 39h19q81 0 125.5 -44.5t44.5 -125.5v-42q-1 -80 -44.5 -125t-125.5 -45h-37q-24 0 -24 24v57q0 23 24 23h19q73 0 73 72v30q0 72 -77 72h-23q-64 0 -64 -63v-271q0 -24 -24 -24h-67q-23 0 -23 24v95h-4q-23 -39 -86 -39h-19q-81 0 -125.5 44.5
t-44.5 125.5v42q1 80 44.5 125t125.5 45h37q24 0 24 -24v-57q0 -23 -24 -23h-19q-73 0 -73 -72v-30q0 -72 77 -72h23q64 0 64 63v258q0 14 -12 14h-302q-24 0 -24 24v57q0 23 24 23h743q24 0 24 -23v-57q0 -24 -24 -24h-303q-12 0 -12 -14z" />
    <glyph glyph-name="uni0916" unicode="&#x916;" horiz-adv-x="726" 
d="M551 138h-4q-20 -32 -74 -35h-20q-72 0 -108 42t-36 114v47q0 68 40.5 108.5t118.5 40.5h19q25 0 25 -24v-56q0 -22 -25 -22h-7q-34 0 -46 -13.5t-12 -49.5v-23q0 -37 13.5 -51t48.5 -14h7q36 0 48 18t12 52v233q0 14 -12 14h-243q-12 0 -12 -14v-139q0 -59 -32.5 -95
t-85.5 -36h-4l124 -196q6 -8 6 -17q0 -22 -21 -22h-77q-13 0 -21 13l-114 185l-29 38v72q0 13 8.5 21t21.5 8h74q35 0 35 36v132q0 13 -10 14h-165q-24 0 -24 24v57q0 23 24 23h738q24 0 24 -23v-57q0 -24 -24 -24h-54q-12 0 -12 -14v-482q0 -23 -24 -23h-67q-24 0 -24 23
v115z" />
    <glyph glyph-name="uni0917" unicode="&#x917;" horiz-adv-x="523" 
d="M-6 623h535q24 0 24 -23v-57q0 -24 -24 -24h-54q-12 0 -12 -14v-482q0 -23 -24 -23h-69q-24 0 -24 23v482q0 13 -10 14h-83q-12 0 -12 -14v-149q0 -83 -43 -127t-124 -44h-25q-24 0 -24 24v59q0 24 24 24h5q37 0 53.5 16.5t16.5 52.5v144q0 13 -10 14h-120q-24 0 -24 24
v57q0 23 24 23z" />
    <glyph glyph-name="uni0918" unicode="&#x918;" horiz-adv-x="541" 
d="M40 425v48q0 29 24 42v4h-70q-24 0 -24 25v56q0 23 24 23h553q24 0 24 -23v-57q0 -24 -24 -24h-54q-12 0 -12 -14v-482q0 -23 -24 -23h-69q-24 0 -24 23v94h-4q-22 -45 -86 -45h-83q-73 0 -112 39.5t-39 113.5v28q0 68 54 87v4q-54 18 -54 81zM352 519h-166
q-31 0 -31 -36v-50q0 -35 36 -35h62q24 0 24 -24v-57q0 -23 -24 -23h-62q-16 0 -26 -10t-10 -28v-20q0 -34 11.5 -46t43.5 -12h55q99 1 99 89v238q0 14 -12 14z" />
    <glyph glyph-name="uni0919" unicode="&#x919;" horiz-adv-x="544" 
d="M529 359v-65q0 -23 -22 -23h-70q-22 0 -22 23v65q0 22 22 22h70q22 0 22 -22zM-6 623h556q24 0 24 -23v-58q0 -23 -24 -23h-150q-12 0 -12 -14v-90q0 -55 -59 -55h-139q-17 0 -24 -6t-7 -26v-4q0 -21 7 -27t24 -6h95q61 0 95.5 -30t34.5 -88v-44q0 -60 -35 -94.5
t-95 -34.5h-85q-77 0 -118.5 32t-41.5 111v4q0 29 25 29h62q22 0 22 -29v-4q0 -35 27 -40q11 -2 36 -2h54q31 0 31 37v21q0 21 -7.5 29.5t-23.5 8.5h-86q-71 0 -103 27.5t-32 90.5v26q0 60 36.5 91t98.5 31h80q12 0 12 14v28q0 14 -11 14h-267q-24 0 -24 23v58q0 23 24 23z
" />
    <glyph glyph-name="uni091A" unicode="&#x91a;" horiz-adv-x="591" 
d="M134 349h-87q-24 0 -24 23v57q0 24 24 24h280q24 0 24 -24v-57q0 -23 -24 -23h-50q-66 0 -66 -71v-26q0 -69 72 -69h50q39 0 59.5 22.5t20.5 62.5v237q0 14 -12 14h-407q-24 0 -24 24v57q0 23 24 23h603q24 0 24 -23v-57q0 -24 -24 -24h-54q-12 0 -12 -14v-481
q0 -24 -24 -24h-71q-23 0 -23 24v103h-4q-24 -48 -97 -48h-49q-81 0 -124 42.5t-43 123.5v21q0 63 38 79v4z" />
    <glyph glyph-name="uni091B" unicode="&#x91b;" horiz-adv-x="553" 
d="M-6 623h565q24 0 24 -23v-56q0 -24 -24 -25h-43q-14 0 -14 -12v-43q0 -51 -37 -79q44 -31 44 -108v-86q0 -63 -39 -108.5t-116 -45.5h-133q-78 0 -123.5 38.5t-45.5 109.5v30q0 74 55 92v4q-26 4 -40.5 23.5t-14.5 46.5v86q0 36 28 48v4h-86q-24 1 -24 25v56q0 23 24 23z
M396 208v71q0 11 -7 18t-19 7h-32q-24 0 -24 24v58q0 22 24 22h39q5 17 5 33v65q0 12 -13 13h-153q-48 0 -48 -49v-71q0 -36 37 -36h32q24 0 24 -24v-56q0 -22 -24 -22h-22q-47 0 -47 -47v-16q0 -31 15 -43t51 -12h94q38 0 53 14t15 51z" />
    <glyph glyph-name="uni091C" unicode="&#x91c;" horiz-adv-x="561" 
d="M265 331v-4q33 -13 33 -54v-66q0 -74 -37.5 -117.5t-107.5 -43.5h-105q-24 0 -24 23v57q0 24 24 24h66q47 0 60 21q9 16 9 47v47q0 66 -70 66h-26q-24 0 -24 23v64q0 21 23 21h286q12 0 12 14v52q0 13 -10 14h-380q-24 0 -24 24v57q0 23 24 23h573q24 0 24 -23v-57
q0 -24 -24 -24h-54q-12 0 -12 -14v-482q0 -23 -24 -23h-69q-24 0 -24 23v294q0 14 -12 14h-107z" />
    <glyph glyph-name="uni091D" unicode="&#x91d;" horiz-adv-x="645" 
d="M457 519h-85q-12 0 -12 -14v-90q0 -55 -59 -55h-108q-17 0 -23.5 -7.5t-6.5 -24.5v-8q0 -27 30 -27h263q12 0 12 14v198q0 14 -11 14zM386 192l1 -17v-44q0 -60 -35 -95.5t-95 -35.5h-32q-48 0 -62 28h-4v-69q0 -23 -24 -23h-67q-24 0 -24 23v188q0 23 24 23h67
q24 0 24 -23v-4q0 -42 45 -42h36q34 0 34 38v19q0 36 -34 36h-56q-135 0 -135 128v19q0 60 36.5 91t98.5 31h48q12 0 12 14v28q0 14 -11 14h-239q-24 0 -24 24v57q0 23 24 23h657q24 0 24 -23v-57q0 -24 -24 -24h-54q-12 0 -12 -14v-482q0 -23 -24 -23h-69q-24 0 -24 23v155
q0 14 -12 14h-70z" />
    <glyph glyph-name="uni091E" unicode="&#x91e;" horiz-adv-x="555" 
d="M291 335l2 -14q1 -10 14 -10h59q12 0 12 14v180q0 13 -10 14h-374q-24 0 -24 23v58q0 23 24 23h567q24 0 24 -23v-57q0 -24 -24 -24h-54q-12 0 -12 -14v-482q0 -23 -24 -23h-69q-24 0 -24 23v169q0 14 -12 14h-59q-11 0 -13 -12q0 -4 -3 -16q-24 -117 -165 -117h-73
q-24 0 -24 24v58q0 22 24 22h66q74 0 74 71v43q0 71 -72 71h-51q-24 0 -24 22v58q0 24 24 24h56q142 0 165 -119z" />
    <glyph glyph-name="uni091F" unicode="&#x91f;" horiz-adv-x="465" 
d="M209 438h58q12 0 12 14v53q0 14 -11 14h-274q-24 0 -24 24v57q0 23 24 23h477q24 0 24 -23v-57q0 -24 -24 -24h-64q-12 0 -12 -14v-115q0 -55 -59 -55h-113q-38 0 -55 -15t-17 -50v-70q0 -35 17 -50t55 -15h37q39 0 56 13t17 49v4q0 29 22 29h62q25 0 25 -29v-4
q0 -166 -170 -166h-63q-85 0 -128 46t-43 126v67q0 79 43 123.5t128 44.5z" />
    <glyph glyph-name="uni0920" unicode="&#x920;" horiz-adv-x="499" 
d="M272 335h-50q-37 0 -53 -16t-16 -52v-61q0 -72 73 -72h40q73 0 73 72v61q0 68 -67 68zM505 519h-89q-12 0 -12 -14v-47q0 -42 -35 -52v-4q38 -5 61.5 -32.5t23.5 -73.5v-104q0 -77 -45.5 -119.5t-125.5 -42.5h-75q-82 0 -126 44.5t-44 126.5v68q0 81 44.5 125.5
t126.5 44.5h29q49 0 49 45v21q0 13 -10 14h-283q-24 0 -24 24v56q0 24 24 24h511q24 0 24 -24v-56q0 -24 -24 -24z" />
    <glyph glyph-name="uni0921" unicode="&#x921;" horiz-adv-x="458" 
d="M-6 623h470q24 0 24 -23v-58q0 -23 -24 -23h-64q-12 0 -12 -14v-90q0 -55 -59 -55h-139q-17 0 -24 -6t-7 -26v-4q0 -21 7 -27t24 -6h95q61 0 95.5 -30t34.5 -88v-44q0 -60 -35 -94.5t-95 -34.5h-85q-77 0 -118.5 32t-41.5 111v4q0 29 25 29h62q22 0 22 -29v-4
q0 -35 27 -40q11 -2 36 -2h54q31 0 31 37v21q0 21 -7.5 29.5t-23.5 8.5h-86q-71 0 -103 27.5t-32 90.5v26q0 60 36.5 91t98.5 31h80q12 0 12 14v28q0 14 -11 14h-267q-24 0 -24 23v58q0 23 24 23z" />
    <glyph glyph-name="uni0922" unicode="&#x922;" horiz-adv-x="487" 
d="M299 31h-87q-84 0 -125.5 44.5t-41.5 124.5v96q0 166 163 166h89q11 0 11 13v31q0 13 -11 13h-303q-24 0 -24 24v57q0 23 24 23h499q24 0 24 -23v-57q0 -24 -24 -24h-57q-12 0 -12 -14v-93q0 -25 -13.5 -37.5t-36.5 -12.5h-153q-33 0 -48 -16t-15 -52v-101
q0 -35 15 -48.5t53 -13.5h72q30 0 42 11.5t12 38.5v19q0 21 -21.5 21t-21.5 -21v-16q0 -24 -23 -24h-38q-20 0 -27 6t-7 21v18q0 103 111 103q129 0 129 -110v-22q0 -145 -155 -145z" />
    <glyph glyph-name="uni0923" unicode="&#x923;" horiz-adv-x="668" 
d="M264 519h-87q-12 0 -12 -14v-203q0 -55 54 -55h4q53 0 53 55v203q0 14 -12 14zM479 519h-76q-12 0 -12 -14v-199q0 -78 -42 -119.5t-120 -41.5h-18q-77 0 -119 42t-42 119v199q0 14 -12 14h-44q-24 0 -24 24v57q0 23 24 23h680q24 0 24 -23v-57q0 -24 -24 -24h-54
q-12 0 -12 -14v-482q0 -23 -24 -23h-69q-24 0 -24 23v482q0 14 -12 14z" />
    <glyph glyph-name="uni0924" unicode="&#x924;" horiz-adv-x="511" 
d="M160 260v-91q0 -39 13.5 -53.5t54.5 -15.5h9q24 0 24 -24v-52q0 -24 -24 -24h-39q-80 0 -117.5 43t-37.5 130v94q0 81 45.5 125.5t127.5 44.5h106q12 0 12 14v54q0 13 -10 14h-330q-24 0 -24 24v57q0 23 24 23h523q24 0 24 -23v-57q0 -24 -24 -24h-54q-12 0 -12 -14v-482
q0 -23 -24 -23h-69q-24 0 -24 23v293q0 14 -12 14h-89q-73 0 -73 -70z" />
    <glyph glyph-name="uni0925" unicode="&#x925;" horiz-adv-x="609" 
d="M432 133h-4q-32 -53 -114 -53h-70q-54 0 -94 18t-62 48q-43 57 -43 129v93q0 24 24 24h118q69 0 69 49v58q0 13 -10 21.5t-27 8.5q-36 0 -36 -30v-41q0 -24 -22 -24h-64q-22 0 -22 24v55q0 51 40 83.5t103.5 32.5t106 -32t42.5 -96v-67q0 -146 -171 -146h-32v-13
q0 -46 21 -69.5t75 -23.5h55q60 0 88.5 35t28.5 81v279q0 20 12 33t33 13h137q24 0 24 -23v-57q0 -24 -24 -24h-53q-12 0 -12 -14v-482q0 -23 -24 -23h-69q-24 0 -24 23v110z" />
    <glyph glyph-name="uni0926" unicode="&#x926;" horiz-adv-x="483" 
d="M203 462h97q11 0 11 13v31q0 13 -11 13h-306q-24 0 -24 24v57q0 23 24 23h495q24 0 24 -23v-57q0 -24 -24 -24h-50q-12 0 -12 -14v-97q0 -25 -13.5 -37.5t-36.5 -12.5h-156q-33 0 -48 -16t-15 -52v-63q0 -35 15.5 -48.5t52.5 -13.5h46q45 0 45 48v47q0 23 24 23h67
q24 0 24 -23v-237q0 -23 -24 -23h-67q-24 0 -24 23v69h-4q-15 -31 -63 -31h-43q-84 0 -125.5 44.5t-41.5 124.5v66q0 166 163 166z" />
    <glyph glyph-name="uni0927" unicode="&#x927;" horiz-adv-x="544" 
d="M206 519h-17q-31 0 -31 -36v-43q0 -35 36 -35h64q24 0 24 -24v-57q0 -23 -24 -23h-64q-16 0 -26 -10t-10 -28v-23q0 -34 11.5 -46t43.5 -12h55q99 1 99 89v234q0 14 -12 14h-36q-24 0 -24 24v57q0 23 24 23h231q24 0 24 -23v-57q0 -24 -24 -24h-54q-12 0 -12 -14v-482
q0 -23 -24 -23h-69q-24 0 -24 23v98h-4q-22 -45 -86 -45h-83q-73 0 -112 39.5t-39 113.5v31q0 68 54 87v4q-54 18 -54 81v41q0 29 24 42v4h-73q-24 0 -24 25v56q0 23 24 23h212q23 0 23 -23v-57q0 -24 -23 -24z" />
    <glyph glyph-name="uni0928" unicode="&#x928;" horiz-adv-x="491" 
d="M78 182q-54 0 -54 102q0 53 34.5 85t89.5 32h154q12 0 12 14v90q0 13 -10 14h-310q-24 0 -24 24v57q0 23 24 23h503q24 0 24 -23v-57q0 -24 -24 -24h-54q-12 0 -12 -14v-482q0 -23 -24 -23h-69q-24 0 -24 23v259q0 14 -12 14h-108q-19 0 -29 -2q-25 -5 -25 -35l9 -54
q0 -23 -22 -23h-49z" />
    <glyph glyph-name="uni0928093C" unicode="&#x929;" horiz-adv-x="491" 
d="M212 37v-65q0 -23 -22 -23h-70q-22 0 -22 23v65q0 22 22 22h70q22 0 22 -22zM78 182q-54 0 -54 102q0 53 34.5 85t89.5 32h154q12 0 12 14v90q0 13 -10 14h-310q-24 0 -24 24v57q0 23 24 23h503q24 0 24 -23v-57q0 -24 -24 -24h-54q-12 0 -12 -14v-482q0 -23 -24 -23h-69
q-24 0 -24 23v259q0 14 -12 14h-108q-19 0 -29 -2q-25 -5 -25 -35l9 -54q0 -23 -22 -23h-49z" />
    <glyph glyph-name="uni092A" unicode="&#x92a;" horiz-adv-x="501" 
d="M231 258h19q39 0 56.5 19t17.5 50v178q0 14 -12 14h-133q-12 0 -12 -14v-181q0 -34 14.5 -50t49.5 -16zM-6 623h513q24 0 24 -23v-57q0 -24 -24 -24h-54q-12 0 -12 -14v-482q0 -23 -24 -23h-69q-24 0 -24 23v169h-4q-24 -40 -89 -40h-21q-73 0 -116.5 43t-43.5 116v194
q0 13 -10 14h-46q-24 0 -24 25v56q0 23 24 23z" />
    <glyph glyph-name="uni092B" unicode="&#x92b;" horiz-adv-x="745" 
d="M436 295v-271q0 -24 -24 -24h-69q-24 0 -24 23v169h-4q-24 -40 -89 -40h-16q-73 0 -116.5 43t-43.5 116v194q0 13 -10 14h-46q-24 0 -24 25v56q0 23 24 23h757q24 0 24 -23v-57q0 -24 -24 -24h-303q-12 0 -12 -14v-82h4q23 39 86 39h19q81 0 125.5 -44.5t44.5 -125.5v-42
q-1 -80 -44.5 -125t-125.5 -45h-37q-24 0 -24 24v57q0 23 24 23h19q73 0 73 72v30q0 72 -77 72h-23q-64 0 -64 -63zM231 258h14q39 0 56.5 19t17.5 50v178q0 14 -12 14h-128q-12 0 -12 -14v-181q0 -34 14.5 -50t49.5 -16z" />
    <glyph glyph-name="uni092C" unicode="&#x92c;" horiz-adv-x="523" 
d="M-6 623h535q24 0 24 -23v-57q0 -24 -24 -24h-54q-12 0 -12 -14v-481q0 -24 -24 -24h-70q-23 0 -23 24v86h-4q-10 -17 -35 -28t-57 -11h-40q-81 0 -126 44.5t-45 125.5v51q1 80 44.5 125t125.5 45h64q24 0 24 -24v-53q0 -23 -24 -23h-50q-14 0 -26 -3l147 -132q2 14 2 21
v257q0 14 -12 14h-340q-24 0 -24 24v57q0 23 24 23zM221 169h47q19 0 38 7l-154 137q-2 -14 -2 -23v-49q0 -36 16.5 -54t54.5 -18z" />
    <glyph glyph-name="uni092D" unicode="&#x92d;" horiz-adv-x="510" 
d="M321 228h-132q-12 0 -12 -14v-56q0 -23 -24 -23h-69q-24 0 -24 23v290q0 37 -12 54t-41 17h-13q-24 0 -24 24v56q0 24 24 24h13q82 0 126 -44.5t44 -126.5v-108q0 -14 12 -14h132q12 0 12 14v161q0 14 -12 14h-37q-33 0 -33 24v57q0 23 33 23h232q24 0 24 -23v-57
q0 -24 -24 -24h-54q-12 0 -12 -14v-482q0 -23 -24 -23h-69q-24 0 -24 23v191q0 14 -12 14z" />
    <glyph glyph-name="uni092E" unicode="&#x92e;" horiz-adv-x="505" 
d="M328 344v161q0 13 -10 14h-134q-12 0 -12 -14v-161q0 -14 12 -14h132q12 0 12 14zM316 228h-132q-12 0 -12 -14v-56q0 -23 -24 -23h-69q-24 0 -24 23v347q0 13 -10 14h-51q-24 0 -24 24v58q0 22 24 22h517q24 0 24 -23v-57q0 -24 -24 -24h-54q-12 0 -12 -14v-482
q0 -23 -24 -23h-69q-24 0 -24 23v191q0 14 -12 14z" />
    <glyph glyph-name="uni092F" unicode="&#x92f;" horiz-adv-x="582" 
d="M393 519h-124v-5q35 -16 35 -67v-25q0 -128 -143 -128h-6v-17q0 -102 111 -102h22q117 0 117 115v215q0 14 -12 14zM193 448v15q0 56 -59 56h-140q-24 0 -24 24v58q0 22 24 22h594q24 0 24 -23v-57q0 -24 -24 -24h-54q-12 0 -12 -14v-482q0 -23 -24 -23h-69q-24 0 -24 23
v102h-4q-31 -53 -116 -53h-33q-103 0 -157.5 61t-54.5 145v93q0 24 24 24h70q33 0 46 12t13 41z" />
    <glyph glyph-name="uni0930" unicode="&#x930;" horiz-adv-x="339" 
d="M169 373v132q0 13 -10 14h-165q-24 0 -24 24v57q0 23 24 23h351q24 0 24 -23v-57q0 -24 -24 -24h-47q-12 0 -12 -14v-139q0 -59 -31.5 -95t-85.5 -36h-5l124 -196q6 -8 6 -17q0 -22 -21 -22h-79q-13 0 -21 13l-114 185l-29 38v72q0 13 8.5 21t21.5 8h74q35 0 35 36z" />
    <glyph glyph-name="uni0930093C" unicode="&#x931;" horiz-adv-x="384" 
d="M124 46v-65q0 -23 -22 -23h-70q-22 0 -22 23v65q0 22 22 22h70q22 0 22 -22zM214 373v132q0 13 -10 14h-210q-24 0 -24 24v57q0 23 24 23h396q24 0 24 -23v-57q0 -24 -24 -24h-47q-12 0 -12 -14v-139q0 -59 -31.5 -95t-85.5 -36h-5l124 -196q6 -8 6 -17q0 -22 -21 -22
h-79q-13 0 -21 13l-114 185l-29 38v72q0 13 8.5 21t21.5 8h74q35 0 35 36z" />
    <glyph glyph-name="uni0932" unicode="&#x932;" horiz-adv-x="639" 
d="M398 441q45 0 60 -24h4v88q0 13 -10 14h-458q-24 0 -24 24v57q0 23 24 23h651q24 0 24 -23v-57q0 -24 -24 -24h-54q-12 0 -12 -14v-482q0 -23 -24 -23h-69q-24 0 -24 23v250q0 35 -11 48t-37.5 13t-38 -14.5t-11.5 -51.5v-52q0 -24 -24 -24h-64q-24 0 -24 24v61
q0 32 -11.5 45.5t-36.5 13.5q-51 0 -51 -72v-63q0 -72 73 -72h6q24 0 24 -23v-57q0 -24 -24 -24h-24q-82 0 -126 44t-44 126v77q0 81 42.5 126t121 45t102.5 -57h4q20 55 90 55z" />
    <glyph glyph-name="uni0933" unicode="&#x933;" horiz-adv-x="666" 
d="M-6 623h678q24 0 24 -23v-57q0 -24 -24 -24h-151q-12 0 -12 -14v-57q0 -10 12 -14q102 -34 102 -167v-53q0 -86 -42.5 -131t-125.5 -45h-12q-75 0 -113 39q-39 -39 -115 -39h-9q-83 0 -125.5 45t-42.5 131v53q0 86 42.5 131t125.5 45h9q76 0 116 -40q23 24 62 35
q12 3 12 14v53q0 14 -12 14h-399q-24 0 -24 24v57q0 23 24 23zM274 214v53q0 37 -13.5 55.5t-45.5 18.5h-6q-32 0 -45.5 -18.5t-13.5 -55.5v-53q0 -37 13.5 -55.5t45.5 -18.5h6q32 0 45.5 18.5t13.5 55.5zM511 214v53q0 37 -13.5 55.5t-45.5 18.5h-6q-32 0 -45.5 -18.5
t-13.5 -55.5v-53q0 -37 13.5 -55.5t45.5 -18.5h6q32 0 45.5 18.5t13.5 55.5z" />
    <glyph glyph-name="uni0933093C" unicode="&#x934;" horiz-adv-x="666" 
d="M-6 623h678q24 0 24 -23v-57q0 -24 -24 -24h-151q-12 0 -12 -14v-57q0 -10 12 -14q102 -34 102 -167v-53q0 -86 -42.5 -131t-125.5 -45h-12q-75 0 -113 39q-39 -39 -115 -39h-9q-83 0 -125.5 45t-42.5 131v53q0 86 42.5 131t125.5 45h9q76 0 116 -40q23 24 62 35
q12 3 12 14v53q0 14 -12 14h-399q-24 0 -24 24v57q0 23 24 23zM274 214v53q0 37 -13.5 55.5t-45.5 18.5h-6q-32 0 -45.5 -18.5t-13.5 -55.5v-53q0 -37 13.5 -55.5t45.5 -18.5h6q32 0 45.5 18.5t13.5 55.5zM511 214v53q0 37 -13.5 55.5t-45.5 18.5h-6q-32 0 -45.5 -18.5
t-13.5 -55.5v-53q0 -37 13.5 -55.5t45.5 -18.5h6q32 0 45.5 18.5t13.5 55.5zM169 0h70q22 0 22 -22v-65q0 -23 -22 -23h-70q-22 0 -22 23v65q0 22 22 22z" />
    <glyph glyph-name="uni0935" unicode="&#x935;" horiz-adv-x="513" 
d="M453 505v-481q0 -24 -24 -24h-70q-23 0 -23 24v86h-4q-10 -17 -35 -28t-57 -11h-30q-81 0 -126 44.5t-45 125.5v47q1 80 44.5 125t125.5 45h55q24 0 24 -24v-57q0 -23 -24 -23h-34q-73 0 -73 -72v-35q0 -36 16.5 -54t54.5 -18h30q41 0 59.5 22.5t18.5 56.5v251
q0 14 -12 14h-330q-24 0 -24 24v57q0 23 24 23h525q24 0 24 -23v-57q0 -24 -24 -24h-54q-12 0 -12 -14z" />
    <glyph glyph-name="uni0936" unicode="&#x936;" horiz-adv-x="647" 
d="M470 23v554q0 20 12 33t33 13h138q24 0 24 -23v-57q0 -24 -24 -24h-54q-12 0 -12 -14v-482q0 -23 -24 -23h-69q-24 0 -24 23zM346 22q0 -22 -21 -22h-82q-13 0 -21 13l-131 179l-31 38v72q0 13 8.5 21t21.5 8h102q77 0 77 61v90q0 44 -40 44q-22 0 -31 -10.5t-9 -32.5
v-52q0 -24 -23 -24h-67q-25 0 -25 24v46q0 148 155 148q72 0 113.5 -37.5t41.5 -110.5v-83q0 -78 -45.5 -121.5t-137.5 -43.5h-7l146 -190q6 -8 6 -17z" />
    <glyph glyph-name="uni0937" unicode="&#x937;" horiz-adv-x="511" 
d="M334 505q0 14 -12 14h-157l169 -177v163zM231 239h29q42 0 60 24l-153 163v-121q0 -34 14.5 -50t49.5 -16zM-6 623h523q24 0 24 -23v-57q0 -24 -24 -24h-54q-12 0 -12 -14v-482q0 -23 -24 -23h-69q-24 0 -24 23v153h-4q-24 -40 -89 -40h-31q-73 0 -116.5 43t-43.5 116
v210q0 13 -10 14h-46q-24 0 -24 25v56q0 23 24 23z" />
    <glyph glyph-name="uni0938" unicode="&#x938;" horiz-adv-x="603" 
d="M271 337h143q12 0 12 14v154q0 14 -12 14h-116q-12 0 -12 -14v-99q0 -49 -15 -65v-4zM294 21q0 -21 -21 -21h-79q-13 0 -21 13l-114 185l-29 38v72q0 13 8.5 21t21.5 8h74q35 0 35 36v132q0 14 -12 14h-163q-24 0 -24 25v56q0 23 24 23h615q24 0 24 -23v-57
q0 -24 -24 -24h-54q-12 0 -12 -14v-482q0 -23 -24 -23h-69q-24 0 -24 23v196q0 14 -12 14h-249l123 -194q6 -10 6 -18z" />
    <glyph glyph-name="uni0939" unicode="&#x939;" horiz-adv-x="463" 
d="M-6 519q-24 0 -24 23v58q0 23 24 23h475q24 0 24 -23v-58q0 -23 -24 -23h-49q-12 0 -12 -14v-86q0 -55 -59 -55h-138q-24 0 -34.5 -9t-10.5 -32t10 -32.5t32 -9.5h96q56 0 87.5 -27t31.5 -76v-35q0 -23 -24 -23h-63q-24 0 -24 23v14q0 18 -7.5 25t-25.5 7h-64
q-32 0 -43.5 -16.5t-12.5 -51.5v-7q0 -38 20 -51t78 -13h128q24 0 24 -23v-51q0 -23 -24 -23h-141q-107 0 -154.5 39.5t-47.5 120.5v11q0 88 57 112v4q-51 23 -51 94t36 100t105 29h90q13 0 13 14v28q0 13 -10 14h-288z" />
    <glyph glyph-name="uni093C" unicode="&#x93c;" horiz-adv-x="0" 
d="M-240 -22v-65q0 -23 -22 -23h-70q-22 0 -22 23v65q0 22 22 22h70q22 0 22 -22z" />
    <glyph glyph-name="uni093D" unicode="&#x93d;" horiz-adv-x="546" 
d="M482 201v-42q0 -73 -43.5 -116t-116.5 -43h-91q-112 0 -171 108q-3 6 -3 15.5t16 21.5l32 24q11 9 20.5 9t16 -7.5t15.5 -21t16 -21t23 -15t36 -7.5h69q35 0 49.5 16t14.5 50v21q0 20 -13 34t-28.5 20t-47.5 17q-106 36 -147 88q-32 41 -32 121t37 115t126 35h164
q24 0 24 -23v-57q0 -24 -24 -24h-141q-35 0 -51.5 -11t-16.5 -33.5t6 -35t13.5 -20.5t24.5 -17.5t28 -14t36.5 -14.5t37.5 -15q65 -27 93 -57.5t28 -99.5z" />
    <glyph glyph-name="uni093E" unicode="&#x93e;" 
d="M153 0h-69q-24 0 -24 23v482q0 14 -12 14h-54q-24 0 -24 24v57q0 23 24 23h249q24 0 24 -23v-57q0 -24 -24 -24h-54q-12 0 -12 -14v-482q0 -23 -24 -23z" />
    <glyph glyph-name="uni093F" unicode="&#x93f;" 
d="M243 893h259q92 0 136.5 -47t44.5 -133v-5q0 -24 -25 -24h-70q-22 0 -22 24v5q0 42 -14 58t-50 16h-260q-37 0 -51 -16.5t-14 -58.5v-75q0 -14 12 -14h54q24 0 24 -23v-57q0 -24 -24 -24h-54q-12 0 -12 -14v-482q0 -23 -24 -23h-69q-24 0 -24 23v482q0 14 -12 14h-54
q-24 0 -24 24v57q0 23 24 23h54q12 0 12 14v100q0 77 48.5 116.5t134.5 39.5z" />
    <glyph glyph-name="uni0940" unicode="&#x940;" 
d="M189 623h54q24 0 24 -23v-57q0 -24 -24 -24h-54q-12 0 -12 -14v-482q0 -23 -24 -23h-69q-24 0 -24 23v482q0 14 -12 14h-54q-24 0 -24 24v57q0 23 24 23h54q12 0 12 14v75q0 42 -14 58.5t-51 16.5t-51 -16t-14 -58v-5q0 -24 -22 -24h-70q-25 0 -25 24v5q0 86 44.5 133
t133.5 47t137.5 -39.5t48.5 -116.5v-100q0 -14 12 -14z" />
    <glyph glyph-name="uni0941" unicode="&#x941;" horiz-adv-x="0" 
d="M-177 -48v47q0 25 25 25h51q73 0 108.5 -31t35.5 -104.5t-36.5 -111t-117.5 -37.5h-27q-76 0 -117 29.5t-94 117.5q-12 21 -12 32t13 19l45 25q9 6 20 6t21.5 -18t23.5 -40t17.5 -28.5t14 -18.5t17.5 -15q24 -9 50 -9h27q29 0 37.5 11t8.5 34.5t-6.5 32.5t-31.5 9h-48
q-25 0 -25 25z" />
    <glyph glyph-name="uni0942" unicode="&#x942;" horiz-adv-x="0" 
d="M-281 -110q0 145 147 145h30q49 0 82 -11.5t56.5 -41t39.5 -62t28.5 -63t13 -31.5t1 -3t2.5 -6.5t2 -15.5t-15 -16q-52 -20 -57 -20q-16 0 -26 20.5t-26 57.5t-21.5 47t-18 25.5t-27 19t-37.5 3.5h-26q-24 0 -32 -12t-8 -36t7.5 -33.5t29.5 -9.5h31q25 0 25 -25v-43
q0 -26 -25 -26h-31q-145 0 -145 137z" />
    <glyph glyph-name="uni0943" unicode="&#x943;" horiz-adv-x="0" 
d="M-60 -1v-47q0 -25 -25 -25h-37q-27 0 -36 -14t-9 -45.5t13.5 -43.5t44.5 -12h13q28 0 46.5 11t23 13.5t18.5 11.5q31 20 40.5 20t16.5 -12l26 -40q7 -10 7 -18.5t-22 -25.5q-77 -60 -153 -60h-23q-161 0 -161 161q0 151 150 151h42q25 0 25 -25z" />
    <glyph glyph-name="uni0945" unicode="&#x945;" horiz-adv-x="0" 
d="M-54 698h-107q-57 0 -87.5 33.5t-30.5 94.5v8q0 34 29 34h49q26 0 26 -31v-10q0 -34 36 -34h63q35 0 35 34v10q0 31 29 31h46q29 0 29 -34v-3q0 -64 -29.5 -98.5t-87.5 -34.5z" />
    <glyph glyph-name="uni0946" unicode="&#x946;" horiz-adv-x="0" 
d="M-184.5 650.5q-7.5 4.5 -11 6t-9.5 4.5q-16 8 -25 12q-7 3 -64 31q-93 46 -93 130v36q0 23 24 23h66q24 0 24 -23v-26q0 -23 12.5 -36t40.5 -26q83 -38 97.5 -46.5t32.5 -22.5q30 -24 30 -76q0 -14 12 -14h5v-68h-152v68h6q12 0 12 11.5t-7.5 16z" />
    <glyph glyph-name="uni0947" unicode="&#x947;" horiz-adv-x="0" 
d="M-65 623h5v-47h-70q-66 62 -102 102.5t-74 98.5l-52 79q-6 9 -6 18q0 19 19 19h81q21 0 32 -18q144 -240 147 -244q7 -8 20 -8z" />
    <glyph glyph-name="uni0948" unicode="&#x948;" horiz-adv-x="0" 
d="M-43 595h-109q-106 89 -172 182l-55 79q-6 9 -6 18q0 19 20 19h65q32 0 43 -20l133 -238l4 2q-52 114 -52 221v12q0 23 24 23h64q24 0 24 -23v-233q0 -14 12 -14h5v-28z" />
    <glyph glyph-name="uni0949" unicode="&#x949;" 
d="M153 0h-69q-24 0 -24 23v482q0 14 -12 14h-54q-24 0 -24 24v57q0 23 24 23h249q24 0 24 -23v-57q0 -24 -24 -24h-54q-12 0 -12 -14v-482q0 -23 -24 -23zM173 698h-107q-57 0 -87.5 33.5t-30.5 94.5v8q0 34 29 34h49q26 0 26 -31v-10q0 -34 36 -34h63q35 0 35 34v10
q0 31 29 31h46q29 0 29 -34v-7q0 -129 -117 -129z" />
    <glyph glyph-name="uni094A" unicode="&#x94a;" 
d="M189 623h54q24 0 24 -23v-57q0 -24 -24 -24h-54q-12 0 -12 -14v-482q0 -23 -24 -23h-69q-24 0 -24 23v482q0 14 -12 14h-54q-24 0 -24 24v57q0 23 24 23h54q12 0 12 11q0 12 -7.5 16.5t-11 6t-9.5 4.5q-16 8 -25 12q-7 3 -64 31q-93 46 -93 130v36q0 23 24 23h66
q24 0 24 -23v-26q0 -23 12.5 -36t40.5 -26q83 -38 97.5 -46.5t31.5 -22.5q31 -24 31 -76q0 -14 12 -14z" />
    <glyph glyph-name="uni094B" unicode="&#x94b;" 
d="M178 623h65q24 0 24 -23v-57q0 -24 -24 -24h-54q-12 0 -12 -14v-482q0 -23 -24 -23h-69q-24 0 -24 23v482q0 14 -12 14h-54q-24 0 -24 24v57q0 23 24 23h68v4q-34 34 -38 38.5t-18 20t-22 26.5q-29 37 -99 144q-6 9 -6 18q0 19 19 19h81q21 0 32 -18q144 -240 147 -244
q7 -8 20 -8z" />
    <glyph glyph-name="uni094C" unicode="&#x94c;" 
d="M189 623h54q24 0 24 -23v-57q0 -24 -24 -24h-54q-12 0 -12 -14v-482q0 -23 -24 -23h-69q-24 0 -24 23v482q0 14 -12 14h-54q-24 0 -24 24v57q0 23 24 23h57v4q-70 55 -138 150l-55 79q-6 9 -6 18q0 19 20 19h65q32 0 43 -20l133 -238l4 2q-52 114 -52 221v12q0 23 24 23
h64q24 0 24 -23v-233q0 -14 12 -14z" />
    <glyph glyph-name="uni094D" unicode="&#x94d;" horiz-adv-x="0" 
d="M-153 -52h66q19 0 33 -20l92 -135q6 -8 6 -17q0 -22 -21 -22h-76q-16 0 -26 16l-89 150q-3 5 -3 10q0 18 18 18z" />
    <glyph glyph-name="uni0950" unicode="&#x950;" horiz-adv-x="867" 
d="M556 463h94q78 0 123.5 -49t45.5 -129v-155q0 -59 -35 -94.5t-94 -35.5h-39q-59 0 -93.5 35.5t-34.5 94.5v54q0 14 -12 14h-60v-22q0 -84 -43.5 -130t-129.5 -46h-41q-84 0 -130 46t-46 130v25q0 29 25 29h68q22 0 22 -29v-26q0 -71 76 -71h14q70 0 70 79v9
q0 42 -15.5 61.5t-54.5 19.5h-32q-24 0 -24 24v55q0 25 23 25h37q40 0 53 16t13 42v22q0 34 -14 48t-54 14h-76q-24 0 -24 24v57q0 23 24 23h95q85 0 124.5 -41t39.5 -123v-33q0 -76 -56 -100v-4q21 -8 32 -22h129q76 0 76 -73v-85q0 -35 37 -38h4q37 3 37 38v134
q0 40 -23.5 62t-66.5 22h-64q-24 0 -24 24v56q0 23 24 23zM653 519h-94q-27 0 -27 24v55q0 25 27 25h79q63 0 90 33q11 14 21.5 14t19.5 -7.5t19 -17t20.5 -17.5t10.5 -17t-5 -16q-48 -76 -161 -76zM627 685h-71q-22 0 -22 22v64q0 22 22 22h71q22 0 22 -22v-64
q0 -22 -22 -22z" />
    <glyph glyph-name="uni0951" unicode="&#x951;" horiz-adv-x="0" 
d="M-177 697v155q0 23 24 23h69q24 0 24 -23v-155q0 -23 -24 -23h-69q-24 0 -24 23z" />
    <glyph glyph-name="uni0952" unicode="&#x952;" horiz-adv-x="0" 
d="M-58 -100q0 -21 -20 -21h-362q-20 0 -20 21v35q0 20 20 20h362q20 0 20 -20v-35z" />
    <glyph glyph-name="uni0953" unicode="&#x953;" horiz-adv-x="0" 
d="M-191 875q21 0 32 -18l88 -146q6 -9 6 -18q0 -19 -19 -19h-71q-21 0 -32 18l-91 146q-6 9 -6 18q0 19 19 19h74z" />
    <glyph glyph-name="uni0954" unicode="&#x954;" horiz-adv-x="0" 
d="M-50 875h74q19 0 19 -19q0 -9 -6 -18l-91 -146q-11 -18 -32 -18h-71q-19 0 -19 19q0 9 6 18l88 146q11 18 32 18z" />
    <glyph glyph-name="uni0915093C" unicode="&#x958;" horiz-adv-x="731" 
d="M422 505v-82h4q23 39 86 39h19q81 0 125.5 -44.5t44.5 -125.5v-42q-1 -80 -44.5 -125t-125.5 -45h-37q-24 0 -24 24v57q0 23 24 23h19q73 0 73 72v30q0 72 -77 72h-23q-64 0 -64 -63v-271q0 -24 -24 -24h-67q-23 0 -23 24v95h-4q-23 -39 -86 -39h-19q-81 0 -125.5 44.5
t-44.5 125.5v42q1 80 44.5 125t125.5 45h37q24 0 24 -24v-57q0 -23 -24 -23h-19q-73 0 -73 -72v-30q0 -72 77 -72h23q64 0 64 63v258q0 14 -12 14h-302q-24 0 -24 24v57q0 23 24 23h743q24 0 24 -23v-57q0 -24 -24 -24h-303q-12 0 -12 -14zM231 4v-65q0 -23 -22 -23h-70
q-22 0 -22 23v65q0 22 22 22h70q22 0 22 -22z" />
    <glyph glyph-name="uni0916093C" unicode="&#x959;" horiz-adv-x="726" 
d="M551 138h-4q-20 -32 -74 -35h-20q-72 0 -108 42t-36 114v47q0 68 40.5 108.5t118.5 40.5h19q25 0 25 -24v-56q0 -22 -25 -22h-7q-34 0 -46 -13.5t-12 -49.5v-23q0 -37 13.5 -51t48.5 -14h7q36 0 48 18t12 52v233q0 14 -12 14h-243q-12 0 -12 -14v-139q0 -59 -32.5 -95
t-85.5 -36h-4l124 -196q6 -8 6 -17q0 -22 -21 -22h-77q-13 0 -21 13l-114 185l-29 38v72q0 13 8.5 21t21.5 8h74q35 0 35 36v132q0 13 -10 14h-165q-24 0 -24 24v57q0 23 24 23h738q24 0 24 -23v-57q0 -24 -24 -24h-54q-12 0 -12 -14v-482q0 -23 -24 -23h-67q-24 0 -24 23
v115zM140 -12v-65q0 -23 -22 -23h-70q-22 0 -22 23v65q0 22 22 22h70q22 0 22 -22z" />
    <glyph glyph-name="uni0917093C" unicode="&#x95a;" horiz-adv-x="523" 
d="M-6 623h535q24 0 24 -23v-57q0 -24 -24 -24h-54q-12 0 -12 -14v-482q0 -23 -24 -23h-69q-24 0 -24 23v482q0 13 -10 14h-83q-12 0 -12 -14v-149q0 -83 -43 -127t-124 -44h-25q-24 0 -24 24v59q0 24 24 24h5q37 0 53.5 16.5t16.5 52.5v144q0 13 -10 14h-120q-24 0 -24 24
v57q0 23 24 23zM200 19v-65q0 -23 -22 -23h-70q-22 0 -22 23v65q0 22 22 22h70q22 0 22 -22z" />
    <glyph glyph-name="uni091C093C" unicode="&#x95b;" horiz-adv-x="561" 
d="M265 331v-4q33 -13 33 -54v-66q0 -74 -37.5 -117.5t-107.5 -43.5h-105q-24 0 -24 23v57q0 24 24 24h66q47 0 60 21q9 16 9 47v47q0 66 -70 66h-26q-24 0 -24 23v64q0 21 23 21h286q12 0 12 14v52q0 13 -10 14h-380q-24 0 -24 24v57q0 23 24 23h573q24 0 24 -23v-57
q0 -24 -24 -24h-54q-12 0 -12 -14v-482q0 -23 -24 -23h-69q-24 0 -24 23v294q0 14 -12 14h-107zM139 -22v-65q0 -23 -22 -23h-70q-22 0 -22 23v65q0 22 22 22h70q22 0 22 -22z" />
    <glyph glyph-name="uni0921093C" unicode="&#x95c;" horiz-adv-x="458" 
d="M-6 623h470q24 0 24 -23v-58q0 -23 -24 -23h-64q-12 0 -12 -14v-90q0 -55 -59 -55h-139q-17 0 -24 -6t-7 -26v-4q0 -21 7 -27t24 -6h95q61 0 95.5 -30t34.5 -88v-44q0 -60 -35 -94.5t-95 -34.5h-85q-77 0 -118.5 32t-41.5 111v4q0 29 25 29h62q22 0 22 -29v-4
q0 -35 27 -40q11 -2 36 -2h54q31 0 31 37v21q0 21 -7.5 29.5t-23.5 8.5h-86q-71 0 -103 27.5t-32 90.5v26q0 60 36.5 91t98.5 31h80q12 0 12 14v28q0 14 -11 14h-267q-24 0 -24 23v58q0 23 24 23zM273 -72v-65q0 -23 -22 -23h-70q-22 0 -22 23v65q0 22 22 22h70q22 0 22 -22
z" />
    <glyph glyph-name="uni0922093C" unicode="&#x95d;" horiz-adv-x="487" 
d="M299 31h-87q-84 0 -125.5 44.5t-41.5 124.5v96q0 166 163 166h89q11 0 11 13v31q0 13 -11 13h-303q-24 0 -24 24v57q0 23 24 23h499q24 0 24 -23v-57q0 -24 -24 -24h-57q-12 0 -12 -14v-93q0 -25 -13.5 -37.5t-36.5 -12.5h-153q-33 0 -48 -16t-15 -52v-101
q0 -35 15 -48.5t53 -13.5h72q30 0 42 11.5t12 38.5v19q0 21 -21.5 21t-21.5 -21v-16q0 -24 -23 -24h-38q-20 0 -27 6t-7 21v18q0 103 111 103q129 0 129 -110v-22q0 -145 -155 -145zM308 -42v-65q0 -23 -22 -23h-70q-22 0 -22 23v65q0 22 22 22h70q22 0 22 -22z" />
    <glyph glyph-name="uni092B093C" unicode="&#x95e;" horiz-adv-x="745" 
d="M231 258h14q39 0 56.5 19t17.5 50v178q0 14 -12 14h-128q-12 0 -12 -14v-181q0 -34 14.5 -50t49.5 -16zM436 295v-271q0 -24 -24 -24h-69q-24 0 -24 23v169h-4q-24 -40 -89 -40h-16q-73 0 -116.5 43t-43.5 116v194q0 13 -10 14h-46q-24 0 -24 25v56q0 23 24 23h757
q24 0 24 -23v-57q0 -24 -24 -24h-303q-12 0 -12 -14v-82h4q23 39 86 39h19q81 0 125.5 -44.5t44.5 -125.5v-42q-1 -80 -44.5 -125t-125.5 -45h-37q-24 0 -24 24v57q0 23 24 23h19q73 0 73 72v30q0 72 -77 72h-23q-64 0 -64 -63zM230 16v-65q0 -23 -22 -23h-70q-22 0 -22 23
v65q0 22 22 22h70q22 0 22 -22z" />
    <glyph glyph-name="uni092F093C" unicode="&#x95f;" horiz-adv-x="582" 
d="M193 448v15q0 56 -59 56h-140q-24 0 -24 24v58q0 22 24 22h594q24 0 24 -23v-57q0 -24 -24 -24h-54q-12 0 -12 -14v-482q0 -23 -24 -23h-69q-24 0 -24 23v102h-4q-31 -53 -116 -53h-33q-103 0 -157.5 61t-54.5 145v93q0 24 24 24h70q33 0 46 12t13 41zM393 519h-124v-5
q35 -16 35 -67v-25q0 -128 -143 -128h-6v-17q0 -102 111 -102h22q117 0 117 115v215q0 14 -12 14zM190 -5v-65q0 -23 -22 -23h-70q-22 0 -22 23v65q0 22 22 22h70q22 0 22 -22z" />
    <glyph glyph-name="uni0960" unicode="&#x960;" horiz-adv-x="791" 
d="M-7 623h803q24 0 24 -23v-57q0 -24 -24 -24h-334q-12 0 -12 -14v-150l78 62q17 13 34 13h144q24 0 24 -23v-186q0 -16 -8 -21.5t-26 -5.5h-25q-16 0 -25.5 -10t-9.5 -25v-9q0 -32 39 -32h40q31 0 31 -28v-43q0 -16 -8 -21.5t-26 -5.5h-45q-16 0 -25.5 -10t-9.5 -25v-9
q0 -32 39 -32h60q31 0 31 -28v-43q0 -16 -8 -21.5t-26 -5.5h-71q-139 0 -139 118v27q0 43 40 68q-36 23 -36 79v27q0 46 22.5 76.5t66.5 36.5q12 1 12 14v60l-173 -137v-192q0 -23 -24 -23h-69q-24 0 -24 23v104l-141 -114q-17 -13 -36 -13h-96q-18 0 -18 18q0 14 13 24
l185 147l89 63v6q0 71 -75 71h-26q-71 0 -71 -70v-15q0 -24 -23 -24h-68q-24 0 -24 24v21q0 81 44.5 126t126.5 45h15q73 0 101 -46h4v115q0 14 -12 14h-328q-23 0 -23 24v57q0 23 23 23z" />
    <glyph glyph-name="uni0961" unicode="&#x961;" horiz-adv-x="639" 
d="M-6 623h651q24 0 24 -23v-57q0 -24 -24 -24h-54q-12 0 -12 -14v-354q0 -16 -8 -21.5t-26 -5.5h-25q-16 0 -25.5 -10t-9.5 -25v-9q0 -32 39 -32h40q31 0 31 -28v-43q0 -16 -8 -21.5t-26 -5.5h-45q-16 0 -25.5 -10t-9.5 -25v-9q0 -32 39 -32h60q31 0 31 -28v-43
q0 -16 -8 -21.5t-26 -5.5h-71q-139 0 -139 118v27q0 43 40 68q-36 23 -36 79v27q0 99 79 113q12 3 12 14v51q0 35 -11 48t-37.5 13t-38 -14.5t-11.5 -51.5v-52q0 -24 -24 -24h-64q-24 0 -24 24v61q0 32 -11.5 45.5t-36.5 13.5q-51 0 -51 -72v-63q0 -72 73 -72h6q24 0 24 -23
v-57q0 -24 -24 -24h-24q-82 0 -126 44t-44 126v77q0 81 42.5 126t121 45t102.5 -57h4q20 55 90 55q45 0 60 -24h4v88q0 13 -10 14h-458q-24 0 -24 24v57q0 23 24 23z" />
    <glyph glyph-name="uni0964" unicode="&#x964;" horiz-adv-x="309" 
d="M116 23v577q0 23 24 23h69q24 0 24 -23v-577q0 -23 -24 -23h-69q-24 0 -24 23z" />
    <glyph glyph-name="uni0965" unicode="&#x965;" horiz-adv-x="546" 
d="M353 23v577q0 23 24 23h69q24 0 24 -23v-577q0 -23 -24 -23h-69q-24 0 -24 23zM116 23v577q0 23 24 23h69q24 0 24 -23v-577q0 -23 -24 -23h-69q-24 0 -24 23z" />
    <glyph glyph-name="uni0966" unicode="&#x966;" horiz-adv-x="521" 
d="M168 166q0 -33 14.5 -47.5t47.5 -14.5h61q33 0 47.5 14.5t14.5 47.5v311q0 33 -14.5 47.5t-47.5 14.5h-61q-33 0 -47.5 -14.5t-14.5 -47.5v-311zM473 161q0 -77 -42.5 -119t-119.5 -42h-100q-77 0 -120 42t-43 119v321q0 77 43 119t120 42h100q77 0 119.5 -42t42.5 -119
v-321z" />
    <glyph glyph-name="uni0967" unicode="&#x967;" horiz-adv-x="318" 
d="M18 469v77q0 16 15 25l94 59q23 13 37 13h75q21 0 21 -20v-603q0 -20 -19 -20h-81q-20 0 -20 20v495l-101 -57q-21 -9 -21 11z" />
    <glyph glyph-name="uni0968" unicode="&#x968;" horiz-adv-x="465" 
d="M37 20v94q0 59 50 99l186 155q45 37 45 82v31q0 33 -15.5 47.5t-49.5 14.5h-38q-33 0 -47 -14.5t-14 -47.5v-33q0 -21 -21 -21h-79q-21 0 -21 21v35q0 77 42.5 118.5t120.5 41.5h77q77 0 119.5 -41.5t42.5 -118.5v-40q0 -78 -60 -129l-189 -159q-15 -12 -15 -29v-20h244
q21 0 21 -21v-65q0 -20 -21 -20h-357q-21 0 -21 20z" />
    <glyph glyph-name="uni0969" unicode="&#x969;" horiz-adv-x="495" 
d="M213 371h52q34 0 49.5 14.5t15.5 46.5v49q0 33 -15.5 47.5t-49.5 14.5h-50q-34 0 -48 -14.5t-14 -47.5v-25q0 -21 -20 -21h-80q-20 0 -20 21v27q0 77 42.5 118.5t119.5 41.5h89q78 0 120.5 -41.5t42.5 -118.5v-51q0 -84 -79 -110q79 -17 79 -109v-53q0 -77 -42.5 -118.5
t-120.5 -41.5h-89q-77 0 -119.5 41.5t-42.5 118.5v30q0 20 20 20h80q20 0 20 -20v-28q0 -33 14 -47.5t48 -14.5h50q34 0 49.5 14.5t15.5 47.5v50q0 33 -15.5 47.5t-49.5 14.5h-52q-20 0 -20 20v57q0 20 20 20z" />
    <glyph glyph-name="uni096A" unicode="&#x96a;" horiz-adv-x="510" 
d="M306 222v320l-171 -320h171zM400 0h-74q-20 0 -20 20v98h-252q-16 0 -25.5 9.5t-9.5 25.5v37q0 28 10 47l205 377q14 29 42 29h107q16 0 25.5 -9.5t9.5 -25.5v-386h73q19 0 19 -18v-64q0 -22 -19 -22h-73v-98q0 -12 -4 -16t-14 -4z" />
    <glyph glyph-name="uni096B" unicode="&#x96b;" horiz-adv-x="495" 
d="M335 255q0 43 -15 59t-54 16h-50q-33 0 -41.5 -21.5t-28.5 -21.5h-78q-20 0 -20 20v315q0 21 20 21h346q20 0 20 -20v-72q0 -20 -20 -20h-246v-155q18 50 84 50h46q154 0 154 -153v-112q0 -77 -43 -119t-120 -42h-87q-77 0 -119.5 42t-42.5 119v22q0 20 20 20h79
q21 0 21 -20v-21q0 -33 14 -47.5t47 -14.5h49q65 0 65 62v93z" />
    <glyph glyph-name="uni096C" unicode="&#x96c;" horiz-adv-x="515" 
d="M168 166q0 -33 14.5 -47.5t47.5 -14.5h59q33 0 47.5 14.5t14.5 47.5v73q0 33 -14.5 47.5t-47.5 14.5h-53q-68 0 -68 -63v-72zM471 161q0 -77 -42.5 -119t-119.5 -42h-98q-77 0 -120 42t-43 119v321q0 77 43 119t120 42h210q21 0 21 -20v-65q0 -19 -21 -19h-191
q-33 0 -47.5 -14.5t-14.5 -47.5v-126q20 54 90 54h52q77 0 119 -41.5t42 -118.5v-84z" />
    <glyph glyph-name="uni096D" unicode="&#x96d;" horiz-adv-x="431" 
d="M171 0h-95q-21 0 -11 21l217 510h-237q-20 0 -20 20v72q0 20 20 20h348q19 0 19 -20v-79q0 -21 -13 -51l-196 -475q-8 -18 -32 -18z" />
    <glyph glyph-name="uni096E" unicode="&#x96e;" horiz-adv-x="522" 
d="M474 483v-37q0 -91 -66 -123q66 -32 66 -124v-39q0 -77 -42.5 -118.5t-119.5 -41.5h-101q-78 0 -120.5 41.5t-42.5 118.5v40q0 92 66 123q-66 32 -66 123v37q0 77 42.5 118.5t120.5 41.5h101q77 0 119.5 -41.5t42.5 -118.5zM168 477v-40q0 -65 62 -65h62q62 0 62 65v40
q0 33 -14 47.5t-48 14.5h-62q-34 0 -48 -14.5t-14 -47.5zM354 166v44q0 34 -14.5 49.5t-47.5 15.5h-62q-33 0 -47.5 -15.5t-14.5 -49.5v-44q0 -33 14 -47.5t48 -14.5h62q34 0 48 14.5t14 47.5z" />
    <glyph glyph-name="uni096F" unicode="&#x96f;" horiz-adv-x="503" 
d="M194 643h99q77 0 119.5 -42t42.5 -119v-321q0 -77 -42.5 -119t-119.5 -42h-211q-21 0 -21 20v65q0 19 21 19h191q33 0 47.5 14.5t14.5 47.5v62h-141q-77 0 -119.5 41.5t-42.5 118.5v94q0 77 42.5 119t119.5 42zM214 332h121v145q0 33 -14.5 47.5t-47.5 14.5h-59
q-33 0 -47.5 -14.5t-14.5 -47.5v-83q0 -33 14 -47.5t48 -14.5z" />
    <glyph glyph-name="uni0970" unicode="&#x970;" horiz-adv-x="444" 
d="M162 311q0 -34 12.5 -47t47.5 -13h4q35 0 48 13t13 47v19q0 34 -13 47t-48 13h-4q-35 0 -47.5 -13t-12.5 -47v-19zM402 307q0 -73 -40 -112t-115 -39h-46q-75 0 -115 39t-40 112v27q0 73 40 112t115 39h46q75 0 115 -39t40 -112v-27z" />
    <glyph glyph-name="uni0972" unicode="&#x972;" horiz-adv-x="609" 
d="M587 868h46q29 0 29 -34v-3q0 -64 -29.5 -98.5t-87.5 -34.5h-107q-57 0 -87.5 33.5t-30.5 94.5v8q0 34 29 34h49q26 0 26 -31v-10q0 -34 36 -34h63q35 0 35 34v10q0 31 29 31zM477 623h138q24 0 24 -23v-57q0 -24 -24 -24h-54q-12 0 -12 -14v-482q0 -23 -24 -23h-69
q-24 0 -24 23v161q0 14 -12 14h-78q-1 -79 -46 -121t-128 -42h-108q-24 0 -24 24v57q0 23 24 23h99q36 0 52.5 14.5t16.5 47.5v22q0 33 -16 47t-53 14h-45q-24 0 -24 24v55q0 25 23 25h46q36 0 52.5 14.5t16.5 47.5v8q0 33 -16 47t-53 14h-69q-24 0 -24 24v57q0 23 24 23h85
q86 0 126.5 -42.5t40.5 -127.5v-9q0 -78 -56 -106v-4q29 -10 43 -35h91q12 0 12 14v264q0 20 12 33t33 13z" />
    <glyph glyph-name="Wgrave" unicode="&#x1e80;" horiz-adv-x="808" 
d="M435 707h-65q-16 0 -27 13l-81 96q-6 8 -3 14t13 6h99q21 0 30 -19l45 -89q10 -21 -11 -21zM287 0h-140q-22 0 -25 21l-107 601q-3 21 21 21h104q23 0 24 -21l58 -493h7l96 496q3 18 21 18h112q19 0 22 -17l98 -497h8l57 492q1 22 24 22h104q24 0 21 -22l-108 -600
q-3 -21 -23 -21h-141q-21 0 -24 21l-90 469h-4l-91 -469q-4 -21 -24 -21z" />
    <glyph glyph-name="wgrave" unicode="&#x1e81;" horiz-adv-x="695" 
d="M377 574h-65q-16 0 -27 13l-81 96q-6 8 -3 14t13 6h99q21 0 30 -19l45 -89q10 -21 -11 -21zM259 0h-114q-19 0 -24 21l-100 468q-4 21 15 21h96q22 0 24 -21l45 -342h8l71 342q3 21 23 21h88q21 0 25 -21l69 -342h8l46 342q3 21 24 21h96q20 0 15 -21l-100 -468
q-4 -21 -24 -21h-114q-20 0 -24 21l-61 338h-8l-60 -338q-3 -21 -24 -21z" />
    <glyph glyph-name="Wacute" unicode="&#x1e82;" horiz-adv-x="808" 
d="M441 836h99q10 0 13 -6t-4 -14l-81 -96q-10 -13 -26 -13h-66q-20 0 -10 21l45 89q9 19 30 19zM287 0h-140q-22 0 -25 21l-107 601q-3 21 21 21h104q23 0 24 -21l58 -493h7l96 496q3 18 21 18h112q19 0 22 -17l98 -497h8l57 492q1 22 24 22h104q24 0 21 -22l-108 -600
q-3 -21 -23 -21h-141q-21 0 -24 21l-90 469h-4l-91 -469q-4 -21 -24 -21z" />
    <glyph glyph-name="wacute" unicode="&#x1e83;" horiz-adv-x="695" 
d="M380 703h99q10 0 13 -6t-4 -14l-81 -96q-11 -13 -28 -13h-64q-20 0 -10 21l45 89q10 19 30 19zM259 0h-114q-19 0 -24 21l-100 468q-4 21 15 21h96q22 0 24 -21l45 -342h8l71 342q3 21 23 21h88q21 0 25 -21l69 -342h8l46 342q3 21 24 21h96q20 0 15 -21l-100 -468
q-4 -21 -24 -21h-114q-20 0 -24 21l-61 338h-8l-60 -338q-3 -21 -24 -21z" />
    <glyph glyph-name="Wdieresis" unicode="&#x1e84;" horiz-adv-x="808" 
d="M249 728v88q0 20 20 20h79q20 0 20 -19v-89q0 -21 -20 -21h-79q-20 0 -20 21zM439 728v88q0 20 20 20h79q20 0 20 -19v-89q0 -21 -20 -21h-79q-20 0 -20 21zM287 0h-140q-22 0 -25 21l-107 601q-3 21 21 21h104q23 0 24 -21l58 -493h7l96 496q3 18 21 18h112q19 0 22 -17
l98 -497h8l57 492q1 22 24 22h104q24 0 21 -22l-108 -600q-3 -21 -23 -21h-141q-21 0 -24 21l-90 469h-4l-91 -469q-4 -21 -24 -21z" />
    <glyph glyph-name="wdieresis" unicode="&#x1e85;" horiz-adv-x="695" 
d="M193 595v88q0 20 20 20h79q20 0 20 -19v-89q0 -21 -20 -21h-79q-20 0 -20 21zM383 595v88q0 20 20 20h79q20 0 20 -19v-89q0 -21 -20 -21h-79q-20 0 -20 21zM259 0h-114q-19 0 -24 21l-100 468q-4 21 15 21h96q22 0 24 -21l45 -342h8l71 342q3 21 23 21h88q21 0 25 -21
l69 -342h8l46 342q3 21 24 21h96q20 0 15 -21l-100 -468q-4 -21 -24 -21h-114q-20 0 -24 21l-61 338h-8l-60 -338q-3 -21 -24 -21z" />
    <glyph glyph-name="uni1E9E" unicode="&#x1e9e;" horiz-adv-x="571" 
d="M170 0h-85q-21 0 -21 21v459q0 79 43 121t122 42h246q23 0 23 -21v-79q0 -17 -8 -31l-74 -133v-4h8q104 -8 104 -118v-95q0 -78 -43 -120t-122 -42h-81q-12 0 -16.5 4.5t-4.5 15.5v65q0 21 21 21h64q31 0 44.5 13.5t13.5 44.5v54q0 32 -13 47.5t-44 15.5h-40
q-12 0 -16.5 4.5t-4.5 15.5v55q0 20 8 36l75 140h-120q-31 0 -44.5 -13.5t-13.5 -44.5v-453q0 -21 -21 -21z" />
    <glyph glyph-name="Ygrave" unicode="&#x1ef2;" horiz-adv-x="517" 
d="M295 707h-66q-16 0 -26 13l-81 96q-7 8 -4 14t14 6h98q20 0 30 -19l45 -89q10 -21 -10 -21zM301 0h-85q-21 0 -21 21v214l-183 386q-4 9 0.5 15.5t13.5 6.5h106q16 0 24 -21l100 -243h7l98 243q7 21 24 21h106q10 0 14.5 -6t-0.5 -16l-183 -386v-214q0 -21 -21 -21z" />
    <glyph glyph-name="ygrave" unicode="&#x1ef3;" horiz-adv-x="472" 
d="M277 574h-66q-15 0 -26 13l-81 96q-7 8 -4 14t14 6h99q19 0 29 -19l45 -89q10 -21 -10 -21zM138 -169h-64q-20 0 -20 22v67q0 22 20 22h21q63 0 85.5 17.5t34.5 67.5h-53q-19 0 -25 21l-117 441q-6 21 15 21h89q20 0 25 -21l86 -369h4l85 369q4 21 25 21h84q25 0 20 -22
l-122 -488q-22 -83 -68 -126t-125 -43z" />
    <glyph glyph-name="uni200B" unicode="&#x200b;" horiz-adv-x="0" 
 />
    <glyph glyph-name="uni200C" unicode="&#x200c;" horiz-adv-x="0" 
d="M24 -230h-47v1041h47v-1041z" />
    <glyph glyph-name="uni200D" unicode="&#x200d;" horiz-adv-x="0" 
d="M24 -230h-47v865l-69 -73l-33 33l93 93l-95 95l33 33l95 -95l96 95l32 -32l-96 -96l96 -95l-33 -33l-72 75v-865z" />
    <glyph glyph-name="endash" unicode="&#x2013;" horiz-adv-x="395" 
d="M335 284h-274q-21 0 -21 22v42q0 22 21 22h274q20 0 20 -22v-42q0 -22 -20 -22z" />
    <glyph glyph-name="emdash" unicode="&#x2014;" horiz-adv-x="633" 
d="M40 306v42q0 22 21 22h512q20 0 20 -22v-42q0 -22 -20 -22h-512q-21 0 -21 22z" />
    <glyph glyph-name="quoteleft" unicode="&#x2018;" horiz-adv-x="185" 
d="M37 423v30q0 35 23 79l53 101q7 10 18 10q18 0 18 -20v-199q0 -20 -20 -20h-72q-20 0 -20 19z" />
    <glyph glyph-name="quoteright" unicode="&#x2019;" horiz-adv-x="185" 
d="M149 624v-30q0 -31 -23 -79l-53 -101q-7 -10 -19 -10q-17 0 -17 20v199q0 20 20 20h72q20 0 20 -19z" />
    <glyph glyph-name="quotesinglbase" unicode="&#x201a;" horiz-adv-x="187" 
d="M150 108v-30q0 -33 -23 -79l-53 -101q-7 -10 -19 -10q-17 0 -17 20v199q0 20 20 20h72q20 0 20 -19z" />
    <glyph glyph-name="quotedblleft" unicode="&#x201c;" horiz-adv-x="347" 
d="M199 423v30q0 35 23 79l53 101q7 10 18 10q18 0 18 -20v-199q0 -20 -20 -20h-72q-20 0 -20 19zM37 423v30q0 35 23 79l53 101q7 10 18 10q18 0 18 -20v-199q0 -20 -20 -20h-72q-20 0 -20 19z" />
    <glyph glyph-name="quotedblright" unicode="&#x201d;" horiz-adv-x="347" 
d="M149 624v-30q0 -31 -23 -79l-53 -101q-7 -10 -19 -10q-17 0 -17 20v199q0 20 20 20h72q20 0 20 -19zM311 624v-30q0 -31 -23 -79l-53 -101q-7 -10 -19 -10q-17 0 -17 20v199q0 20 20 20h72q20 0 20 -19z" />
    <glyph glyph-name="quotedblbase" unicode="&#x201e;" horiz-adv-x="349" 
d="M150 107v-30q0 -31 -23 -79l-53 -101q-7 -10 -19 -10q-17 0 -17 20v199q0 20 20 20h72q20 0 20 -19zM312 107v-30q0 -31 -23 -79l-53 -101q-7 -10 -19 -10q-17 0 -17 20v199q0 20 20 20h72q20 0 20 -19z" />
    <glyph glyph-name="dagger" unicode="&#x2020;" horiz-adv-x="408" 
d="M215 0h-27q-21 0 -24 21q-26 176 -26 300q0 47 16 85l-108 -17q-21 -2 -21 22v70q0 22 21 19l111 -18l-19 140q-4 21 21 21h85q21 0 21 -21l-20 -140l117 18q21 3 21 -19v-70q0 -24 -21 -22l-114 17q17 -39 17 -85q0 -124 -26 -300q-3 -21 -24 -21z" />
    <glyph glyph-name="daggerdbl" unicode="&#x2021;" horiz-adv-x="408" 
d="M25 411v70q0 22 21 19l111 -18l-19 140q-4 21 21 21h85q21 0 21 -21l-20 -140l117 18q21 3 21 -19v-70q0 -24 -21 -22l-114 17q17 -39 17 -86t-17 -86l114 17q21 4 21 -21v-71q0 -22 -21 -18l-117 18l20 -138q0 -21 -21 -21h-85q-25 0 -21 21l19 137l-111 -17
q-21 -4 -21 18v71q0 12 5 17.5t16 3.5l109 -16q-16 36 -16 84.5t16 86.5l-109 -17q-21 -2 -21 22z" />
    <glyph glyph-name="bullet" unicode="&#x2022;" horiz-adv-x="294" 
d="M235 351v-61q0 -34 -19 -52t-53 -18h-33q-35 0 -53.5 18t-18.5 52v61q0 33 19 51.5t53 18.5h33q34 0 53 -18.5t19 -51.5z" />
    <glyph glyph-name="ellipsis" unicode="&#x2026;" horiz-adv-x="607" 
d="M166 144v-123q0 -21 -19 -21h-89q-20 0 -20 22v121q0 20 20 20h89q19 0 19 -19zM371 144v-123q0 -21 -19 -21h-89q-20 0 -20 22v121q0 20 20 20h89q19 0 19 -19zM569 144v-123q0 -21 -19 -21h-89q-20 0 -20 22v121q0 20 20 20h89q19 0 19 -19z" />
    <glyph glyph-name="perthousand" unicode="&#x2030;" horiz-adv-x="1057" 
d="M156 644h59q52 0 79 -27t27 -78v-96q0 -51 -27 -78t-79 -27h-59q-51 0 -78.5 27t-27.5 78v96q0 51 27.5 78t78.5 27zM271 0h-52q-23 0 -15 21q32 82 119 300.5t119 300.5q9 21 27 21h52q23 0 15 -21l-238 -601q-7 -21 -27 -21zM197 573h-23q-22 0 -30 -8.5t-8 -30.5v-87
q0 -21 8 -29.5t30 -8.5h23q22 0 30 8.5t8 29.5v87q0 21 -8.5 30t-29.5 9zM525 306h59q52 0 79 -27t27 -78v-96q0 -51 -27 -78t-79 -27h-59q-51 0 -78.5 27t-27.5 78v96q0 51 27.5 78t78.5 27zM567 235h-23q-22 0 -30 -8.5t-8 -29.5v-87q0 -22 8 -30.5t30 -8.5h23
q21 0 29.5 9t8.5 30v87q0 21 -8 29.5t-30 8.5zM887 235h-23q-22 0 -30 -8.5t-8 -29.5v-87q0 -22 8 -30.5t30 -8.5h23q21 0 29.5 9t8.5 30v87q0 21 -8 29.5t-30 8.5zM845 306h59q52 0 79 -27t27 -78v-96q0 -51 -27 -78t-79 -27h-59q-51 0 -78.5 27t-27.5 78v96q0 51 27.5 78
t78.5 27z" />
    <glyph glyph-name="guilsinglleft" unicode="&#x2039;" horiz-adv-x="280" 
d="M235 158v-63q0 -11 -6 -14t-15 4l-149 115q-12 9 -16 15.5t-4 21.5v41q0 21 20 35l149 115q9 7 15 4t6 -14v-63q0 -17 -20 -30l-91 -68l91 -69q20 -13 20 -30z" />
    <glyph glyph-name="guilsinglright" unicode="&#x203a;" horiz-adv-x="280" 
d="M45 355v63q0 11 5.5 14t14.5 -4l150 -115q20 -14 20 -35v-41q0 -15 -4 -21.5t-16 -15.5l-150 -115q-9 -7 -14.5 -4t-5.5 14v63q0 17 19 30l92 69l-92 68q-19 13 -19 30z" />
    <glyph glyph-name="fraction" unicode="&#x2044;" horiz-adv-x="104" 
d="M-162 0h-39q-12 0 -15.5 5.5t3.5 15.5q61 83 221.5 300.5t221.5 300.5q15 21 34 21h42q11 0 14.5 -5.5t-3.5 -15.5l-443 -601q-15 -21 -36 -21z" />
    <glyph glyph-name="Euro" unicode="&#x20ac;" horiz-adv-x="547" 
d="M320 0h-65q-79 0 -122 42t-43 120v48h-44q-23 0 -23 24v38q0 13 5 18.5t18 5.5h44v44h-44q-23 0 -23 23v38q0 13 5 18.5t18 5.5h44v56q0 78 43 120t122 42h65q79 0 122 -42t43 -120v-20q0 -21 -21 -21h-85q-21 0 -21 21v18q0 32 -13.5 45t-45.5 13h-23q-33 0 -47.5 -13.5
t-14.5 -44.5v-54h92q13 0 18 -5.5t5 -18.5v-38q0 -23 -23 -23h-92v-44h92q13 0 18 -5.5t5 -18.5v-38q0 -24 -23 -24h-92v-46q0 -31 14.5 -44.5t47.5 -13.5h23q32 0 45.5 13t13.5 45v18q0 21 21 21h85q21 0 21 -21v-20q0 -78 -43 -120t-122 -42z" />
    <glyph glyph-name="uni20B9" unicode="&#x20b9;" horiz-adv-x="522" 
d="M340 519v-4q21 -11 21 -40v-6h90q24 0 24 -23v-57q0 -24 -24 -24h-90v-4q0 -75 -47 -118.5t-126 -43.5h-7l143 -156q9 -11 9 -21q0 -22 -21 -22h-82q-8 0 -21 13l-128 153l-34 34v72q0 13 8.5 21t21.5 8h92q73 0 73 59v5h-171q-24 0 -24 24v58q0 22 24 22h171v11
q0 39 -49 39h-122q-24 0 -24 24v58q0 22 24 22h380q24 0 24 -23v-57q0 -24 -24 -24h-111z" />
    <glyph glyph-name="trademark" unicode="&#x2122;" horiz-adv-x="589" 
d="M468 643h66q10 0 10 -10v-224q0 -11 -10 -11h-38q-11 0 -11 11v164h-2l-39 -104q0 -10 -10 -10h-42q-6 0 -11 10l-39 104h-3v-164q0 -11 -10 -11h-38q-10 0 -10 11v224q0 10 10 10h67q8 0 10 -7l44 -112h2l44 112q2 7 10 7zM114 409v183h-59q-10 0 -10 10v31q0 10 10 10
h175q11 0 11 -10v-31q0 -10 -11 -10h-58v-183q0 -11 -9 -11h-38q-11 0 -11 11z" />
    <glyph glyph-name="uni2126" unicode="&#x2126;" horiz-adv-x="661" 
d="M299 89v-68q0 -21 -20 -21h-218q-21 0 -21 21v68q0 22 21 22h68v4q-43 41 -43 115v251q0 78 43 120t122 42h158q78 0 121.5 -42t43.5 -120v-251q0 -74 -43 -115v-4h69q21 0 21 -22v-68q0 -21 -21 -21h-219q-20 0 -20 21v68q0 22 20 22h8q32 0 45 13.5t13 44.5v306
q0 31 -13.5 44t-45.5 13h-116q-32 0 -45.5 -13t-13.5 -44v-306q0 -31 13 -44.5t45 -13.5h8q20 0 20 -22z" />
    <glyph glyph-name="partialdiff" unicode="&#x2202;" horiz-adv-x="529" 
d="M282 300h-28q-67 0 -67 -59v-72q0 -32 13 -45.5t45 -13.5h39q32 0 45 13.5t13 45.5v55q0 38 -11 57t-49 19zM150 540q-23 0 -23 20v56q0 32 37 32q166 0 235.5 -74.5t69.5 -264.5v-146q0 -78 -43 -120.5t-121 -42.5h-80q-79 0 -122 42t-43 121v84q0 79 43 121t122 42h24
q33 0 64.5 -13.5t42.5 -40.5h4q0 106 -46.5 145t-163.5 39z" />
    <glyph glyph-name="uni2206" unicode="&#x2206;" horiz-adv-x="671" 
d="M286 643h100q22 0 31 -21l222 -600q8 -22 -13 -22h-580q-22 0 -14 22l222 600q9 21 32 21zM333 522l-139 -411h283l-140 411h-4z" />
    <glyph glyph-name="minus" unicode="&#x2212;" horiz-adv-x="565" 
d="M93 373h379q13 0 18 -5.5t5 -18.5v-56q0 -23 -23 -23h-379q-23 0 -23 23v56q0 13 5 18.5t18 5.5z" />
    <glyph glyph-name="approxequal" unicode="&#x2248;" horiz-adv-x="565" 
d="M278 183q-68 16 -98 16t-60.5 -15t-35.5 -15q-14 0 -14 13v59q0 26 32.5 39t71.5 13t105.5 -16t101 -16t65 15t35.5 15q14 0 14 -13v-59q0 -26 -32.5 -39t-74.5 -13t-110 16zM278 365q-68 16 -98 16t-60.5 -15t-35.5 -15q-14 0 -14 13v59q0 26 32.5 39t71.5 13
t105.5 -15.5t101 -15.5t65 14.5t35.5 14.5q14 0 14 -13v-59q0 -26 -32.5 -39t-74.5 -13t-110 16z" />
    <glyph glyph-name="notequal" unicode="&#x2260;" horiz-adv-x="565" 
d="M227 82h-45q-23 0 -15 21l23 69h-97q-13 0 -18 5.5t-5 18.5v54q0 13 5 18.5t18 5.5h130l32 95h-162q-13 0 -18 5.5t-5 18.5v54q0 13 5 18.5t18 5.5h196l22 66q8 21 27 21h45q25 0 15 -21l-21 -66h95q13 0 18 -5.5t5 -18.5v-54q0 -13 -5 -18.5t-18 -5.5h-129l-32 -95h161
q13 0 18 -5.5t5 -18.5v-54q0 -13 -5 -18.5t-18 -5.5h-194l-24 -69q-7 -21 -27 -21z" />
    <glyph glyph-name="lessequal" unicode="&#x2264;" horiz-adv-x="565" 
d="M495 314v-57q0 -20 -24 -14l-374 81q-27 7 -27 37v52q0 31 27 38l374 81q24 6 24 -14v-57q0 -25 -19 -29l-266 -45l266 -44q19 -5 19 -29zM93 206h379q13 0 18 -5.5t5 -18.5v-50q0 -24 -23 -24h-379q-23 0 -23 24v50q0 13 5 18.5t18 5.5z" />
    <glyph glyph-name="greaterequal" unicode="&#x2265;" horiz-adv-x="565" 
d="M93 206h379q13 0 18 -5.5t5 -18.5v-50q0 -24 -23 -24h-379q-23 0 -23 24v50q0 13 5 18.5t18 5.5zM70 257v57q0 24 19 29l266 44l-266 45q-19 4 -19 29v57q0 20 24 14l374 -81q27 -7 27 -38v-52q0 -30 -27 -37l-374 -81q-24 -6 -24 14z" />
    <glyph glyph-name="uni25CC" unicode="&#x25cc;" horiz-adv-x="701" 
d="M285 571q0 19 12.5 31.5t31.5 12.5t31.5 -12.5t12.5 -31.5t-12.5 -31.5t-31.5 -12.5t-31.5 12.5t-12.5 31.5zM424 525q-13 13 -13 32t12.5 31.5t32 12.5t31.5 -12.5t12 -31.5t-12.5 -32t-31 -13t-31.5 13zM506 488q0 19 12.5 32t31.5 13t31.5 -12.5t12.5 -32t-12.5 -32
t-31.5 -12.5t-31.5 12.5t-12.5 31.5zM556 370q0 20 12 32t31.5 12t32 -12.5t12.5 -31.5t-12.5 -31.5t-32 -12.5t-31.5 12t-12 32zM559 204.5q-13 12.5 -13 32t13 32t31.5 12.5t31 -13t12.5 -32t-12.5 -31.5t-31 -12.5t-31.5 12.5zM473 138q0 19 12.5 31.5t31.5 12.5
t32 -12.5t13 -31.5t-13 -31.5t-32 -12.5t-31.5 12.5t-12.5 31.5zM352 85q0 19 12 31.5t32 12.5t32.5 -12.5t12.5 -31.5t-12.5 -31.5t-32.5 -12.5t-32 12.5t-12 31.5zM238 68q-13 13 -13 32t13 32t32 13t31.5 -13t12.5 -32t-12.5 -32t-31.5 -13t-32 13zM136 144
q-12 12 -12 31.5t12.5 32t31.5 12.5t31.5 -12.5t12.5 -31.5t-12.5 -31.5t-32 -12.5t-31.5 12zM72 292q0 19 12.5 32t31.5 13t31.5 -12.5t12.5 -32t-12.5 -31.5t-31.5 -12t-31.5 12t-12.5 31zM85 418q0 19 13 31.5t32 12.5t32 -12.5t13 -31.5t-13 -31.5t-32 -12.5t-32 12.5
t-13 31.5zM179.5 495.5q-12.5 12.5 -12.5 32t12.5 32t31.5 12.5t31.5 -12.5t12.5 -32t-12.5 -32t-31.5 -12.5t-31.5 12.5z" />
    <glyph glyph-name="commaaccent" unicode="&#xf6c3;" horiz-adv-x="0" 
d="M312 -51v-47q0 -33 -23 -62l-53 -68q-8 -10 -19 -10q-17 0 -17 20v166q0 20 20 20h72q20 0 20 -19z" />
    <glyph glyph-name="uni0915094D" horiz-adv-x="523" 
d="M509 358h-23q-64 0 -64 -63v-271q0 -24 -24 -24h-67q-23 0 -23 24v95h-4q-23 -39 -86 -39h-19q-81 0 -125.5 44.5t-44.5 125.5v42q1 80 44.5 125t125.5 45h37q24 0 24 -24v-57q0 -23 -24 -23h-19q-73 0 -73 -72v-30q0 -72 77 -72h23q64 0 64 63v258q0 14 -12 14h-302
q-24 0 -24 24v57q0 23 24 23h649q24 0 24 -23v-57q0 -24 -24 -24h-209q-12 0 -12 -14v-82h4q23 39 86 39h19q95 0 131 -73q3 -6 3 -15.5t-16 -21.5l-36 -27q-11 -9 -19 -9t-19 13q-24 29 -66 29z" />
    <glyph glyph-name="uni0916094D" horiz-adv-x="502" 
d="M499 103h-46q-72 0 -108 42t-36 114v47q0 68 40.5 108.5t118.5 40.5h19q25 0 25 -24v-56q0 -22 -25 -22h-7q-34 0 -46 -13.5t-12 -49.5v-23q0 -37 13.5 -51t48.5 -14h7q21 0 29.5 3.5t13 5t9.5 6t6.5 6t5.5 6t8.5 10t12.5 5.5t19 -9l23 -18q16 -12 16 -21.5t-3 -15.5
q-19 -35 -54 -56t-78 -21zM-6 623h595q24 0 24 -23v-57q0 -24 -24 -24h-293q-12 0 -12 -14v-139q0 -57 -30.5 -93t-83.5 -38h-8l124 -196q6 -8 6 -17q0 -22 -21 -22h-77q-13 0 -21 13l-114 185l-29 38v72q0 13 8.5 21t21.5 8h74q35 0 35 36v132q0 13 -10 14h-165
q-24 0 -24 24v57q0 23 24 23z" />
    <glyph glyph-name="uni0917094D" horiz-adv-x="285" 
d="M291 519h-38q-12 0 -12 -14v-149q0 -83 -43 -127t-124 -44h-25q-24 0 -24 24v59q0 24 24 24h5q37 0 53.5 16.5t16.5 52.5v144q0 13 -10 14h-120q-24 0 -24 24v57q0 23 24 23h297q24 0 24 -23v-57q0 -24 -24 -24z" />
    <glyph glyph-name="uni0918094D" horiz-adv-x="299" 
d="M210 178h55q32 0 46.5 11.5t20 16.5t13.5 16q19 26 29.5 26t21.5 -9l28 -22q16 -12 16 -21.5t-3 -15.5q-59 -108 -163 -108h-83q-73 0 -112 39.5t-39 113.5v28q0 68 54 87v4q-54 18 -54 81v48q0 29 24 42v4h-70q-24 0 -24 25v56q0 23 24 23h415q24 0 24 -23v-57
q0 -24 -24 -24h-223q-31 0 -31 -36v-50q0 -35 36 -35h62q24 0 24 -24v-57q0 -23 -24 -23h-62q-16 0 -26 -10t-10 -28v-20q0 -34 11.5 -46t43.5 -12z" />
    <glyph glyph-name="uni0919094D" horiz-adv-x="544" 
d="M195 -52h66q19 0 33 -20l92 -135q6 -8 6 -17q0 -22 -21 -22h-76q-16 0 -26 16l-89 150q-3 4 -3 10q0 18 18 18zM529 359v-65q0 -23 -22 -23h-70q-22 0 -22 23v65q0 22 22 22h70q22 0 22 -22zM-6 623h556q24 0 24 -23v-58q0 -23 -24 -23h-150q-12 0 -12 -14v-90
q0 -55 -59 -55h-139q-17 0 -24 -6t-7 -26v-4q0 -21 7 -27t24 -6h95q61 0 95.5 -30t34.5 -88v-44q0 -60 -35 -94.5t-95 -34.5h-85q-77 0 -118.5 32t-41.5 111v4q0 29 25 29h62q22 0 22 -29v-4q0 -35 27 -40q11 -2 36 -2h54q31 0 31 37v21q0 21 -7.5 29.5t-23.5 8.5h-86
q-71 0 -103 27.5t-32 90.5v26q0 60 36.5 91t98.5 31h80q12 0 12 14v28q0 14 -11 14h-267q-24 0 -24 23v58q0 23 24 23z" />
    <glyph glyph-name="uni091A094D" horiz-adv-x="352" 
d="M317 79h-54q-81 0 -124 42.5t-43 123.5v21q0 63 38 79v4h-87q-24 0 -24 23v57q0 24 24 24h280q24 0 24 -24v-57q0 -23 -24 -23h-50q-66 0 -66 -71v-26q0 -69 72 -69h32q24 0 35.5 5.5t17 8.5t12.5 10q13 13 20 21q20 25 30 25t21 -9l28 -22q16 -12 16 -21.5t-3 -15.5
q-23 -42 -68 -74t-107 -32zM472 519h-478q-24 0 -24 24v57q0 23 24 23h478q24 0 24 -23v-57q0 -24 -24 -24z" />
    <glyph glyph-name="uni091B094D" horiz-adv-x="553" 
d="M-6 623h565q24 0 24 -23v-56q0 -24 -24 -25h-343q-48 0 -48 -49v-71q0 -36 37 -36h32q24 0 24 -24v-56q0 -22 -24 -22h-22q-47 0 -47 -47v-16q0 -31 15 -43t51 -12h94q38 0 53 14t15 51v111q0 11 -7 18t-19 7h-32q-24 0 -24 24v58q0 22 24 22h41q130 0 130 -131v-126
q0 -63 -39 -108.5t-116 -45.5h-133q-78 0 -123.5 38.5t-45.5 109.5v30q0 74 55 92v4q-26 4 -40.5 23.5t-14.5 46.5v86q0 36 28 48v4h-86q-24 1 -24 25v56q0 23 24 23z" />
    <glyph glyph-name="uni091C094D" horiz-adv-x="322" 
d="M265 331v-4q33 -13 33 -54v-66q0 -74 -37.5 -117.5t-107.5 -43.5h-105q-24 0 -24 23v57q0 24 24 24h66q47 0 60 21q9 16 9 47v47q0 66 -70 66h-26q-24 0 -24 23v64q0 21 23 21h285q24 0 24 -23v-60q0 -24 -24 -25h-106zM-6 519q-24 0 -24 24v57q0 23 24 23h377
q24 0 24 -23v-56q0 -24 -24 -25h-377z" />
    <glyph glyph-name="uni091D094D" horiz-adv-x="403" 
d="M457 192h-71q1 -4 1 -17v-44q0 -60 -35 -95.5t-95 -35.5h-32q-48 0 -62 28h-4v-69q0 -23 -24 -23h-67q-24 0 -24 23v188q0 23 24 23h67q24 0 24 -23v-4q0 -42 45 -42h36q34 0 34 38v19q0 36 -34 36h-56q-135 0 -135 128v19q0 60 36.5 91t98.5 31h48q12 0 12 14v28
q0 14 -11 14h-239q-24 0 -24 24v57q0 23 24 23h463q24 0 24 -23v-57q0 -24 -24 -24h-85q-12 0 -12 -14v-90q0 -55 -59 -55h-108q-17 0 -23.5 -7.5t-6.5 -24.5v-8q0 -27 30 -27h264q24 0 24 -23v-54q0 -24 -24 -24z" />
    <glyph glyph-name="uni091E094D" horiz-adv-x="316" 
d="M291 335l2 -14q1 -10 14 -10h68q24 0 24 -23v-58q0 -24 -24 -24h-68q-11 0 -13 -12q0 -4 -3 -16q-24 -117 -165 -117h-73q-24 0 -24 24v58q0 22 24 22h66q74 0 74 71v43q0 71 -72 71h-51q-24 0 -24 22v58q0 24 24 24h56q142 0 165 -119zM375 519h-381q-24 0 -24 23v58
q0 23 24 23h381q24 0 24 -23v-57q0 -24 -24 -24z" />
    <glyph glyph-name="uni091F094D" horiz-adv-x="466" 
d="M209 438h58q12 0 12 14v53q0 14 -11 14h-274q-24 0 -24 24v57q0 23 24 23h477q24 0 24 -23v-57q0 -24 -24 -24h-64q-12 0 -12 -14v-115q0 -55 -59 -55h-113q-38 0 -55 -15t-17 -50v-70q0 -35 17 -50t55 -15h37q39 0 56 13t17 49v4q0 29 22 29h62q25 0 25 -29v-4
q0 -166 -170 -166h-63q-85 0 -128 46t-43 126v67q0 79 43 123.5t128 44.5zM201 -32h66q19 0 33 -20l92 -135q6 -7 6 -17q0 -22 -21 -22h-76q-16 0 -26 16l-89 150q-3 4 -3 10q0 18 18 18z" />
    <glyph glyph-name="uni0920094D" horiz-adv-x="499" 
d="M272 335h-50q-37 0 -53 -16t-16 -52v-61q0 -72 73 -72h40q73 0 73 72v61q0 68 -67 68zM505 519h-89q-12 0 -12 -14v-47q0 -42 -35 -52v-4q38 -5 61.5 -32.5t23.5 -73.5v-104q0 -77 -45.5 -119.5t-125.5 -42.5h-75q-82 0 -126 44.5t-44 126.5v68q0 81 44.5 125.5
t126.5 44.5h29q49 0 49 45v21q0 13 -10 14h-283q-24 0 -24 24v56q0 24 24 24h511q24 0 24 -24v-56q0 -24 -24 -24zM209 -32h66q19 0 33 -20l92 -135q6 -7 6 -17q0 -22 -21 -22h-76q-16 0 -26 16l-89 150q-3 4 -3 10q0 18 18 18z" />
    <glyph glyph-name="uni0921094D" horiz-adv-x="458" 
d="M-6 623h470q24 0 24 -23v-58q0 -23 -24 -23h-64q-12 0 -12 -14v-90q0 -55 -59 -55h-139q-17 0 -24 -6t-7 -26v-4q0 -21 7 -27t24 -6h95q61 0 95.5 -30t34.5 -88v-44q0 -60 -35 -94.5t-95 -34.5h-85q-77 0 -118.5 32t-41.5 111v4q0 29 25 29h62q22 0 22 -29v-4
q0 -35 27 -40q11 -2 36 -2h54q31 0 31 37v21q0 21 -7.5 29.5t-23.5 8.5h-86q-71 0 -103 27.5t-32 90.5v26q0 60 36.5 91t98.5 31h80q12 0 12 14v28q0 14 -11 14h-267q-24 0 -24 23v58q0 23 24 23zM187 -52h66q19 0 33 -20l92 -135q6 -8 6 -17q0 -22 -21 -22h-76
q-16 0 -26 16l-89 150q-3 4 -3 10q0 18 18 18z" />
    <glyph glyph-name="uni0922094D" horiz-adv-x="487" 
d="M299 31h-87q-84 0 -125.5 44.5t-41.5 124.5v96q0 166 163 166h89q11 0 11 13v31q0 13 -11 13h-303q-24 0 -24 24v57q0 23 24 23h499q24 0 24 -23v-57q0 -24 -24 -24h-57q-12 0 -12 -14v-93q0 -25 -13.5 -37.5t-36.5 -12.5h-153q-33 0 -48 -16t-15 -52v-101
q0 -35 15 -48.5t53 -13.5h72q30 0 42 11.5t12 38.5v19q0 21 -21.5 21t-21.5 -21v-16q0 -24 -23 -24h-38q-20 0 -27 6t-7 21v18q0 103 111 103q129 0 129 -110v-22q0 -145 -155 -145zM215 -32h66q19 0 33 -20l92 -135q6 -8 6 -17q0 -22 -21 -22h-76q-16 0 -26 16l-89 150
q-3 4 -3 10q0 18 18 18z" />
    <glyph glyph-name="uni0923094D" horiz-adv-x="431" 
d="M264 519h-87q-12 0 -12 -14v-203q0 -55 54 -55h4q53 0 53 55v203q0 14 -12 14zM437 519h-34q-12 0 -12 -14v-199q0 -78 -42 -119.5t-120 -41.5h-18q-77 0 -119 42t-42 119v199q0 14 -12 14h-44q-24 0 -24 24v57q0 23 24 23h443q24 0 24 -23v-57q0 -24 -24 -24z" />
    <glyph glyph-name="uni0924094D" horiz-adv-x="269" 
d="M325 330h-93q-73 0 -73 -70v-91q0 -39 14 -54t55 -15h8q24 0 24 -24v-52q0 -24 -24 -24h-39q-80 0 -117.5 43t-37.5 130v94q0 81 45.5 125.5t127.5 44.5h110q24 0 24 -23v-60q0 -24 -24 -24zM325 519h-331q-24 0 -24 24v57q0 23 24 23h331q24 0 24 -23v-57q0 -24 -24 -24
z" />
    <glyph glyph-name="uni0925094D" horiz-adv-x="375" 
d="M260 182h55q35 0 53 13t25 19.5t18 18.5t14 15q12 14 22.5 14t21.5 -9l28 -22q16 -12 16 -21.5t-3 -15.5q-23 -42 -76.5 -78t-119.5 -36h-70q-54 0 -94 18t-62 48q-43 57 -43 129v93q0 24 24 24h118q69 0 69 49v58q0 13 -10 21.5t-27 8.5q-36 0 -36 -30v-41
q0 -24 -22 -24h-64q-22 0 -22 24v55q0 51 40 83.5t103.5 32.5t106 -32t42.5 -96v-67q0 -146 -171 -146h-32v-13q0 -46 21 -69.5t75 -23.5z" />
    <glyph glyph-name="uni0926094D" horiz-adv-x="483" 
d="M203 462h97q11 0 11 13v31q0 13 -11 13h-306q-24 0 -24 24v57q0 23 24 23h495q24 0 24 -23v-57q0 -24 -24 -24h-50q-12 0 -12 -14v-97q0 -25 -13.5 -37.5t-36.5 -12.5h-156q-33 0 -48 -16t-15 -52v-63q0 -35 15.5 -48.5t52.5 -13.5h46q45 0 45 48v47q0 23 24 23h67
q24 0 24 -23v-237q0 -23 -24 -23h-67q-24 0 -24 23v69h-4q-15 -31 -63 -31h-43q-84 0 -125.5 44.5t-41.5 124.5v66q0 166 163 166zM187 0h66q19 0 33 -20l92 -135q6 -7 6 -17q0 -22 -21 -22h-76q-16 0 -26 16l-89 150q-3 5 -3 10q0 18 18 18z" />
    <glyph glyph-name="uni0927094D" horiz-adv-x="300" 
d="M302 623h150q24 0 24 -23v-57q0 -24 -24 -24h-150q-24 0 -24 24v57q0 23 24 23zM210 178h55q32 0 46.5 11t19.5 16t13.5 16t15.5 19t16 8t20 -9l28 -22q16 -12 16 -21.5t-3 -15.5q-59 -108 -163 -108h-83q-73 0 -112 39.5t-39 113.5v28q0 68 54 87v4q-54 18 -54 81v48
q0 29 24 42v4h-70q-24 0 -24 25v56q0 23 24 23h198q24 0 24 -23v-57q0 -24 -24 -24h-6q-31 0 -31 -36v-50q0 -35 36 -35h62q24 0 24 -24v-57q0 -23 -24 -23h-62q-16 0 -26 -10t-10 -28v-20q0 -34 11.5 -46t43.5 -12z" />
    <glyph glyph-name="uni0928094D" horiz-adv-x="257" 
d="M-6 623h318q24 0 24 -23v-57q0 -24 -24 -24h-318q-24 0 -24 24v57q0 23 24 23zM78 182q-54 0 -54 102q0 53 34.5 85t89.5 32h164q24 0 24 -23v-58q0 -24 -24 -24h-118q-19 0 -29 -2q-25 -5 -25 -35l9 -54q0 -23 -22 -23h-49z" />
    <glyph glyph-name="uni092A094D" horiz-adv-x="264" 
d="M251 152h-41q-73 0 -116.5 43t-43.5 116v194q0 13 -10 14h-46q-24 0 -24 25v56q0 23 24 23h377q24 0 24 -23v-57q0 -24 -24 -24h-192q-12 0 -12 -14v-181q0 -34 14.5 -50t49.5 -16h19q38 0 60 21q8 7 19 21.5t16.5 21t15 6.5t20.5 -9l28 -22q16 -12 16 -21.5t-3 -15.5
q-59 -108 -171 -108z" />
    <glyph glyph-name="uni092B094D" horiz-adv-x="536" 
d="M231 258h14q39 0 56.5 19t17.5 50v178q0 14 -12 14h-128q-12 0 -12 -14v-181q0 -34 14.5 -50t49.5 -16zM522 348h-22q-64 0 -64 -63v-261q0 -24 -24 -24h-69q-24 0 -24 23v169h-4q-24 -40 -89 -40h-16q-73 0 -116.5 43t-43.5 116v194q0 13 -10 14h-46q-24 0 -24 25v56
q0 23 24 23h669q24 0 24 -23v-57q0 -24 -24 -24h-215q-12 0 -12 -14v-92h4q23 39 86 39h18q95 0 131 -73q3 -6 3 -15.5t-16 -21.5l-36 -27q-11 -9 -18.5 -9t-22.5 17q-21 25 -63 25z" />
    <glyph glyph-name="uni092C094D" horiz-adv-x="282" 
d="M-6 623h417q24 0 24 -23v-57q0 -24 -24 -24h-417q-24 0 -24 24v57q0 23 24 23zM365 281h26q24 0 24 -24v-6q0 -89 -40 -135.5t-113 -46.5h-51q-80 0 -125.5 45.5t-45.5 126.5v51q1 80 44.5 125t125.5 45h64q24 0 24 -24v-53q0 -23 -24 -23h-50q-18 0 -33 -5l149 -133
q1 5 1 17v16q0 24 24 24zM222 169h47q20 0 32 4l-149 133q-1 -5 -1 -16v-49q0 -36 16.5 -54t54.5 -18z" />
    <glyph glyph-name="uni092D094D" horiz-adv-x="277" 
d="M370 519h-95q-24 0 -24 24v57q0 23 24 23h95q24 0 24 -23v-57q0 -24 -24 -24zM370 228h-181q-12 0 -12 -14v-56q0 -23 -24 -23h-69q-24 0 -24 23v290q0 34 -11 52.5t-44 18.5h-11q-24 0 -24 24v56q0 24 24 24h13q82 0 126 -44.5t44 -126.5v-108q0 -14 12 -14h181
q24 0 24 -23v-55q0 -24 -24 -24z" />
    <glyph glyph-name="uni092E094D" horiz-adv-x="277" 
d="M370 228h-186q-12 0 -12 -14v-56q0 -23 -24 -23h-69q-24 0 -24 23v347q0 13 -10 14h-51q-24 0 -24 24v58q0 22 24 22h376q24 0 24 -23v-57q0 -24 -24 -24h-186q-12 0 -12 -14v-161q0 -14 12 -14h186q24 0 24 -23v-55q0 -24 -24 -24z" />
    <glyph glyph-name="uni092F094D" horiz-adv-x="325" 
d="M266 175h22q22 0 42 8.5t29.5 16.5t24.5 24.5t22 23.5t16 7t20 -9l28 -22q16 -12 16 -21.5t-3 -15.5q-23 -42 -77.5 -78.5t-120.5 -36.5h-33q-103 0 -157.5 61t-54.5 145v93q0 24 24 24h70q33 0 46 12t13 41v15q0 56 -59 56h-140q-24 0 -24 24v58q0 22 24 22h427
q24 0 24 -23v-57q0 -24 -24 -24h-152v-5q35 -16 35 -67v-25q0 -64 -35 -95t-108 -33h-6v-17q0 -102 111 -102z" />
    <glyph glyph-name="uni0930094D" horiz-adv-x="339" 
d="M169 373v132q0 13 -10 14h-165q-24 0 -24 24v57q0 23 24 23h351q24 0 24 -23v-57q0 -24 -24 -24h-47q-12 0 -12 -14v-139q0 -59 -31.5 -95t-85.5 -36h-5l124 -196q6 -8 6 -17q0 -22 -21 -22h-79q-13 0 -21 13l-114 185l-29 38v72q0 13 8.5 21t21.5 8h74q35 0 35 36z
M137 -52h66q19 0 33 -20l92 -135q6 -8 6 -17q0 -22 -21 -22h-76q-16 0 -26 16l-89 150q-3 4 -3 10q0 18 18 18z" />
    <glyph glyph-name="uni0932094D" horiz-adv-x="416" 
d="M400 441q51 0 89.5 -24t57.5 -62q4 -8 4 -18t-12 -21l-27 -23q-10 -8 -18.5 -8t-12.5 5.5t-7 11t-5 7.5t-5.5 7t-8 7.5t-10.5 4.5q-13 6 -35.5 6t-34 -14.5t-11.5 -51.5v-52q0 -24 -24 -24h-64q-24 0 -24 24v61q0 32 -11.5 45.5t-36.5 13.5q-51 0 -51 -72v-63
q0 -72 73 -72h6q24 0 24 -23v-57q0 -24 -24 -24h-24q-82 0 -126 44t-44 126v77q0 81 42.5 126t121 45t102.5 -57h4q20 55 92 55zM522 519h-528q-24 0 -24 24v57q0 23 24 23h528q24 0 24 -23v-57q0 -24 -24 -24z" />
    <glyph glyph-name="uni0933094D" horiz-adv-x="666" 
d="M-6 623h678q24 0 24 -23v-57q0 -24 -24 -24h-678q-24 0 -24 24v57q0 23 24 23zM446 443h9q83 0 125.5 -45t42.5 -131v-53q0 -86 -42.5 -131t-125.5 -45h-9q-77 0 -115 40q-40 -40 -116 -40h-9q-83 0 -125.5 45t-42.5 131v53q0 86 42.5 131t125.5 45h9q76 0 116 -40
q38 40 115 40zM274 214v53q0 37 -13.5 55.5t-45.5 18.5h-6q-32 0 -45.5 -18.5t-13.5 -55.5v-53q0 -37 13.5 -55.5t45.5 -18.5h6q32 0 45.5 18.5t13.5 55.5zM511 214v53q0 37 -13.5 55.5t-45.5 18.5h-6q-32 0 -45.5 -18.5t-13.5 -55.5v-53q0 -37 13.5 -55.5t45.5 -18.5h6
q32 0 45.5 18.5t13.5 55.5z" />
    <glyph glyph-name="uni0935094D" horiz-adv-x="282" 
d="M341 241v16q0 24 24 24h26q24 0 24 -24v-6q0 -89 -40 -135.5t-113 -46.5h-51q-80 0 -125.5 45.5t-45.5 126.5v51q1 80 44.5 125t125.5 45h64q24 0 24 -24v-53q0 -23 -24 -23h-50q-73 0 -73 -72v-49q0 -36 16.5 -54t54.5 -18h47q72 0 72 72zM411 519h-417q-24 0 -24 24v57
q0 23 24 23h417q24 0 24 -23v-57q0 -24 -24 -24z" />
    <glyph glyph-name="uni0936094D" horiz-adv-x="407" 
d="M346 22q0 -22 -21 -22h-82q-13 0 -21 13l-131 179l-31 38v72q0 13 8.5 21t21.5 8h102q77 0 77 61v90q0 44 -40 44q-22 0 -31 -10.5t-9 -32.5v-52q0 -24 -23 -24h-67q-25 0 -25 24v46q0 148 155 148q72 0 113.5 -37.5t41.5 -110.5v-83q0 -78 -45.5 -121.5t-137.5 -43.5h-7
l146 -190q6 -8 6 -17z" />
    <glyph glyph-name="uni0937094D" horiz-adv-x="295" 
d="M432 291q16 -12 16 -21.5t-3 -15.5q-24 -44 -73 -81t-114 -37h-48q-73 0 -116.5 43t-43.5 116v210q0 13 -10 14h-46q-24 0 -24 25v56q0 23 24 23h422q24 0 24 -23v-57q0 -24 -24 -24h-251l199 -209q12 12 20.5 12t19.5 -9zM231 239h29q34 0 62 23l-155 164v-121
q0 -34 14.5 -50t49.5 -16z" />
    <glyph glyph-name="uni0938094D" horiz-adv-x="362" 
d="M271 337h152q24 0 24 -23v-57q0 -24 -24 -24h-258l123 -194q6 -10 6 -18q0 -21 -21 -21h-79q-13 0 -21 13l-114 185l-29 38v72q0 13 8.5 21t21.5 8h74q35 0 35 36v132q0 14 -12 14h-163q-24 0 -24 25v56q0 23 24 23h429q24 0 24 -23v-57q0 -24 -24 -24h-125
q-12 0 -12 -14v-99q0 -49 -15 -65v-4z" />
    <glyph glyph-name="uni0939094D" horiz-adv-x="453" 
d="M48 336q0 127 141 127h90q13 0 13 14v28q0 13 -10 14h-288q-24 0 -24 23v58q0 23 24 23h465q24 0 24 -23v-58q0 -23 -24 -23h-39q-12 0 -12 -14v-86q0 -55 -59 -55h-138q-45 0 -45 -42q0 -24 10 -34t32 -10h313q24 0 24 -23v-46q0 -23 -24 -23h-306q-32 0 -44 -14.5
t-12 -43.5v-4q0 -30 18 -40.5t64 -10.5h144q24 0 24 -23v-51q0 -23 -24 -23h-157q-186 0 -186 147v5q0 81 57 105v4q-51 27 -51 99z" />
    <glyph glyph-name="uni0915093C094D" horiz-adv-x="523" 
d="M509 358h-23q-64 0 -64 -63v-271q0 -24 -24 -24h-67q-23 0 -23 24v95h-4q-23 -39 -86 -39h-19q-81 0 -125.5 44.5t-44.5 125.5v42q1 80 44.5 125t125.5 45h37q24 0 24 -24v-57q0 -23 -24 -23h-19q-73 0 -73 -72v-30q0 -72 77 -72h23q64 0 64 63v258q0 14 -12 14h-302
q-24 0 -24 24v57q0 23 24 23h649q24 0 24 -23v-57q0 -24 -24 -24h-209q-12 0 -12 -14v-82h4q23 39 86 39h19q95 0 131 -73q3 -6 3 -15.5t-16 -21.5l-36 -27q-11 -9 -19 -9t-19 13q-24 29 -66 29zM210 -2v-65q0 -23 -22 -23h-70q-22 0 -22 23v65q0 22 22 22h70q22 0 22 -22z
" />
    <glyph glyph-name="uni0916093C094D" horiz-adv-x="502" 
d="M-6 623h595q24 0 24 -23v-57q0 -24 -24 -24h-293q-12 0 -12 -14v-139q0 -57 -30.5 -93t-83.5 -38h-8l124 -196q6 -8 6 -17q0 -22 -21 -22h-77q-13 0 -21 13l-114 185l-29 38v72q0 13 8.5 21t21.5 8h74q35 0 35 36v132q0 13 -10 14h-165q-24 0 -24 24v57q0 23 24 23z
M499 103h-46q-72 0 -108 42t-36 114v47q0 68 40.5 108.5t118.5 40.5h19q25 0 25 -24v-56q0 -22 -25 -22h-7q-34 0 -46 -13.5t-12 -49.5v-23q0 -37 13.5 -51t48.5 -14h7q21 0 29.5 3.5t13 5t9.5 6t6.5 6t5.5 6t8.5 10t12.5 5.5t19 -9l23 -18q16 -12 16 -21.5t-3 -15.5
q-19 -35 -54 -56t-78 -21zM120 -3v-65q0 -23 -22 -23h-70q-22 0 -22 23v65q0 22 22 22h70q22 0 22 -22z" />
    <glyph glyph-name="uni0917093C094D" horiz-adv-x="285" 
d="M291 519h-38q-12 0 -12 -14v-149q0 -83 -43 -127t-124 -44h-25q-24 0 -24 24v59q0 24 24 24h5q37 0 53.5 16.5t16.5 52.5v144q0 13 -10 14h-120q-24 0 -24 24v57q0 23 24 23h297q24 0 24 -23v-57q0 -24 -24 -24zM191 38v-65q0 -23 -22 -23h-70q-22 0 -22 23v65
q0 22 22 22h70q22 0 22 -22z" />
    <glyph glyph-name="uni091C093C094D" horiz-adv-x="322" 
d="M138 -22v-65q0 -23 -22 -23h-70q-22 0 -22 23v65q0 22 22 22h70q22 0 22 -22zM-6 519q-24 0 -24 24v57q0 23 24 23h377q24 0 24 -23v-56q0 -24 -24 -25h-377zM265 331v-4q33 -13 33 -54v-66q0 -74 -37.5 -117.5t-107.5 -43.5h-105q-24 0 -24 23v57q0 24 24 24h66
q47 0 60 21q9 16 9 47v47q0 66 -70 66h-26q-24 0 -24 23v64q0 21 23 21h285q24 0 24 -23v-60q0 -24 -24 -25h-106z" />
    <glyph glyph-name="uni0928093C094D" horiz-adv-x="257" 
d="M78 182q-54 0 -54 102q0 53 34.5 85t89.5 32h164q24 0 24 -23v-58q0 -24 -24 -24h-118q-19 0 -29 -2q-25 -5 -25 -35l9 -54q0 -23 -22 -23h-49zM-6 623h318q24 0 24 -23v-57q0 -24 -24 -24h-318q-24 0 -24 24v57q0 23 24 23zM213 37v-65q0 -23 -22 -23h-70q-22 0 -22 23
v65q0 22 22 22h70q22 0 22 -22z" />
    <glyph glyph-name="uni092B093C094D" horiz-adv-x="536" 
d="M522 348h-22q-64 0 -64 -63v-261q0 -24 -24 -24h-69q-24 0 -24 23v169h-4q-24 -40 -89 -40h-16q-73 0 -116.5 43t-43.5 116v194q0 13 -10 14h-46q-24 0 -24 25v56q0 23 24 23h669q24 0 24 -23v-57q0 -24 -24 -24h-215q-12 0 -12 -14v-92h4q23 39 86 39h18q95 0 131 -73
q3 -6 3 -15.5t-16 -21.5l-36 -27q-11 -9 -18.5 -9t-22.5 17q-21 25 -63 25zM231 258h14q39 0 56.5 19t17.5 50v178q0 14 -12 14h-128q-12 0 -12 -14v-181q0 -34 14.5 -50t49.5 -16zM210 18v-65q0 -23 -22 -23h-70q-22 0 -22 23v65q0 22 22 22h70q22 0 22 -22z" />
    <glyph glyph-name="uni092F093C094D" horiz-adv-x="325" 
d="M266 175h22q22 0 42 8.5t29.5 16.5t24.5 24.5t22 23.5t16 7t20 -9l28 -22q16 -12 16 -21.5t-3 -15.5q-23 -42 -77.5 -78.5t-120.5 -36.5h-33q-103 0 -157.5 61t-54.5 145v93q0 24 24 24h70q33 0 46 12t13 41v15q0 56 -59 56h-140q-24 0 -24 24v58q0 22 24 22h427
q24 0 24 -23v-57q0 -24 -24 -24h-152v-5q35 -16 35 -67v-25q0 -64 -35 -95t-108 -33h-6v-17q0 -102 111 -102zM163 18v-65q0 -23 -22 -23h-70q-22 0 -22 23v65q0 22 22 22h70q22 0 22 -22z" />
    <glyph glyph-name="uni09080902" horiz-adv-x="467" 
d="M320 725v-63q0 -23 9 -31t36 -8h108q24 0 24 -23v-58q0 -23 -24 -23h-64q-12 0 -12 -12v-92q0 -55 -59 -55h-145q-17 0 -23.5 -7.5t-6.5 -24.5v-4q0 -27 30 -27h101q61 0 95.5 -30t34.5 -88v-48q0 -60 -35 -95.5t-95 -35.5h-69q-48 0 -62 28h-4v-69q0 -23 -24 -23h-67
q-24 0 -24 23v188q0 23 24 23h67q24 0 24 -23v-4q0 -42 45 -42h73q17 0 23.5 7.5t6.5 24.5v38q0 27 -30 27h-93q-135 0 -135 128v15q0 60 36.5 91t98.5 31h85q12 0 12 14v30q0 12 -12 12h-275q-24 0 -24 23v58q0 23 24 23h230v4q-21 9 -21 43v59q0 75 47.5 119.5t122.5 44.5
h61q24 0 24 -24v-56q0 -24 -24 -24h-53q-61 0 -61 -64zM459 728v-50q0 -23 -22 -23h-50q-22 0 -22 23v50q0 22 22 22h50q22 0 22 -22z" />
    <glyph glyph-name="uni09300941" horiz-adv-x="532" 
d="M-6 623h544q24 0 24 -23v-57q0 -24 -24 -24h-240q-12 0 -12 -14v-51h51q80 0 120 -37.5t40 -106.5v-31q0 -61 -27 -99.5t-89 -79.5q-13 -9 -24 -9t-18 10l-33 52q-7 11 -7 20t10 16.5t29.5 20.5t23 17t13 15t11.5 22.5t2 28.5v7q0 31 -12 44t-42 13h-48q-2 -54 -32.5 -88
t-80.5 -34h-9l124 -196q6 -8 6 -17q0 -22 -21 -22h-79q-13 0 -21 13l-114 185l-29 38v72q0 13 8.5 21t21.5 8h74q35 0 35 36v132q0 13 -10 14h-165q-24 0 -24 24v57q0 23 24 23z" />
    <glyph glyph-name="uni09300942" horiz-adv-x="686" 
d="M488 357q-30 0 -40 -15.5t-10 -45.5v-31q0 -29 -22 -29h-68q-25 0 -25 29v30q0 84 42 121.5t122.5 37.5t122 -37.5t41.5 -106.5v-29q0 -69 -23 -101q-11 -16 -15.5 -24.5t-23 -23.5t-25 -20.5t-32 -21.5t-34.5 -21q-56 -33 -65.5 -33t-16.5 10l-33 52q-7 11 -7 20.5
t14 18.5q103 59 127.5 82t24.5 70v11q0 31 -12 44t-42 13zM169 373v132q0 13 -10 14h-165q-24 0 -24 24v57q0 23 24 23h698q24 0 24 -23v-57q0 -24 -24 -24h-394q-12 0 -12 -14v-139q0 -57 -30 -94t-81 -37h-11l124 -196q6 -8 6 -17q0 -22 -21 -22h-79q-13 0 -21 13
l-114 185l-29 38v72q0 13 8.5 21t21.5 8h74q35 0 35 36z" />
    <glyph glyph-name="uni09390941" horiz-adv-x="474" 
d="M-6 519q-24 0 -24 23v58q0 23 24 23h486q24 0 24 -23v-58q0 -23 -24 -23h-60q-12 0 -12 -14v-86q0 -55 -59 -55h-138q-24 0 -34.5 -9t-10.5 -32t10 -32.5t32 -9.5h96q56 0 87.5 -27t31.5 -76v-35q0 -23 -24 -23h-63q-24 0 -24 23v14q0 18 -7.5 25t-25.5 7h-64
q-32 0 -43.5 -16.5t-12.5 -51.5v-7q0 -38 20 -51t78 -13h51q151 0 151 -142q0 -162 -161 -162h-10q-84 0 -151 34t-99 72q-11 12 -11 20.5t6 16.5l32 38q12 14 20 14t19.5 -8.5t32.5 -25t31 -22.5t30 -17q39 -22 82 -22h17q53 0 53 53.5t-44 53.5h-62q-107 0 -154.5 39.5
t-47.5 120.5v11q0 88 57 112v4q-51 23 -51 94t36 100t105 29h90q13 0 13 14v28q0 13 -10 14h-288z" />
    <glyph glyph-name="uni09390942" horiz-adv-x="463" 
d="M-6 623h475q24 0 24 -23v-58q0 -23 -24 -23h-49q-12 0 -12 -14v-86q0 -55 -59 -55h-138q-24 0 -34.5 -9t-10.5 -32t10 -32.5t32 -9.5h96q56 0 87.5 -27t31.5 -76v-35q0 -23 -24 -23h-63q-24 0 -24 23v14q0 18 -7.5 25t-25.5 7h-64q-32 0 -43.5 -16.5t-12.5 -51.5v-7
q0 -37 19 -51.5t57 -15t58 -3.5t37.5 -12.5t29 -15.5t25.5 -25.5t20.5 -28t20.5 -38.5q42 -97 42 -109.5t-15 -17.5q-52 -20 -57 -20q-16 0 -26 20.5t-26 57.5t-21.5 47t-18 25.5t-27 19t-37.5 3.5h-26q-24 0 -32 -12t-8 -36t7.5 -33.5t29.5 -9.5h31q25 0 25 -25v-43
q0 -26 -25 -26h-31q-145 0 -145 137q0 59 25 94q-49 35 -49 117v11q0 88 57 112v4q-51 23 -51 94t36 100t105 29h90q13 0 13 14v28q0 13 -10 14h-288q-24 0 -24 23v58q0 23 24 23z" />
    <glyph glyph-name="uni09260943" horiz-adv-x="361" 
d="M313 29h-122q-72 0 -111.5 36t-39.5 97v13q0 68 54 87v4q-54 18 -54 81v12q0 124 138 124h7q12 0 12 14v8q0 14 -12 14h-191q-24 0 -24 25v56q0 23 24 23h373q24 0 24 -23v-57q0 -24 -24 -24h-41q-12 0 -12 -14v-60q0 -55 -59 -55h-51q-27 0 -38 -7t-11 -26v-4
q0 -33 36 -33h66q24 0 24 -24v-57q0 -23 -24 -23h-66q-16 0 -26 -10t-10 -28v-7q0 -18 10 -28t26 -10h122q24 0 24 -23v-57q0 -24 -24 -24z" />
    <glyph glyph-name="uni09390943" horiz-adv-x="576" 
d="M-6 623h588q24 0 24 -23v-58q0 -23 -24 -23h-132q-12 0 -12 -14v-86q0 -55 -59 -55h-168q-23 0 -34 -7.5t-11 -28.5t9.5 -29t32.5 -8h224q56 0 85 -27t29 -76v-25q0 -23 -24 -23h-58q-24 0 -24 23v4q0 18 -7.5 25t-25.5 7h-31q-22 0 -28.5 -14.5t-6.5 -53.5t10 -54.5
t38 -15.5h112q25 0 25 -25v-46q0 -25 -25 -25h-113q-83 0 -120 37.5t-37 123.5q0 40 11 73h-27q-32 0 -44 -16.5t-12 -51.5v-156q0 -38 20 -51t78 -13h148q24 0 24 -23v-51q0 -23 -24 -23h-161q-107 0 -154.5 39.5t-47.5 120.5v160q0 88 57 112v4q-51 23 -51 89t36 95
t105 29h120q13 0 13 14v28q0 13 -10 14h-318q-24 0 -24 23v58q0 23 24 23z" />
    <glyph glyph-name="uni094D0930" horiz-adv-x="0" 
d="M-311 24h77q17 0 31 -19l125 -169q6 -9 6 -17q0 -16 -21 -16h-88q-16 0 -24 13l-65 98h-5l-66 -98q-8 -13 -24 -13h-88q-21 0 -21 16q0 8 6 17l126 169q14 19 31 19z" />
    <glyph glyph-name="uni0930094D.1" horiz-adv-x="192" 
d="M162 272h-65q-112 0 -171 108q-3 6 -3 15.5t16 21.5l28 22q11 9 20.5 9t15 -6.5t16.5 -21t19 -21.5q22 -21 60 -21h63q38 0 61 21q7 7 18 21.5t16.5 21t15 6.5t20.5 -9l28 -22q16 -12 16 -21.5t-3 -15.5q-59 -108 -171 -108zM198 519h-204q-24 0 -24 24v57q0 23 24 23
h204q24 0 24 -23v-57q0 -24 -24 -24z" />
    <glyph glyph-name="uni0930094D.2" horiz-adv-x="0" 
d="M-48 623v-55h-129v129q0 82 44 126.5t126 44.5h31q24 0 24 -24v-56q0 -24 -24 -24h-11q-73 0 -73 -71v-56q0 -14 12 -14z" />
    <glyph glyph-name="uni0930094D0902" horiz-adv-x="0" 
d="M75 728v-50q0 -23 -22 -23h-50q-22 0 -22 23v50q0 22 22 22h50q22 0 22 -22zM-48 623v-55h-129v153q0 82 44 126.5t126 44.5h31q24 0 24 -24v-56q0 -24 -24 -24h-11q-73 0 -73 -71v-80q0 -14 12 -14z" />
    <glyph glyph-name="uni093E0930094D" 
d="M230 868h31q24 0 24 -24v-56q0 -24 -24 -24h-11q-73 0 -73 -71v-56q0 -14 12 -14h54q24 0 24 -23v-57q0 -24 -24 -24h-54q-12 0 -12 -14v-482q0 -23 -24 -23h-69q-24 0 -24 23v482q0 14 -12 14h-54q-24 0 -24 24v57q0 23 24 23h54q12 0 12 14v60q0 82 44 126.5t126 44.5z
" />
    <glyph glyph-name="uni093E0930094D0902" 
d="M254 751h50q22 0 22 -22v-50q0 -23 -22 -23h-50q-22 0 -22 23v50q0 22 22 22zM189 623h54q24 0 24 -23v-57q0 -24 -24 -24h-54q-12 0 -12 -14v-482q0 -23 -24 -23h-69q-24 0 -24 23v482q0 14 -12 14h-54q-24 0 -24 24v57q0 23 24 23h54q12 0 12 14v87q0 82 44 126.5
t126 44.5h31q24 0 24 -24v-56q0 -24 -24 -24h-11q-73 0 -73 -71v-83q0 -14 12 -14z" />
    <glyph glyph-name="uni0930094D.aMatraI" horiz-adv-x="0" 
d="M0 623h-117v54q0 82 44 126.5t126 44.5h31q24 0 24 -24v-56q0 -24 -24 -24h-11q-73 0 -73 -71v-50z" />
    <glyph glyph-name="uni0902.aMatraI" horiz-adv-x="0" 
d="M155 816v-72q0 -23 -22 -23h-81q-22 0 -22 23v72q0 22 22 22h81q22 0 22 -22z" />
    <glyph glyph-name="uni0930094D0902.aMatraI" horiz-adv-x="0" 
d="M142 681v-50q0 -23 -22 -23h-50q-22 0 -22 23v50q0 22 22 22h50q22 0 22 -22zM0 623h-117v54q0 82 44 126.5t126 44.5h31q24 0 24 -24v-56q0 -24 -24 -24h-11q-73 0 -73 -71v-50z" />
    <glyph glyph-name="uni09400930094D" 
d="M177 707v-70q0 -14 11 -14h55q24 0 24 -23v-57q0 -24 -24 -24h-54q-12 0 -12 -14v-482q0 -23 -24 -23h-69q-24 0 -24 23v482q0 14 -12 14h-54q-24 0 -24 24v57q0 23 24 23h56q10 0 10 14v76q0 42 -13 58t-50 16t-52.5 -16.5t-15.5 -57.5v-5q0 -24 -21 -24h-70
q-25 0 -25 24v7q0 178 181 178q115 0 140 -67q33 67 107 67h38q24 0 24 -24v-56q0 -24 -24 -24h-31q-71 0 -71 -82z" />
    </font>
</defs>
</svg>
